<?xml version="1.0" encoding="UTF-8"?>
<svg version="1.1" xmlns="http://www.w3.org/2000/svg" width="512" height="512">
<path d="M0 0 C0.8943367 -0.00694553 1.78867339 -0.01389106 2.7101112 -0.02104706 C5.7073087 -0.03934541 8.70371721 -0.02904477 11.70094299 -0.01878357 C13.84955946 -0.0258406 15.99817095 -0.0345847 18.14677429 -0.04489136 C23.98355305 -0.06741928 29.82006108 -0.06443757 35.65686679 -0.05556989 C40.52781428 -0.05046472 45.39871068 -0.05774875 50.2696529 -0.06504196 C61.75965297 -0.08205183 73.24952026 -0.07846414 84.73951721 -0.06175232 C96.59741545 -0.04482854 108.45494565 -0.06066686 120.31280369 -0.0929752 C130.49043646 -0.11965608 140.66795455 -0.12695117 150.84561878 -0.11846012 C156.92568031 -0.11352672 163.00552033 -0.11576908 169.08555412 -0.13624763 C174.80252899 -0.15458101 180.51897371 -0.14867422 186.23591995 -0.12404823 C188.33456341 -0.11903301 190.4332471 -0.12254846 192.53185844 -0.13519669 C195.39619985 -0.15109473 198.25878856 -0.13620675 201.12304688 -0.11352539 C201.9542769 -0.12536112 202.78550693 -0.13719685 203.64192575 -0.14939123 C207.56821683 -0.08619198 210.34955631 0.25040008 213.56263828 2.61642551 C241.37769238 34.07731225 218.12501526 86.52103764 218.12501526 128.5146637 C140.57501526 128.5146637 63.02501526 128.5146637 -16.87498474 128.5146637 C-16.93685974 109.1684137 -16.99873474 89.8221637 -17.06248474 69.8896637 C-17.08979675 63.78385803 -17.11710876 57.67805237 -17.14524841 51.38722229 C-17.15879822 43.92408752 -17.15879822 43.92408752 -17.16131592 40.42887878 C-17.16591888 37.99079242 -17.17646227 35.55271282 -17.19171143 33.1146698 C-17.21366896 29.41894182 -17.21670279 25.72363073 -17.21556091 22.02784729 C-17.22635524 20.94396917 -17.23714956 19.86009106 -17.24827099 18.74336815 C-17.22036921 11.99793744 -16.69642458 7.43035085 -11.81772041 2.38867855 C-7.79264921 -0.17459728 -4.67843444 -0.04625759 0 0 Z " fill="#000000" transform="translate(58.87498474121094,164.48533630371094)"/>
<path d="M0 0 C18.26339329 15.26792854 29.81032352 34.91229952 32.39257812 58.72460938 C34.32461752 81.51551855 28.06150971 103.94085928 13.39257812 121.72460938 C5.78125577 130.55506128 -2.26273901 137.2594939 -12.60742188 142.72460938 C-13.49816406 143.20414063 -14.38890625 143.68367187 -15.30664062 144.17773438 C-31.24211989 152.08592439 -48.07599833 153.10601162 -65.60742188 151.72460938 C-67.78840642 149.54362483 -66.81924137 144.3937399 -66.85351562 141.35351562 C-66.88649112 139.39713157 -66.91970206 137.44075147 -66.953125 135.484375 C-67.00028095 132.39724843 -67.04462653 129.31013339 -67.08422852 126.22290039 C-67.12432521 123.24542107 -67.17581585 120.268295 -67.22851562 117.29101562 C-67.23692978 116.38331924 -67.24534393 115.47562286 -67.25401306 114.54042053 C-67.44619396 104.41367943 -68.62629355 95.45845978 -75.60742188 87.72460938 C-81.3106152 83.01972199 -86.06753238 80.65560734 -93.46777344 80.51928711 C-94.42846741 80.49934189 -95.38916138 80.47939667 -96.37896729 80.45884705 C-97.40826355 80.44213455 -98.43755981 80.42542206 -99.49804688 80.40820312 C-101.08767242 80.37703148 -101.08767242 80.37703148 -102.70941162 80.3452301 C-106.09201626 80.27988752 -109.47469799 80.22092057 -112.85742188 80.16210938 C-115.15170066 80.11890963 -117.44597166 80.07529487 -119.74023438 80.03125 C-125.36254889 79.92422177 -130.98493997 79.82242699 -136.60742188 79.72460938 C-140.95539877 59.20677654 -134.60191185 37.10883822 -123.60742188 19.72460938 C-121.10751215 16.232012 -118.43691724 12.95445399 -115.60742188 9.72460938 C-115.02605469 9.04785156 -114.4446875 8.37109375 -113.84570312 7.67382812 C-85.04344888 -23.50258157 -32.83130019 -26.04962214 0 0 Z " fill="#000000" transform="translate(358.607421875,70.275390625)"/>
<path d="M0 0 C4.08705441 -0.02813683 8.17407009 -0.04838007 12.26119995 -0.0617981 C13.64707422 -0.06740112 15.03294201 -0.07503627 16.41879272 -0.08486938 C52.9200301 -0.33707953 88.57166701 12.68941997 116 37 C116.78286377 37.68449219 116.78286377 37.68449219 117.58154297 38.3828125 C125.16362571 45.03743015 131.91064696 51.91736953 138 60 C139.19882812 61.55074219 139.19882812 61.55074219 140.421875 63.1328125 C155.18453283 82.65901073 169 109.97446392 169 135 C94.09 135 19.18 135 -58 135 C-58.66 132.03 -59.32 129.06 -60 126 C-60.33 124.68 -60.66 123.36 -61 122 C-60.0527002 121.98018066 -59.10540039 121.96036133 -58.12939453 121.93994141 C-54.56942949 121.86121768 -51.00983574 121.77450803 -47.45019531 121.68261719 C-45.91804323 121.64465122 -44.38581179 121.6097459 -42.85351562 121.578125 C-24.59748249 121.48707321 -24.59748249 121.48707321 -9 113 C-1.58336229 104.69400103 -0.70872908 94.99770745 -0.68115234 84.23583984 C-0.66608391 82.858396 -0.66608391 82.858396 -0.65071106 81.453125 C-0.62012992 78.45573482 -0.60291437 75.45843288 -0.5859375 72.4609375 C-0.56720564 70.36771905 -0.54763075 68.274508 -0.5272522 66.18130493 C-0.4761382 60.70042294 -0.43640202 55.21951652 -0.39910889 49.73852539 C-0.35893864 44.13421693 -0.30790597 38.53000825 -0.2578125 32.92578125 C-0.16129895 21.95059114 -0.07681622 10.97534442 0 0 Z " fill="#000000" transform="translate(292,230)"/>
<path d="M0 0 C0.8214441 -0.0072672 1.64288821 -0.01453441 2.48922455 -0.02202183 C5.25396448 -0.04033368 8.01732789 -0.02288813 10.78205872 -0.00571251 C12.77922114 -0.01147125 14.77637828 -0.0194107 16.77352428 -0.02934873 C22.27107966 -0.05027907 27.76820273 -0.03987867 33.26575994 -0.02441764 C39.19087034 -0.01313339 45.1159049 -0.0305523 51.04100037 -0.04431725 C61.98049026 -0.0652976 72.91983116 -0.06343448 83.85932902 -0.0497599 C93.96480249 -0.03718966 104.07022527 -0.03389508 114.17570496 -0.03987312 C114.84562748 -0.04025505 115.51555 -0.04063697 116.2057732 -0.04103047 C118.92510294 -0.04258713 121.64443267 -0.04417912 124.36376236 -0.04582929 C149.88112116 -0.06112955 175.39839187 -0.04724869 200.91573708 -0.02034481 C223.59396245 0.00338384 246.27204746 0.00126072 268.95027161 -0.02264977 C294.42049597 -0.0494141 319.89064247 -0.06004453 345.36087894 -0.04458845 C348.07529766 -0.04298482 350.78971639 -0.04142062 353.50413513 -0.03987312 C354.17251035 -0.03947774 354.84088556 -0.03908235 355.52951457 -0.03867498 C365.62945419 -0.03298395 375.72933758 -0.03964579 385.82926941 -0.05227089 C397.31162918 -0.06627375 408.79381799 -0.06254249 420.27615809 -0.03586717 C426.13802933 -0.02269929 431.99961521 -0.01762733 437.86148453 -0.03411293 C443.22303905 -0.04896376 448.58404253 -0.04090463 453.94554675 -0.01422517 C455.88961319 -0.00861953 457.83372576 -0.01152697 459.77776277 -0.02360411 C462.41245848 -0.03872191 465.04524551 -0.0233079 467.67984009 0 C468.44177898 -0.01170583 469.20371786 -0.02341166 469.98874581 -0.03547221 C473.9429669 0.03486354 475.67669697 0.4991923 478.80948925 2.99458086 C481.18227388 6.07343356 481.48206094 7.56478012 481.50398254 11.4104557 C481.51042786 12.49971352 481.51687317 13.58897133 481.52351379 14.71123695 C481.50417786 15.83916664 481.48484192 16.96709633 481.46492004 18.1292057 C481.49392395 19.82110023 481.49392395 19.82110023 481.52351379 21.54717445 C481.51706848 22.63643227 481.51062317 23.72569008 481.50398254 24.8479557 C481.4983429 25.83731117 481.49270325 26.82666664 481.4868927 27.84600258 C480.57531702 31.76749796 478.97433635 33.13252354 475.83992004 35.6292057 C472.92281101 36.12085733 470.5916578 36.30314629 467.67984009 36.25841141 C466.44767393 36.26931221 466.44767393 36.26931221 465.19061553 36.28043324 C462.42587561 36.29874509 459.66251219 36.28129953 456.89778137 36.26412392 C454.90061894 36.26988266 452.90346181 36.27782211 450.9063158 36.28776014 C445.40876043 36.30869048 439.91163736 36.29829008 434.41408014 36.28282905 C428.48896975 36.2715448 422.56393519 36.2889637 416.63883972 36.30272865 C405.69934983 36.323709 394.76000893 36.32184589 383.82051107 36.30817131 C373.7150376 36.29560106 363.60961482 36.29230649 353.50413513 36.29828453 C352.83421261 36.29866646 352.16429009 36.29904838 351.47406689 36.29944188 C348.75473714 36.30099853 346.03540742 36.30259053 343.31607773 36.3042407 C317.79871892 36.31954096 292.28144822 36.30566009 266.76410301 36.27875621 C244.08587764 36.25502757 221.40779263 36.25715068 198.72956848 36.28106117 C173.25934412 36.30782551 147.78919762 36.31845594 122.31896114 36.30299985 C119.60454243 36.30139623 116.8901237 36.29983203 114.17570496 36.29828453 C113.50732974 36.29788914 112.83895452 36.29749376 112.15032551 36.29708639 C102.0503859 36.29139536 91.95050251 36.29805719 81.85057068 36.3106823 C70.36821091 36.32468516 58.8860221 36.3209539 47.40368199 36.29427858 C41.54181076 36.2811107 35.68022488 36.27603874 29.81835556 36.29252434 C24.45680104 36.30737517 19.09579756 36.29931604 13.73429334 36.27263658 C11.7902269 36.26703093 9.84611433 36.26993838 7.90207732 36.28201552 C5.2673816 36.29713331 2.63459458 36.28171931 0 36.25841141 C-0.76193889 36.27011724 -1.52387778 36.28182307 -2.30890572 36.29388362 C-6.26312681 36.22354787 -7.99685688 35.75921911 -11.12964916 33.26383054 C-13.50243379 30.18497785 -13.80222085 28.69363129 -13.82414246 24.8479557 C-13.83058777 23.75869789 -13.83703308 22.66944008 -13.84367371 21.54717445 C-13.82433777 20.41924477 -13.80500183 19.29131508 -13.78507996 18.1292057 C-13.80441589 17.00127602 -13.82375183 15.87334633 -13.84367371 14.71123695 C-13.83400574 13.07735023 -13.83400574 13.07735023 -13.82414246 11.4104557 C-13.81850281 10.42110023 -13.81286316 9.43174477 -13.80705261 8.41240883 C-12.1034007 1.08349117 -6.68657825 -0.10272734 0 0 Z " fill="#000000" transform="translate(22.160079956054688,379.37079429626465)"/>
<path d="M0 0 C151.8 0 303.6 0 460 0 C460 9.57 460 19.14 460 29 C308.2 29 156.4 29 0 29 C0 19.43 0 9.86 0 0 Z " fill="#000000" transform="translate(26,430)"/>
<path d="M0 0 C77.55 0 155.1 0 235 0 C235 20.73855128 235 20.73855128 230.43720245 25.89781761 C226.52562365 28.77823644 222.71822351 28.69821633 218.00476074 28.63491821 C216.66197406 28.64661814 216.66197406 28.64661814 215.29206038 28.65855443 C212.29780167 28.67846957 209.30481461 28.66271159 206.31054688 28.64697266 C204.1617814 28.65374897 202.01302173 28.66265218 199.86427307 28.67352295 C194.0316221 28.69632091 188.19941325 28.68747761 182.36675453 28.67162752 C176.26365591 28.65897127 170.16059522 28.67070788 164.05749512 28.67855835 C153.80828045 28.68765567 143.55924591 28.67566468 133.31005859 28.65185547 C121.45951321 28.62464421 109.60939793 28.6334583 97.75886297 28.6609875 C87.58544657 28.68367505 77.41215967 28.68688032 67.23872614 28.67379415 C61.16204433 28.66599777 55.08556471 28.66496341 49.00889587 28.68147659 C43.29599301 28.69591674 37.58364484 28.68590725 31.87080193 28.65700531 C29.77377684 28.65039216 27.6767051 28.65229602 25.57969856 28.66331863 C22.7175813 28.67697626 19.85724304 28.65985534 16.99523926 28.63491821 C16.16469135 28.64607182 15.33414344 28.65722543 14.47842741 28.66871703 C10.47619005 28.60104298 7.78658881 28.25559496 4.56279755 25.77281761 C-2.64873424 17.97030415 0 11.51908505 0 0 Z " fill="#000000" transform="translate(42,308)"/>
<path d="M0 0 C1.59580399 -0.00175232 1.59580399 -0.00175232 3.22384644 -0.00354004 C6.73674542 0.00202919 10.24623996 0.0642327 13.75854492 0.12695312 C16.19518682 0.14187562 18.63185274 0.15326259 21.06852722 0.16125488 C27.47905861 0.19178717 33.88813777 0.2703635 40.2980957 0.35888672 C46.84005079 0.44075234 53.38224077 0.47726814 59.92456055 0.51757812 C72.75916419 0.60335337 85.59276167 0.73833708 98.42651367 0.90820312 C99.29568254 2.31571534 100.14636516 3.73465523 100.98901367 5.15820312 C101.46467773 5.94710938 101.9403418 6.73601562 102.43041992 7.54882812 C103.42651367 9.90820312 103.42651367 9.90820312 102.42651367 13.90820312 C63.81651367 13.90820312 25.20651367 13.90820312 -14.57348633 13.90820312 C-15.73515666 8.09985145 -15.73515666 8.09985145 -13.79682922 4.65246582 C-10.18671185 -0.60638988 -5.95646949 -0.17110662 0 0 Z " fill="#000000" transform="translate(115.573486328125,351.091796875)"/>
</svg>
