<?xml version="1.0" encoding="UTF-8"?>
<svg version="1.1" xmlns="http://www.w3.org/2000/svg" width="512" height="512">
<path d="M0 0 C2.38821519 -0.00271925 4.77642953 -0.00628536 7.16464233 -0.01062012 C13.57374049 -0.01963541 19.9827733 -0.01624533 26.39187241 -0.00986195 C30.4124274 -0.00681646 34.43296679 -0.00698956 38.45352173 -0.00884247 C39.12607949 -0.00914893 39.79863724 -0.0094554 40.49157554 -0.00977115 C41.85890317 -0.01041076 43.2262308 -0.01105919 44.59355843 -0.01171634 C57.34175294 -0.0173862 70.08991844 -0.01091474 82.83810818 -0.0001156 C93.71858401 0.00881684 104.59901713 0.00726385 115.47949219 -0.00195312 C128.18969389 -0.01271542 140.89987033 -0.01683719 153.61007595 -0.0107286 C154.97168922 -0.01009166 156.33330249 -0.00946292 157.69491577 -0.00884247 C158.69918727 -0.00837964 158.69918727 -0.00837964 159.72374707 -0.00790747 C164.38652625 -0.00619828 169.04928864 -0.00915751 173.71206665 -0.01380157 C180.01604721 -0.0196434 186.31994832 -0.01545517 192.62392044 -0.00401306 C194.91659031 -0.0014026 197.20926705 -0.00206832 199.50193405 -0.00653839 C243.69577645 -0.08465973 282.68553414 4.71898927 316.07421875 36.25878906 C317.19957031 37.28746094 317.19957031 37.28746094 318.34765625 38.33691406 C345.81080514 64.35463406 352.8314209 100.03840639 354.18846607 136.3126564 C354.36134831 143.60283495 354.34722473 150.89280749 354.33300781 158.18457031 C354.33572707 160.5727855 354.33929317 162.96099985 354.34362793 165.34921265 C354.35264322 171.7583108 354.34925314 178.16734362 354.34286976 184.57644272 C354.33982428 188.59699771 354.33999738 192.6175371 354.34185028 196.63809204 C354.34215675 197.3106498 354.34246321 197.98320756 354.34277897 198.67614585 C354.34341857 200.04347349 354.344067 201.41080112 354.34472415 202.77812874 C354.35039401 215.52632325 354.34392255 228.27448875 354.33312342 241.02267849 C354.32419098 251.90315432 354.32574397 262.78358744 354.33496094 273.6640625 C354.34572323 286.3742642 354.349845 299.08444064 354.34373641 311.79464626 C354.34309948 313.15625953 354.34247073 314.51787281 354.34185028 315.87948608 C354.34154173 316.54900041 354.34123318 317.21851474 354.34091528 317.90831739 C354.3392061 322.57109657 354.34216532 327.23385895 354.34680939 331.89663696 C354.35265122 338.20061753 354.34846298 344.50451864 354.33702087 350.80849075 C354.33441041 353.10116063 354.33507614 355.39383736 354.3395462 357.68650436 C354.41766754 401.88034676 349.61401854 440.87010446 318.07421875 474.25878906 C317.3884375 475.00902344 316.70265625 475.75925781 315.99609375 476.53222656 C289.97837375 503.99537545 254.29460142 511.01599121 218.02035141 512.37303638 C210.73017286 512.54591862 203.44020032 512.53179505 196.1484375 512.51757812 C193.76022231 512.52029738 191.37200797 512.52386349 188.98379517 512.52819824 C182.57469701 512.53721354 176.1656642 512.53382345 169.75656509 512.52744007 C165.7360101 512.52439459 161.71547071 512.52456769 157.69491577 512.52642059 C157.02235801 512.52672706 156.34980026 512.52703353 155.65686196 512.52734928 C154.28953433 512.52798889 152.9222067 512.52863732 151.55487907 512.52929446 C138.80668456 512.53496432 126.05851906 512.52849286 113.31032932 512.51769373 C102.42985349 512.50876129 91.54942037 512.51031428 80.66894531 512.51953125 C67.95874361 512.53029354 55.24856717 512.53441531 42.53836155 512.52830672 C41.17674828 512.52766979 39.81513501 512.52704104 38.45352173 512.52642059 C37.7840074 512.52611204 37.11449307 512.52580349 36.42469043 512.52548559 C31.76191125 512.52377641 27.09914886 512.52673563 22.43637085 512.5313797 C16.13239029 512.53722153 9.82848918 512.53303329 3.52451706 512.52159119 C1.23184719 512.51898072 -1.06082955 512.51964645 -3.35349655 512.52411652 C-47.54733895 512.60223785 -86.53709664 507.79858885 -119.92578125 476.25878906 C-121.05113281 475.23011719 -121.05113281 475.23011719 -122.19921875 474.18066406 C-149.66236764 448.16294406 -156.6829834 412.47917174 -158.04002857 376.20492172 C-158.21291081 368.91474318 -158.19878723 361.62477063 -158.18457031 354.33300781 C-158.18728957 351.94479263 -158.19085567 349.55657828 -158.19519043 347.16836548 C-158.20420572 340.75926732 -158.20081564 334.35023451 -158.19443226 327.94113541 C-158.19138678 323.92058041 -158.19155988 319.90004103 -158.19341278 315.87948608 C-158.19371925 315.20692833 -158.19402571 314.53437057 -158.19434147 313.84143227 C-158.19498107 312.47410464 -158.1956295 311.10677701 -158.19628665 309.73944938 C-158.20195651 296.99125487 -158.19548505 284.24308938 -158.18468592 271.49489963 C-158.17575348 260.6144238 -158.17730647 249.73399069 -158.18652344 238.85351562 C-158.19728573 226.14331392 -158.2014075 213.43313749 -158.19529891 200.72293186 C-158.19466198 199.36131859 -158.19403323 197.99970532 -158.19341278 196.63809204 C-158.19310423 195.96857771 -158.19279568 195.29906338 -158.19247778 194.60926074 C-158.1907686 189.94648156 -158.19372782 185.28371918 -158.19837189 180.62094116 C-158.20421372 174.3169606 -158.20002548 168.01305949 -158.18858337 161.70908737 C-158.18597291 159.4164175 -158.18663864 157.12374076 -158.1911087 154.83107376 C-158.26923004 110.63723137 -153.46558104 71.64747367 -121.92578125 38.25878906 C-121.24 37.50855469 -120.55421875 36.75832031 -119.84765625 35.98535156 C-88.1887712 2.56763957 -43.23341678 -0.08429321 0 0 Z " fill="#FEFEFE" transform="translate(157.92578125,-0.2587890625)"/>
<path d="M0 0 C0.91531018 -0.00367669 1.83062036 -0.00735338 2.77366722 -0.01114148 C5.84186416 -0.0221577 8.91002722 -0.02601867 11.97824097 -0.02983093 C14.17785245 -0.03609714 16.37746287 -0.04274408 18.57707214 -0.04974365 C25.80177068 -0.07076777 33.02646939 -0.08114453 40.25119019 -0.09111023 C42.7400908 -0.0951584 45.2289913 -0.09927534 47.71789169 -0.10346031 C58.74110867 -0.12141616 69.76432108 -0.13579496 80.78755008 -0.14363671 C82.8030994 -0.14507513 84.8186487 -0.14652652 86.834198 -0.147995 C87.5013734 -0.14847874 88.1685488 -0.14896248 88.85594164 -0.14946087 C99.65704462 -0.15775631 110.45803669 -0.18308691 121.25909127 -0.21557567 C132.36167298 -0.24869772 143.46420858 -0.26633004 154.56684101 -0.26985329 C160.79516502 -0.27220192 167.02331361 -0.28113842 173.25159073 -0.30631447 C179.11375764 -0.32962807 184.97563402 -0.333815 190.83783531 -0.32355309 C192.98438039 -0.32305842 195.13093993 -0.32935828 197.27744102 -0.34310913 C212.02338774 -0.43225685 223.59244739 -0.10879134 234.76290894 10.63545227 C241.21707313 18.11297943 243.09059165 25.56433321 242.93087769 35.14717102 C253.81490412 29.47684725 264.69826913 23.8054593 275.55587769 18.08467102 C276.67869141 17.49347473 276.67869141 17.49347473 277.82418823 16.89033508 C281.14158569 15.14355605 284.45872564 13.39629932 287.77462769 11.64668274 C290.70071017 10.10327048 293.62818485 8.56252596 296.55587769 7.02217102 C297.47578491 6.53611389 298.39569214 6.05005676 299.34347534 5.54927063 C300.18958374 5.10462463 301.03569214 4.65997864 301.90744019 4.20185852 C302.66105835 3.80466614 303.41467651 3.40747375 304.19113159 2.99824524 C305.93087769 2.14717102 305.93087769 2.14717102 306.93087769 2.14717102 C306.93087769 19.96717102 306.93087769 37.78717102 306.93087769 56.14717102 C302.26962769 58.53967102 297.60837769 60.93217102 292.80587769 63.39717102 C283.5378088 68.16765659 274.30166648 72.9740291 265.18087769 78.02217102 C254.939958 83.68551587 244.53156084 89.0055253 234.1131897 94.33213806 C224.44210817 99.27929087 214.83853811 104.3127555 205.33590698 109.57832336 C195.27603678 115.11965521 185.03509125 120.31535693 174.80734253 125.53804016 C174.10972305 125.89498459 173.41210358 126.25192902 172.69334412 126.61968994 C171.37661306 127.2931477 170.05905838 127.96499838 168.74055481 128.63497925 C166.02284034 130.02507285 163.47531799 131.45087748 160.93087769 133.14717102 C159.94087769 133.14717102 158.95087769 133.14717102 157.93087769 133.14717102 C157.93087769 133.80717102 157.93087769 134.46717102 157.93087769 135.14717102 C158.76465942 135.39918274 159.59844116 135.65119446 160.45748901 135.9108429 C164.31681442 137.28454247 167.88190528 139.03886036 171.50509644 140.92842102 C172.22188065 141.29795898 172.93866486 141.66749695 173.6771698 142.04823303 C175.99311747 143.24365571 178.30578715 144.44526865 180.61837769 145.64717102 C182.22173638 146.47657603 183.8252527 147.30567639 185.42892456 148.13447571 C193.988082 152.56217921 202.53552169 157.01221675 211.05270386 161.5202179 C217.82440034 165.1032071 224.62713963 168.62547832 231.43087769 172.14717102 C239.85140266 176.50638696 248.26068462 180.88468399 256.64303589 185.31684875 C261.26174277 187.75476108 265.89408358 190.16453764 270.53634644 192.55732727 C271.70681519 193.16125305 272.87728394 193.76517883 274.08322144 194.3874054 C276.35144773 195.55660713 278.62087615 196.72348139 280.89181519 197.8874054 C289.71130631 202.43545419 298.26334574 207.2716843 306.93087769 212.14717102 C306.93087769 229.96717102 306.93087769 247.78717102 306.93087769 266.14717102 C302.57232255 264.69431931 299.22348837 263.37687136 295.27462769 261.23310852 C294.18311401 260.64408752 293.09160034 260.05506653 291.9670105 259.44819641 C290.78828273 258.80621885 289.60957222 258.1642096 288.43087769 257.52217102 C287.20818895 256.86074036 285.98520156 256.19986153 284.76193237 255.539505 C282.83780099 254.500707 280.91387688 253.46154247 278.99087524 252.4206543 C272.07744951 248.67921664 265.14096238 244.98133431 258.2026062 241.28639221 C255.56736028 239.88292725 252.93275232 238.47826697 250.29812622 237.07363892 C247.84253376 235.76452155 245.38671624 234.45582664 242.93087769 233.14717102 C242.85305054 234.24581482 242.85305054 234.24581482 242.77365112 235.36665344 C242.00995314 245.01433185 240.1763764 253.21669399 232.93087769 260.14717102 C223.87705006 266.7156342 214.57378644 269.61895105 203.443573 269.52812195 C202.54370289 269.53280192 201.64383278 269.53748189 200.71669388 269.54230368 C197.73064251 269.55417672 194.74505666 269.54482672 191.75900269 269.53535461 C189.60629002 269.53942373 187.45357945 269.54476752 185.3008728 269.55128479 C179.47448066 269.56492363 173.64824846 269.55967386 167.82185364 269.55014753 C161.71398499 269.54253318 155.60612971 269.54960148 149.4982605 269.55430603 C139.24270173 269.5597584 128.98720785 269.55258554 118.73165894 269.5382843 C106.88802007 269.52195884 95.04453615 269.52724771 83.20090103 269.54376352 C73.0180237 269.55739313 62.83519292 269.55929082 52.65230942 269.55144751 C46.57672334 269.54677912 40.50121002 269.54612322 34.42562866 269.55605698 C28.71279169 269.56474578 23.00015381 269.55866963 17.28733826 269.54137421 C15.19520904 269.53741961 13.10306298 269.53852575 11.01094055 269.5451622 C8.14646435 269.55340843 5.28261883 269.54301908 2.41818237 269.52812195 C1.59812336 269.53481411 0.77806435 269.54150628 -0.06684494 269.54840124 C-10.8996597 269.43976291 -19.76491503 265.74935077 -27.82302856 258.58857727 C-36.068159 249.97148607 -36.64295755 239.06629608 -36.45974731 227.72920227 C-36.45226626 226.37729743 -36.44658217 225.02538158 -36.44259644 223.67346191 C-36.42748611 220.1535174 -36.38833595 216.6342567 -36.34378052 213.11457825 C-36.30250766 209.507698 -36.28451786 205.90070484 -36.26443481 202.2936554 C-36.22182299 195.24455132 -36.15375492 188.19590634 -36.06912231 181.14717102 C-23.3614821 174.1492302 -10.60819144 167.27202578 2.32089233 160.69166565 C6.29705464 158.66766996 10.26789678 156.63327467 14.23947144 154.60029602 C15.00425812 154.20911591 15.7690448 153.81793579 16.55700684 153.41490173 C22.44867438 150.39965351 28.32513793 147.3567111 34.18087769 144.27217102 C34.86883423 143.91042786 35.55679077 143.54868469 36.26559448 143.17597961 C40.57248694 140.89864692 44.81585533 138.52487276 49.03927612 136.09590149 C50.93087769 135.14717102 50.93087769 135.14717102 52.93087769 135.14717102 C52.93087769 134.48717102 52.93087769 133.82717102 52.93087769 133.14717102 C52.14221313 132.9177179 51.35354858 132.68826477 50.54098511 132.45185852 C45.87176249 130.76440835 41.57596415 128.54721497 37.16915894 126.27217102 C36.2238884 125.78820862 35.27861786 125.30424622 34.30470276 124.80561829 C31.28221652 123.25675153 28.26283237 121.70193782 25.24337769 120.14717102 C23.26374718 119.13248278 21.28393108 118.11815656 19.30392456 117.10420227 C7.93813264 111.27681044 -3.38793776 105.37754075 -14.68011475 99.40888977 C-19.03627977 97.10824612 -23.39677911 94.81583421 -27.75662231 92.52217102 C-29.36471252 91.6758497 -30.97278713 90.82949875 -32.58084106 89.98310852 C-33.73197388 89.37724915 -34.88310669 88.77138977 -36.06912231 88.14717102 C-36.13897805 80.3665195 -36.19211263 72.58594301 -36.22455883 64.80505562 C-36.24014025 61.19111591 -36.26123859 57.57739253 -36.29544067 53.96357727 C-36.32830576 50.46871219 -36.34603173 46.9740537 -36.35375404 43.47904587 C-36.3619032 41.51281157 -36.38527813 39.54665908 -36.40901184 37.58055115 C-36.41109867 26.34013241 -34.76329872 17.58721147 -27.06912231 9.14717102 C-19.11599659 1.61263086 -10.55889585 -0.00228108 0 0 Z " fill="#010101" transform="translate(127.06912231445313,121.85282897949219)"/>
<path d="M0 0 C2.08372636 0.94770112 4.13644391 1.9648863 6.1640625 3.02734375 C6.74899475 3.33166321 7.333927 3.63598267 7.93658447 3.94952393 C9.83590887 4.93955124 11.73043499 5.93839972 13.625 6.9375 C14.94519427 7.62789761 16.26567175 8.31775392 17.58642578 9.00708008 C20.82168824 10.69753792 24.05317463 12.39504986 27.28295898 14.09594727 C29.6301859 15.33180412 31.97922128 16.56420877 34.328125 17.796875 C37.33260358 19.37537649 40.33488263 20.95796912 43.3359375 22.54296875 C49.69116544 25.89627801 56.06631866 29.21142822 62.43920898 32.53100586 C67.8222434 35.33661827 73.19711557 38.15680444 78.56323242 40.99462891 C87.64448848 45.7962555 96.78928251 50.45181123 106 55 C106 55.66 106 56.32 106 57 C33.4 57 -39.2 57 -114 57 C-112.40421699 53.80843397 -109.12182351 52.92044272 -106.01953125 51.4296875 C-104.54856992 50.70886622 -103.07804377 49.98715636 -101.60791016 49.26464844 C-100.84512756 48.89126343 -100.08234497 48.51787842 -99.29644775 48.13317871 C-95.66047829 46.33901502 -92.05432762 44.4880213 -88.44921875 42.6328125 C-87.73758575 42.26716187 -87.02595276 41.90151123 -86.29275513 41.52478027 C-84.09047488 40.39254409 -81.88892576 39.25889658 -79.6875 38.125 C-78.92042725 37.73026489 -78.15335449 37.33552979 -77.36303711 36.92883301 C-68.18461385 32.20513549 -59.01568781 27.46557461 -49.89331055 22.63427734 C-41.82450945 18.364127 -33.71098988 14.17986476 -25.59765625 9.99511719 C-24.51355469 9.43469727 -23.42945313 8.87427734 -22.3125 8.296875 C-21.25675781 7.75353516 -20.20101562 7.21019531 -19.11328125 6.65039062 C-17.02609328 5.54394531 -14.96046333 4.3959093 -12.91796875 3.20898438 C-11.95503906 2.65017578 -10.99210937 2.09136719 -10 1.515625 C-9.154375 1.00805664 -8.30875 0.50048828 -7.4375 -0.02246094 C-4.3813158 -1.24811814 -3.10969611 -1.02308943 0 0 Z " fill="#F9F9F9" transform="translate(236,284)"/>
<path d="M0 0 C71.28 0 142.56 0 216 0 C212.75320209 3.24679791 209.43101288 5.00508418 205.38671875 7.02734375 C204.62909241 7.41242096 203.87146606 7.79749817 203.09088135 8.19424438 C201.46771592 9.01886341 199.84329298 9.84101095 198.21774292 10.66091919 C193.97726202 12.80036458 189.74622774 14.95828969 185.515625 17.1171875 C184.68308701 17.54171707 183.85054901 17.96624664 182.99278259 18.40364075 C176.57939556 21.68268338 170.23800472 25.0707178 163.9375 28.5625 C156.57197587 32.64070077 149.125963 36.4848718 141.56787109 40.19335938 C133.99184827 43.93677037 126.60141505 47.99894091 119.24414062 52.15429688 C118.37080078 52.64091797 117.49746094 53.12753906 116.59765625 53.62890625 C115.82945557 54.06275635 115.06125488 54.49660645 114.26977539 54.94360352 C110.61216242 56.64592591 108.26940083 57.46042714 104.38232422 56.05053711 C103.4492041 55.5478833 102.51608398 55.04522949 101.5546875 54.52734375 C99.96043945 53.68333008 99.96043945 53.68333008 98.33398438 52.82226562 C96.62178711 51.88930664 96.62178711 51.88930664 94.875 50.9375 C93.66811609 50.29342361 92.4604183 49.6508702 91.25195312 49.00976562 C88.74126696 47.67629687 86.23421538 46.33633288 83.72949219 44.99169922 C78.0184678 41.93276345 72.25688912 38.97140666 66.5 36 C64.25236732 34.83509229 62.00497226 33.66972598 59.7578125 32.50390625 C54.09457568 29.56738273 48.43097675 26.63155854 42.76708984 23.69628906 C40.52481405 22.53367536 38.28294466 21.37027747 36.04150391 20.20605469 C30.89591889 17.53382876 25.74779008 14.86714698 20.58651733 12.22535706 C18.81273864 11.3169083 17.04038883 10.40567133 15.26806641 9.49438477 C13.0487976 8.35345257 10.82720211 7.21703192 8.60302734 6.08569336 C7.6177002 5.5778833 6.63237305 5.07007324 5.6171875 4.546875 C4.74690918 4.10182617 3.87663086 3.65677734 2.97998047 3.19824219 C1 2 1 2 0 0 Z " fill="#FDFDFD" transform="translate(124,172)"/>
</svg>
