<?xml version="1.0" encoding="UTF-8"?>
<svg version="1.1" xmlns="http://www.w3.org/2000/svg" width="512" height="512">
<path d="M0 0 C2.31677941 -0.00679257 4.6335534 -0.01570482 6.95031738 -0.02655029 C13.18594353 -0.04915497 19.42115152 -0.04058556 25.65678406 -0.02465487 C32.21683792 -0.01189759 38.77685862 -0.02376305 45.33691406 -0.03158569 C57.05144398 -0.04222719 68.76579973 -0.02580294 80.48029947 -0.00028901 C91.0611782 0.02204404 101.64178247 0.0181621 112.22265625 -0.00488281 C124.56584944 -0.03175416 136.90886816 -0.04154036 149.25208664 -0.02682149 C155.76549608 -0.01907089 162.2787173 -0.01786361 168.79211426 -0.03450394 C174.91888518 -0.04906632 181.04514354 -0.03871367 187.17185974 -0.01003265 C189.40534112 -0.0034843 191.63886649 -0.00521063 193.87232971 -0.01634598 C218.5037478 -0.12772345 240.49436547 4.9563392 259.296875 21.64697266 C259.9671875 22.17548828 260.6375 22.70400391 261.328125 23.24853516 C277.15441916 35.99749434 287.60739644 56.67776542 290.296875 76.64697266 C292.42407247 101.30479803 288.8469757 125.26813805 273.234375 145.14697266 C271.93187291 146.65566234 270.62004739 148.15637845 269.296875 149.64697266 C268.50410156 150.65244141 268.50410156 150.65244141 267.6953125 151.67822266 C256.63044466 165.41392066 240.41893497 173.99576354 223.671875 178.64697266 C222.58205322 178.9588855 222.58205322 178.9588855 221.47021484 179.27709961 C214.07332463 181.1406066 208.44902795 180.64697266 200.296875 180.64697266 C200.296875 203.08697266 200.296875 225.52697266 200.296875 248.64697266 C195.18598821 244.81380757 190.27673364 241.01810214 185.484375 236.83447266 C181.30006387 233.21343418 177.09541489 229.63279008 172.796875 226.14697266 C168.5689502 222.71489252 164.4215961 219.20146095 160.296875 215.64697266 C155.28511202 211.32882304 150.21469118 207.09790579 145.078125 202.92822266 C140.91498022 199.51350839 136.82416953 196.01554548 132.73046875 192.51806641 C132.18277832 192.07930176 131.63508789 191.64053711 131.07080078 191.18847656 C129.296875 189.64697266 129.296875 189.64697266 127.50341797 187.5703125 C120.97270827 180.85348283 114.11921524 180.57230912 105.21217346 180.3752594 C103.0760491 180.36357997 100.93979629 180.36686886 98.80371094 180.38427734 C95.56414776 180.39690533 92.33931429 180.30311694 89.1015625 180.20166016 C78.89457083 180.07896615 70.919519 180.28961638 63.12890625 187.43994141 C61.59007763 188.97900477 60.1140382 190.54846375 58.66722107 192.17408752 C56.56001384 194.43897102 54.16278242 196.30245454 51.734375 198.20947266 C45.51198141 203.26573685 39.40575535 208.45478244 33.296875 213.64697266 C26.29154166 219.60109537 19.26446567 225.51664641 12.12890625 231.31494141 C10.04658295 233.02962694 7.98381673 234.75799123 5.93359375 236.51025391 C5.35996094 237.00009766 4.78632813 237.48994141 4.1953125 237.99462891 C3.08998124 238.94097416 1.98694573 239.89001046 0.88671875 240.84228516 C-2.53600933 243.77234783 -5.90763139 246.11664359 -9.703125 248.64697266 C-9.703125 226.20697266 -9.703125 203.76697266 -9.703125 180.64697266 C-14.323125 180.64697266 -18.943125 180.64697266 -23.703125 180.64697266 C-26.99577145 180.10770458 -29.91289743 179.55247703 -33.078125 178.64697266 C-33.873396 178.4269458 -34.66866699 178.20691895 -35.48803711 177.98022461 C-48.07841121 174.28542779 -58.88841161 168.35930882 -68.703125 159.64697266 C-69.3734375 159.11845703 -70.04375 158.58994141 -70.734375 158.04541016 C-86.56066916 145.29645097 -97.01364644 124.61617989 -99.703125 104.64697266 C-101.83032247 79.98914728 -98.2532257 56.02580727 -82.640625 36.14697266 C-81.33812291 34.63828298 -80.02629739 33.13756686 -78.703125 31.64697266 C-78.17460938 30.97666016 -77.64609375 30.30634766 -77.1015625 29.61572266 C-57.98973827 5.89069947 -28.85025924 -0.14383841 0 0 Z M20.296875 75.64697266 C20.296875 85.54697266 20.296875 95.44697266 20.296875 105.64697266 C30.196875 105.64697266 40.096875 105.64697266 50.296875 105.64697266 C50.296875 95.74697266 50.296875 85.84697266 50.296875 75.64697266 C40.396875 75.64697266 30.496875 75.64697266 20.296875 75.64697266 Z M80.296875 75.64697266 C80.296875 85.54697266 80.296875 95.44697266 80.296875 105.64697266 C90.196875 105.64697266 100.096875 105.64697266 110.296875 105.64697266 C110.296875 95.74697266 110.296875 85.84697266 110.296875 75.64697266 C100.396875 75.64697266 90.496875 75.64697266 80.296875 75.64697266 Z M140.296875 75.64697266 C140.296875 85.54697266 140.296875 95.44697266 140.296875 105.64697266 C150.196875 105.64697266 160.096875 105.64697266 170.296875 105.64697266 C170.296875 95.74697266 170.296875 85.84697266 170.296875 75.64697266 C160.396875 75.64697266 150.496875 75.64697266 140.296875 75.64697266 Z " fill="#000000" transform="translate(160.703125,-0.64697265625)"/>
<path d="M0 0 C0.85207031 0.32742188 1.70414063 0.65484375 2.58203125 0.9921875 C16.84636987 7.14719345 26.40698003 19.98075232 32.703125 33.65625 C37.86040532 46.95333421 38.26103807 63.7886246 33.25390625 77.1875 C25.93351396 93.6070715 14.71397724 105.90519567 -2 113 C-3.99732449 113.67464014 -5.9970648 114.3422044 -8 115 C-7.35235184 115.00142502 -6.70470367 115.00285004 -6.03742981 115.00431824 C0.76119237 115.02414949 7.55893284 115.07870818 14.35717773 115.15258789 C16.88738661 115.1756499 19.41768988 115.19013561 21.94799805 115.19555664 C41.1362444 115.24474757 55.17437951 115.86360678 69.671875 129.58203125 C94.53143649 155.91522654 81 212.73346857 81 236 C11.7 236 -57.6 236 -129 236 C-129 141.68148148 -129 141.68148148 -115.41796875 127.328125 C-108.18306937 120.49809834 -98.53092848 115.95728154 -88.58886719 115.79467773 C-86.96763947 115.7647599 -86.96763947 115.7647599 -85.31365967 115.73423767 C-83.57285126 115.70916893 -83.57285126 115.70916893 -81.796875 115.68359375 C-80.60394836 115.66281265 -79.41102173 115.64203156 -78.1819458 115.62062073 C-74.37135577 115.55523761 -70.56069686 115.49629224 -66.75 115.4375 C-64.16665954 115.39430411 -61.58332605 115.35068948 -59 115.30664062 C-52.66673948 115.19956766 -46.33341044 115.09778028 -40 115 C-41.21018799 114.50536255 -41.21018799 114.50536255 -42.44482422 114.00073242 C-43.5123291 113.56092041 -44.57983398 113.1211084 -45.6796875 112.66796875 C-46.73397949 112.23508545 -47.78827148 111.80220215 -48.87451172 111.35620117 C-63.94358798 104.81747921 -74.78550665 93.47158264 -80.8125 78.25 C-86.20806235 63.79198827 -86.1201752 46.20610204 -80 32 C-79.67257812 31.14792969 -79.34515625 30.29585938 -79.0078125 29.41796875 C-72.85280655 15.15363013 -60.01924768 5.59301997 -46.34375 -0.703125 C-31.87200808 -6.31599686 -14.26250164 -6.14447289 0 0 Z " fill="#000000" transform="translate(400,276)"/>
<path d="M0 0 C0.85207031 0.32742188 1.70414063 0.65484375 2.58203125 0.9921875 C16.84636987 7.14719345 26.40698003 19.98075232 32.703125 33.65625 C37.86040532 46.95333421 38.26103807 63.7886246 33.25390625 77.1875 C25.93351396 93.6070715 14.71397724 105.90519567 -2 113 C-3.99732449 113.67464014 -5.9970648 114.3422044 -8 115 C-7.35235184 115.00142502 -6.70470367 115.00285004 -6.03742981 115.00431824 C0.76119237 115.02414949 7.55893284 115.07870818 14.35717773 115.15258789 C16.88738661 115.1756499 19.41768988 115.19013561 21.94799805 115.19555664 C41.1362444 115.24474757 55.17437951 115.86360678 69.671875 129.58203125 C94.53143649 155.91522654 81 212.73346857 81 236 C11.7 236 -57.6 236 -129 236 C-129 141.68148148 -129 141.68148148 -115.41796875 127.328125 C-108.18306937 120.49809834 -98.53092848 115.95728154 -88.58886719 115.79467773 C-86.96763947 115.7647599 -86.96763947 115.7647599 -85.31365967 115.73423767 C-83.57285126 115.70916893 -83.57285126 115.70916893 -81.796875 115.68359375 C-80.60394836 115.66281265 -79.41102173 115.64203156 -78.1819458 115.62062073 C-74.37135577 115.55523761 -70.56069686 115.49629224 -66.75 115.4375 C-64.16665954 115.39430411 -61.58332605 115.35068948 -59 115.30664062 C-52.66673948 115.19956766 -46.33341044 115.09778028 -40 115 C-41.21018799 114.50536255 -41.21018799 114.50536255 -42.44482422 114.00073242 C-43.5123291 113.56092041 -44.57983398 113.1211084 -45.6796875 112.66796875 C-46.73397949 112.23508545 -47.78827148 111.80220215 -48.87451172 111.35620117 C-63.94358798 104.81747921 -74.78550665 93.47158264 -80.8125 78.25 C-86.20806235 63.79198827 -86.1201752 46.20610204 -80 32 C-79.67257813 31.14792969 -79.34515625 30.29585938 -79.0078125 29.41796875 C-72.85280655 15.15363013 -60.01924768 5.59301997 -46.34375 -0.703125 C-31.87200808 -6.31599686 -14.26250164 -6.14447289 0 0 Z " fill="#000000" transform="translate(160,276)"/>
</svg>
