<?xml version="1.0" encoding="UTF-8"?>
<svg version="1.1" xmlns="http://www.w3.org/2000/svg" width="512" height="512">
<path d="M0 0 C7.85388277 3.56643529 14.20019978 9.50663877 20.5078125 15.26953125 C21.31347656 16.00300781 22.11914062 16.73648438 22.94921875 17.4921875 C30.96177727 25.16073635 37.62357166 34.14943168 44.0703125 43.14453125 C44.58937668 43.86844055 45.10844086 44.59234985 45.64323425 45.3381958 C47.10825237 47.64137592 48.22171606 49.74895907 49.34394836 52.21234131 C52.9971718 59.98234608 52.9971718 59.98234608 59.50338364 65.1721344 C65.27843928 66.54982095 71.1652017 66.15211662 77.05078125 65.91015625 C78.94780565 65.89256305 80.84491545 65.88266281 82.74201965 65.88006592 C87.71517516 65.85542332 92.68169294 65.73877269 97.652771 65.59857178 C105.6153144 65.3917172 113.58075172 65.33503527 121.54540443 65.26085663 C124.31780042 65.22327281 127.087651 65.15211209 129.85917664 65.07427979 C131.56520828 65.04162385 133.27124743 65.00935636 134.97729492 64.97753906 C135.74058105 64.94737198 136.50386719 64.9172049 137.2902832 64.88612366 C142.83421966 64.81508987 145.92750949 66.12497771 150.5078125 69.26953125 C157.65330351 76.41502226 157.81000392 84.10342364 157.87890625 93.70898438 C157.87874512 94.40644775 157.87858398 95.10391113 157.87841797 95.82250977 C157.88282385 97.96254215 157.91930834 100.10056133 157.95703125 102.24023438 C157.96289477 103.60806593 157.96686727 104.97590718 157.96875 106.34375 C157.97696777 107.57697998 157.98518555 108.81020996 157.99365234 110.08081055 C157.42025866 113.84417479 156.51681173 115.01295416 153.5078125 117.26953125 C150.9453125 117.76953125 150.9453125 117.76953125 148.5078125 117.26953125 C146.00999478 114.84994579 145.52584064 113.43217828 145.13891602 109.94140625 C145.13782837 108.00007813 145.13782837 108.00007813 145.13671875 106.01953125 C145.11934123 104.59244546 145.1017568 103.16536218 145.08398438 101.73828125 C145.07390403 99.49995374 145.07031839 97.2617868 145.07202148 95.0234375 C145.06844868 92.85498592 145.04110536 90.68776372 145.01171875 88.51953125 C145.00986572 87.2253125 145.0080127 85.93109375 145.00610352 84.59765625 C144.4056568 80.58722525 143.7195526 79.67228915 140.5078125 77.26953125 C137.88662921 76.89498144 135.69211388 76.76141929 133.07714844 76.81542969 C132.33529297 76.81484558 131.5934375 76.81426147 130.82910156 76.81365967 C128.38298348 76.816441 125.93809203 76.84753339 123.4921875 76.87890625 C121.79397243 76.88636851 120.09574874 76.89206152 118.39752197 76.89605713 C113.9322524 76.91131474 109.46750497 76.95059736 105.00244141 76.99487305 C100.44440779 77.03582318 95.88628963 77.05406758 91.328125 77.07421875 C82.38779169 77.11709172 73.44784555 77.1853444 64.5078125 77.26953125 C65.013125 78.32914062 65.5184375 79.38875 66.0390625 80.48046875 C66.69551381 81.86839439 67.35175283 83.25642044 68.0078125 84.64453125 C68.34167969 85.34320313 68.67554688 86.041875 69.01953125 86.76171875 C71.5078125 92.04296875 71.5078125 92.04296875 71.5078125 94.26953125 C72.53471695 94.26286942 72.53471695 94.26286942 73.58236694 94.256073 C80.68705159 94.21193628 87.7916975 94.18170515 94.89648438 94.15966797 C97.55047181 94.14959036 100.2044481 94.13592812 102.85839844 94.11865234 C106.66604357 94.09448133 110.47354234 94.0830659 114.28125 94.07421875 C116.07035294 94.05873489 116.07035294 94.05873489 117.89559937 94.04293823 C118.99658966 94.04278717 120.09757996 94.04263611 121.23193359 94.04248047 C122.6908754 94.03581863 122.6908754 94.03581863 124.17929077 94.02902222 C126.5078125 94.26953125 126.5078125 94.26953125 128.5078125 96.26953125 C128.75949478 99.2118454 128.75949478 99.2118454 128.76177979 103.06433105 C128.76489977 103.77108333 128.76801975 104.47783561 128.77123427 105.20600462 C128.77924325 107.58598772 128.77287948 109.9657179 128.76660156 112.34570312 C128.76931014 114.04716644 128.77287032 115.74862859 128.77722168 117.4500885 C128.7863638 122.08015106 128.78279395 126.7101248 128.77646351 131.34018898 C128.77141292 136.1772753 128.77609233 141.01435382 128.77923584 145.85144043 C128.78287824 153.97568126 128.77806922 162.09988577 128.76855469 170.22412109 C128.75766961 179.62744097 128.761195 189.03067413 128.7722075 198.43399191 C128.78127259 206.49600007 128.78256947 214.55798208 128.77733016 222.61999369 C128.77420616 227.44011259 128.77381285 232.26019069 128.78040314 237.08030701 C128.78616468 241.61106377 128.78220167 246.14170833 128.77061462 250.67245293 C128.76796163 252.3389969 128.76874396 254.00555025 128.77313995 255.67209053 C128.7785718 257.93976662 128.77179041 260.2070788 128.76177979 262.47473145 C128.76064871 264.38171185 128.76064871 264.38171185 128.75949478 266.3272171 C128.5078125 269.26953125 128.5078125 269.26953125 126.5078125 271.26953125 C121.3350046 271.81982996 121.3350046 271.81982996 118.83895397 270.15930462 C116.86460371 267.35639101 117.1391964 265.12604608 117.14704895 261.72065735 C117.14448568 261.05247504 117.1419224 260.38429273 117.13928145 259.69586247 C117.13433199 257.45235255 117.15085478 255.20951258 117.16723633 252.96606445 C117.16808235 251.3597312 117.16760794 249.75339679 117.16590881 248.14706421 C117.16504647 243.78157741 117.18271078 239.41633684 117.20363069 235.05090737 C117.22235775 230.4905091 117.22414479 225.93010547 117.22770691 221.36967468 C117.23703907 212.7317656 117.26166866 204.09397014 117.29175538 195.45611113 C117.325263 185.62311286 117.34177624 175.79010922 117.35684168 165.95706809 C117.38821723 145.7278116 117.44324389 125.4987109 117.5078125 105.26953125 C104.3078125 105.59953125 91.1078125 105.92953125 77.5078125 106.26953125 C78.7246875 109.77578125 79.9415625 113.28203125 81.1953125 116.89453125 C89.170022 140.51424445 98.0505361 171.36997209 90.5078125 196.26953125 C88.0604047 201.07693942 85.3462998 203.8502876 80.5078125 206.26953125 C73.22846987 207.05215291 68.04393055 204.80071597 61.46484375 201.8515625 C60.41938889 201.39730392 59.37393402 200.94304535 58.29679871 200.47502136 C54.96515571 199.02430054 51.64262463 197.55397832 48.3203125 196.08203125 C43.95391533 194.16707931 39.58436164 192.25938076 35.21484375 190.3515625 C34.17463074 189.8959494 33.13441772 189.4403363 32.06268311 188.97091675 C4.0525649 176.74061119 -24.18814114 173.21807971 -53.4921875 184.26953125 C-60.26780901 187.09940032 -66.93483929 190.19638266 -73.55615234 193.36816406 C-86.26134624 199.41000687 -97.79135149 202.49371973 -111.6171875 197.76953125 C-121.21007054 193.45119162 -127.05417893 186.44554961 -131.43359375 177.06640625 C-134.9837532 167.68664919 -134.42730092 157.43166324 -130.4921875 148.26953125 C-124.41330293 136.73669417 -115.50427506 131.36391307 -103.8046875 126.33203125 C-91.19192456 120.71133597 -80.58211137 114.58697415 -69.4921875 106.26953125 C-103.1521875 105.77453125 -103.1521875 105.77453125 -137.4921875 105.26953125 C-137.9871875 111.20953125 -137.9871875 111.20953125 -138.4921875 117.26953125 C-141.05295681 128.85208781 -147.0876749 138.96096057 -155.4921875 147.26953125 C-156.17718795 147.69999756 -156.8621884 148.13046387 -157.56794643 148.57397461 C-159.68025072 150.10162157 -159.68025072 150.10162157 -159.99161625 152.47314453 C-159.99140697 153.33665527 -159.99119768 154.20016602 -159.99098206 155.08984375 C-160.00534805 156.57883179 -160.00534805 156.57883179 -160.02000427 158.09790039 C-160.00538902 159.72973267 -160.00538902 159.72973267 -159.99047852 161.39453125 C-159.99599731 162.54107178 -160.00151611 163.6876123 -160.00720215 164.86889648 C-160.01653928 167.36196173 -160.0166133 169.85507466 -160.00860786 172.34814453 C-159.9960296 176.28963192 -160.00722023 180.23041373 -160.02464294 184.171875 C-160.05547336 191.82607697 -160.0569635 199.48014683 -160.05499268 207.13439941 C-160.05350571 217.53777307 -160.07010083 227.94094588 -160.11112785 238.34423828 C-160.1210056 242.2348126 -160.11222828 246.12505721 -160.10243225 250.015625 C-160.10857383 252.39192932 -160.11548468 254.76823182 -160.12329102 257.14453125 C-160.11557175 258.23241943 -160.10785248 259.32030762 -160.09989929 260.44116211 C-160.1066568 261.4338208 -160.11341431 262.42647949 -160.12037659 263.44921875 C-160.11979028 264.31272949 -160.11920397 265.17624023 -160.11859989 266.06591797 C-160.57758316 268.77323912 -161.29246693 269.66307719 -163.4921875 271.26953125 C-166.5546875 271.58203125 -166.5546875 271.58203125 -169.4921875 271.26953125 C-172.33693733 268.42478142 -171.82785385 265.62073839 -171.87109375 261.8046875 C-171.887771 261.0120903 -171.90444824 260.2194931 -171.92163086 259.40287781 C-171.97554672 256.71268511 -172.01511877 254.02247056 -172.0546875 251.33203125 C-172.08967963 249.42804627 -172.12542652 247.52407503 -172.16186523 245.62011719 C-172.26349808 240.12029035 -172.35024574 234.62030964 -172.43359375 229.12017822 C-172.49700441 224.952975 -172.56279213 220.78581332 -172.62890625 216.61865234 C-172.93637896 197.16922045 -173.22188012 177.71951367 -173.4921875 158.26953125 C-174.22833282 158.48106339 -174.96447815 158.69259552 -175.72293091 158.91053772 C-176.69882172 159.18506271 -177.67471252 159.45958771 -178.68017578 159.74243164 C-180.12470627 160.15254234 -180.12470627 160.15254234 -181.59841919 160.57093811 C-185.87690194 161.60381925 -189.98302028 161.76235609 -194.3671875 161.70703125 C-195.66462891 161.69458374 -195.66462891 161.69458374 -196.98828125 161.68188477 C-211.6175435 161.29898399 -224.28155727 155.53632341 -234.8671875 145.45703125 C-247.39201336 132.18954745 -251.09933675 117.68722331 -250.83203125 99.984375 C-250.36165154 88.17803934 -245.95645642 78.36265546 -238.4921875 69.26953125 C-237.33589844 67.79033203 -237.33589844 67.79033203 -236.15625 66.28125 C-227.0939866 55.48347767 -213.4907813 50.31311112 -199.8828125 48.5234375 C-185.3411181 47.43448573 -172.40278364 50.8608878 -160.4921875 59.26953125 C-159.68925262 60.11517136 -158.88631775 60.96081146 -158.05905151 61.83207703 C-153.61050315 65.52523444 -148.60551106 64.97346976 -143.07080078 64.92895508 C-141.92875687 64.93943878 -140.78671295 64.94992249 -139.61006165 64.96072388 C-135.84393132 64.98947176 -132.07872039 64.98318207 -128.3125 64.9765625 C-125.69789477 64.98967756 -123.08329968 65.00498118 -120.46871948 65.02238464 C-114.29587682 65.05978824 -108.12325445 65.07197041 -101.95030963 65.07500905 C-94.91996868 65.07970392 -87.88984783 65.11264085 -80.85960412 65.1479069 C-66.40384207 65.21979137 -51.94812079 65.25635016 -37.4921875 65.26953125 C-37.36550092 64.6119067 -37.23881433 63.95428215 -37.10828876 63.27672958 C-36.21408916 58.70783623 -35.29608862 54.19766717 -33.9675293 49.73144531 C-33.54149666 48.29010223 -33.54149666 48.29010223 -33.1068573 46.81964111 C-32.80475845 45.81826111 -32.50265961 44.8168811 -32.19140625 43.78515625 C-31.71402763 42.19631622 -31.71402763 42.19631622 -31.227005 40.57537842 C-30.55645364 38.35266108 -29.88317048 36.1307662 -29.20727539 33.90966797 C-28.17961944 30.5193067 -27.17274123 27.12318847 -26.16601562 23.7265625 C-25.5090855 21.55820767 -24.85092447 19.3902253 -24.19140625 17.22265625 C-23.8953801 16.21317932 -23.59935394 15.20370239 -23.2943573 14.16363525 C-21.52826559 8.45704063 -19.75359911 4.50269281 -15.4921875 0.26953125 C-10.88397064 -2.03457718 -4.8242772 -1.41401228 0 0 Z M-9.4921875 10.26953125 C-16.64358573 24.5723277 -6.68923347 49.70192493 -2.1953125 63.46875 C0.74799615 72.18646417 3.76126191 80.86060658 7.5078125 89.26953125 C10.5606232 88.80698417 12.74415274 88.14643737 15.5078125 86.70703125 C21.45078041 84.08016141 28.81618888 84.18649972 34.984375 85.99609375 C40.9911281 88.76324967 44.5386833 93.07847566 46.96484375 99.2578125 C48.75789395 105.90112801 47.90266596 112.1390438 44.828125 118.234375 C40.65996569 124.65925962 34.4680988 127.58642769 27.5078125 130.26953125 C29.51253638 136.85233309 32.84222498 142.28308643 36.3828125 148.14453125 C37.05393066 149.25771729 37.72504883 150.37090332 38.41650391 151.51782227 C53.32527388 177.35067252 53.32527388 177.35067252 75.73828125 194.953125 C76.32222656 195.05753906 76.90617187 195.16195312 77.5078125 195.26953125 C87.55900714 177.14487029 78.68612268 149.74212985 73.5078125 131.26953125 C62.49712144 93.58066981 43.88659106 56.77539504 16.5078125 28.26953125 C15.62222656 27.33238281 14.73664063 26.39523438 13.82421875 25.4296875 C3.88447898 14.74142427 3.88447898 14.74142427 -9.4921875 10.26953125 Z M-19.4921875 44.26953125 C-19.75322266 45.09976807 -20.01425781 45.93000488 -20.28320312 46.78540039 C-28.98035706 74.23055669 -39.31821634 98.6661619 -63.40234375 116.4140625 C-65.64243556 118.04573468 -65.64243556 118.04573468 -65.97265625 120.28515625 C-64.13763446 134.2802558 -57.56144947 147.23230369 -50.4921875 159.26953125 C-49.96109375 160.25050781 -49.43 161.23148437 -48.8828125 162.2421875 C-47.25292401 164.85242971 -46.04782595 166.54993809 -43.4921875 168.26953125 C-38.99766777 168.80038004 -34.91651739 168.09476727 -30.4921875 167.26953125 C-10.10639242 164.58803998 8.51837709 166.63264498 27.50097656 174.44482422 C29.6087404 175.31100746 31.72478432 176.15380587 33.84375 176.9921875 C37.4046208 178.40298233 40.95796686 179.83123172 44.5078125 181.26953125 C43.16429832 178.46164529 41.66336439 175.89360021 39.92578125 173.3125 C31.48242884 160.63289102 23.74097872 147.67650718 16.5078125 134.26953125 C16.03633789 133.3966748 15.56486328 132.52381836 15.07910156 131.62451172 C0.48671935 104.28839188 -11.28363108 74.40011856 -18.4921875 44.26953125 C-18.8221875 44.26953125 -19.1521875 44.26953125 -19.4921875 44.26953125 Z M-230.73828125 77.87890625 C-238.51126633 88.47370997 -240.42397815 99.35549514 -239.4921875 112.26953125 C-237.39605052 124.0439257 -230.66310581 134.74399488 -221.2109375 142.02734375 C-209.94831831 149.30416589 -197.33035984 152.20509717 -184.13671875 149.609375 C-171.99903986 146.32238341 -162.91353872 139.36959505 -155.4921875 129.26953125 C-149.20670702 117.95866662 -147.5528171 105.6671661 -150.17578125 92.95703125 C-154.28240156 80.96092878 -162.25189766 70.72231178 -173.5546875 64.89453125 C-194.38721079 54.88373482 -216.04043998 60.41965237 -230.73828125 77.87890625 Z M-145.4921875 76.26953125 C-142.03213879 85.28520365 -142.03213879 85.28520365 -138.4921875 94.26953125 C-127.86123696 94.59501854 -117.23148496 94.84320602 -106.59655285 94.99490166 C-101.65705157 95.06774229 -96.72097628 95.16637539 -91.78344727 95.32568359 C-87.01094221 95.47868986 -82.24171326 95.56168018 -77.46694374 95.59781265 C-75.65293094 95.62353013 -73.83908261 95.67376129 -72.02647972 95.74975204 C-62.34342516 96.37067512 -62.34342516 96.37067512 -53.61877823 92.89304352 C-48.8105084 88.18275737 -45.13330816 82.83401388 -43.4921875 76.26953125 C-77.1521875 76.26953125 -110.8121875 76.26953125 -145.4921875 76.26953125 Z M12.5078125 100.26953125 C13.1678125 101.91953125 13.8278125 103.56953125 14.5078125 105.26953125 C15.4359375 105.08390625 16.3640625 104.89828125 17.3203125 104.70703125 C20.5078125 104.26953125 20.5078125 104.26953125 23.5078125 105.26953125 C24.1953125 108.08203125 24.1953125 108.08203125 24.5078125 111.26953125 C23.1953125 113.01953125 23.1953125 113.01953125 21.5078125 114.26953125 C20.8478125 114.92953125 20.1878125 115.58953125 19.5078125 116.26953125 C20.1678125 117.58953125 20.8278125 118.90953125 21.5078125 120.26953125 C30.61138614 117.68092466 30.61138614 117.68092466 36.8828125 110.89453125 C38.04023759 106.03334588 37.06564585 103.19344273 34.5078125 98.95703125 C31.7096469 95.92635332 29.06080536 95.18165542 25 94.94921875 C20.34506193 95.54750233 16.47728351 97.87458945 12.5078125 100.26953125 Z M-77.4921875 126.26953125 C-79.46850795 126.97874149 -79.46850795 126.97874149 -81.625 128.140625 C-82.43066406 128.54990234 -83.23632812 128.95917969 -84.06640625 129.38085938 C-84.90816406 129.81849609 -85.74992188 130.25613281 -86.6171875 130.70703125 C-87.46667969 131.14080078 -88.31617188 131.57457031 -89.19140625 132.02148438 C-91.29540842 133.09712593 -93.3953333 134.18003891 -95.4921875 135.26953125 C-94.96109143 140.83368895 -93.8982765 145.73050145 -91.8671875 150.95703125 C-91.60357422 151.64474609 -91.33996094 152.33246094 -91.06835938 153.04101562 C-87.18497072 162.89045337 -82.2501085 172.07586147 -75.4921875 180.26953125 C-71.08260642 179.60345686 -67.22646564 178.00328396 -63.1796875 176.20703125 C-62.53451172 175.92537109 -61.88933594 175.64371094 -61.22460938 175.35351562 C-59.64520392 174.66325695 -58.06842257 173.96699927 -56.4921875 173.26953125 C-56.4921875 168.5514297 -57.55700128 167.21066544 -60.1171875 163.33203125 C-66.33633941 153.57992742 -70.70603297 143.5055575 -73.84448242 132.38549805 C-74.34085469 130.66404584 -74.91048577 128.96405367 -75.4921875 127.26953125 C-76.1521875 126.93953125 -76.8121875 126.60953125 -77.4921875 126.26953125 Z M-116.4921875 148.26953125 C-120.82262208 153.28371865 -122.21756382 158.74057467 -122.4921875 165.26953125 C-121.35469617 172.82030705 -118.19796861 178.62524516 -112.7421875 183.95703125 C-106.45064225 188.43370767 -101.67234686 189.73430494 -93.984375 188.7890625 C-91.05977288 188.17938839 -88.30786028 187.26113775 -85.4921875 186.26953125 C-85.9046875 185.58890625 -86.3171875 184.90828125 -86.7421875 184.20703125 C-94.96679383 170.40144205 -101.49832045 156.55379102 -106.4921875 141.26953125 C-110.54805604 141.26953125 -113.71978092 145.57413596 -116.4921875 148.26953125 Z " fill="#000000" transform="translate(266.4921875,163.73046875)"/>
<path d="M0 0 C3.5 -0.3125 3.5 -0.3125 7 0 C32.69587083 25.69587083 9 72.66055097 9 109 C119.55 109 230.1 109 344 109 C344 99.43 344 89.86 344 80 C347 76 347 76 350 75.5 C353 76 353 76 354.66918945 77.61035156 C356.44347365 80.7963163 356.3408077 83.09861503 356.29296875 86.734375 C356.28330078 88.02988281 356.27363281 89.32539063 356.26367188 90.66015625 C356.23860783 92.02344354 356.21321302 93.38672479 356.1875 94.75 C356.17244518 96.12889184 356.15875817 97.50779935 356.14648438 98.88671875 C356.11111909 102.25820915 356.06175904 105.62890654 356 109 C357.18078125 108.97679687 358.3615625 108.95359375 359.578125 108.9296875 C361.13541033 108.91092503 362.69270252 108.89272534 364.25 108.875 C365.02730469 108.85824219 365.80460937 108.84148437 366.60546875 108.82421875 C373.96292928 108.76133447 373.96292928 108.76133447 377 111 C380.26458792 117.52917583 377.11979873 126.52819023 375 133 C369.84034494 146.06451121 361.51448447 155.5751542 349 162 C340.10177369 165.53303214 331.91758871 166.57893945 322.40696716 166.50793457 C321.10167323 166.51417453 319.79637929 166.5204145 318.45153099 166.52684355 C314.86682431 166.54338706 311.28254905 166.53535989 307.69784176 166.52289867 C303.81706729 166.51378844 299.93636318 166.52784723 296.05560303 166.53881836 C288.46863574 166.55654439 280.88182732 166.55279026 273.29485398 166.5411678 C267.1258221 166.53211101 260.95683455 166.53091915 254.78779793 166.53526306 C253.90768374 166.53587599 253.02756954 166.53648893 252.12078523 166.53712043 C250.33251093 166.53839941 248.54423665 166.53969627 246.75596238 166.5410108 C230.01322457 166.55239909 213.27057457 166.53933008 196.52785117 166.51780933 C182.17941219 166.49993682 167.83110267 166.50304711 153.48266602 166.52148438 C136.79570911 166.5429167 120.10882902 166.55130389 103.42186028 166.53903532 C101.6407023 166.5377612 99.85954431 166.53650372 98.07838631 166.53526306 C97.20215852 166.53464596 96.32593073 166.53402886 95.42315058 166.53339306 C89.2650521 166.52994747 83.10700257 166.53575132 76.94891167 166.54518127 C69.43927292 166.55642879 61.9298013 166.55330344 54.42018156 166.5320583 C50.59278249 166.52158523 46.76566152 166.51736161 42.93826485 166.53065491 C38.78062018 166.54487629 34.62367056 166.52783388 30.46604919 166.50793457 C29.26865834 166.51685746 28.07126749 166.52578034 26.83759207 166.53497362 C12.73918109 166.40449438 0.59948137 161.36187914 -9.75 151.75 C-19.54804604 141.15307251 -24.35842282 128.6164975 -24.53125 114.20703125 C-24 112 -24 112 -22.54492188 110.3737793 C-18.68923931 108.29243569 -15.05413898 108.68135827 -10.75 108.8125 C-9.48929688 108.83280273 -9.48929688 108.83280273 -8.203125 108.85351562 C-6.13514062 108.88876536 -4.06748729 108.9425698 -2 109 C-2.00184359 108.45646976 -2.00368717 107.91293951 -2.00558662 107.35293865 C-2.04973813 94.13310248 -2.08271553 80.9132792 -2.10362434 67.69338512 C-2.11407471 61.30036363 -2.12825679 54.90739523 -2.15087891 48.5144043 C-2.17256257 42.34823902 -2.18455918 36.18212491 -2.18975449 30.01592445 C-2.1934583 27.65992744 -2.20069061 25.30393331 -2.21146011 22.94795799 C-2.22591544 19.6555914 -2.22798043 16.36343799 -2.22705078 13.07104492 C-2.23424133 12.09065247 -2.24143188 11.11026001 -2.24884033 10.10015869 C-2.246091 9.20413437 -2.24334167 8.30811005 -2.24050903 7.38493347 C-2.24235262 6.6060184 -2.24419621 5.82710333 -2.24609566 5.02458477 C-2 3 -2 3 0 0 Z M-12 121 C-10.4805311 131.63628232 -6.17761759 140.31319549 2.4765625 146.87890625 C12.67181845 153.75711414 21.79538162 155.44984668 33.96652222 155.38768005 C35.24066801 155.39306559 36.51481381 155.39845113 37.82757008 155.40399987 C41.33917477 155.41837858 44.85054324 155.41423371 48.36216044 155.40683305 C52.15913608 155.40208477 55.95606182 155.41462586 59.75302124 155.42485046 C67.18195431 155.44201153 74.6108027 155.44288406 82.03975044 155.43763756 C88.08060777 155.43358951 94.12144015 155.43504694 100.1622963 155.44038582 C101.02338943 155.44113424 101.88448256 155.44188266 102.77166943 155.44265376 C104.52120932 155.44418531 106.2707492 155.44572365 108.02028908 155.44726873 C124.4124795 155.46098409 140.80462213 155.45556292 157.19681145 155.44408352 C172.17752478 155.43415269 187.15811456 155.44709093 202.13880883 155.47101771 C217.5390052 155.49542828 232.93914408 155.50501174 248.3393594 155.49836498 C256.97819749 155.49487705 265.6169406 155.49707667 274.25576401 155.51461601 C281.60992776 155.52936251 288.96392965 155.52994156 296.3180903 155.5125451 C300.06649102 155.5040527 303.81460289 155.50184203 307.56298828 155.51719666 C311.63539472 155.53367136 315.70710897 155.51885117 319.7795105 155.50120544 C321.53781136 155.51561295 321.53781136 155.51561295 323.33163345 155.53031152 C336.14372807 155.41647133 345.82066128 151.74992033 355.08984375 143.03515625 C360.75533509 137.2008607 366 129.4069253 366 121 C241.26 121 116.52 121 -12 121 Z " fill="#000000" transform="translate(68,345)"/>
<path d="M0 0 C0.69479934 -0.0055344 1.38959867 -0.01106879 2.10545254 -0.0167709 C4.43337726 -0.03038321 6.76023087 -0.01540621 9.08813477 -0.00050354 C10.75709489 -0.00428653 12.42605187 -0.00978641 14.09500122 -0.01687622 C18.62807945 -0.03085079 23.16077897 -0.0196471 27.69383621 -0.00316501 C32.43521684 0.01067388 37.17657522 0.00422674 41.91796875 0.0007019 C49.8806774 -0.00200114 57.8432354 0.01148347 65.8059082 0.03465271 C75.01500723 0.06126305 84.22385433 0.0630099 93.43297863 0.05126435 C102.28780024 0.04048925 111.14253061 0.04667153 119.99734497 0.06081963 C123.7676102 0.06658176 127.53780873 0.06649496 131.30807495 0.06175423 C135.74700571 0.05698576 140.18566022 0.06708065 144.62453842 0.08870888 C146.25476017 0.0942787 147.88500845 0.09474024 149.51523209 0.08975601 C151.73848975 0.08381055 153.96090071 0.09629304 156.18408203 0.11352539 C157.42883804 0.11595529 158.67359406 0.11838518 159.95606995 0.12088871 C163.32449014 0.52939585 164.73610209 1.09706841 167.09204102 3.50120544 C167.59324646 6.00572205 167.59324646 6.00572205 167.59375 9.02659607 C167.60313095 10.15786926 167.6125119 11.28914246 167.62217712 12.45469666 C167.60532616 14.28756226 167.60532616 14.28756226 167.58813477 16.15745544 C167.58959 17.41127014 167.59104523 18.66508484 167.59254456 19.95689392 C167.59088296 22.61040292 167.58137114 25.26248399 167.55859375 27.91575623 C167.53020786 31.31565346 167.53294562 34.7146527 167.54568386 38.11461639 C167.55431335 41.35812067 167.53919484 44.60147932 167.52563477 47.84495544 C167.5285704 49.06686584 167.53150604 50.28877625 167.53453064 51.54771423 C167.52184647 52.67898743 167.50916229 53.81026062 167.49609375 54.97581482 C167.49069077 55.97270325 167.48528778 56.96959167 167.47972107 57.99668884 C167.09204102 60.50120544 167.09204102 60.50120544 165.79335022 62.36216736 C164.09204102 63.50120544 164.09204102 63.50120544 160.46704102 63.25120544 C157.09204102 62.50120544 157.09204102 62.50120544 156.09204102 61.50120544 C156.09204102 45.33120544 156.09204102 29.16120544 156.09204102 12.50120544 C104.94204102 12.50120544 53.79204102 12.50120544 1.09204102 12.50120544 C1.09204102 19.43120544 1.09204102 26.36120544 1.09204102 33.50120544 C1.03318908 38.5607501 0.96519443 43.61817327 0.87329102 48.67698669 C0.85109497 49.97903549 0.82889893 51.28108429 0.80603027 52.62258911 C0.74842364 56.00071555 0.68871329 59.37880124 0.628479 62.75688171 C0.56681953 66.23738844 0.50726786 69.71793127 0.44750977 73.19847107 C0.33101907 79.96608478 0.21229369 86.73365756 0.09204102 93.50120544 C0.92325848 93.49936186 1.75447594 93.49751827 2.61088181 93.49561882 C22.82435252 93.45147461 43.03781495 93.41836584 63.2513237 93.3975811 C73.02637207 93.38726293 82.80138828 93.37319227 92.57641602 93.35032654 C101.09506032 93.33040922 109.61368135 93.31749294 118.1323483 93.31302845 C122.64405527 93.31041826 127.15569563 93.30427195 131.66738129 93.28974533 C135.9124712 93.27618761 140.15746694 93.27197913 144.40257645 93.27499008 C145.96185696 93.27443911 147.52114056 93.27045088 149.08040237 93.26279449 C151.2073433 93.25286148 153.33392749 93.25523041 155.46087646 93.26069641 C157.24731127 93.25793103 157.24731127 93.25793103 159.06983566 93.25510979 C162.00462921 93.49408757 163.6688888 93.86920505 166.09204102 95.50120544 C167.26547227 97.84806796 167.23699249 99.28665779 167.26904297 101.90330505 C167.28829582 103.26998573 167.28829582 103.26998573 167.30793762 104.66427612 C167.31532455 105.65073624 167.32271149 106.63719635 167.33032227 107.65354919 C167.33839401 108.66462234 167.34646576 109.6756955 167.3547821 110.71740723 C167.3686257 112.85845726 167.37934662 114.99952938 167.38720703 117.14060974 C167.40445341 120.42203719 167.44834127 123.70246601 167.49243164 126.98362732 C167.50255537 129.06109385 167.51107247 131.13856896 167.51782227 133.21604919 C167.53533035 134.20048508 167.55283844 135.18492096 167.57087708 136.19918823 C167.56648872 137.57059715 167.56648872 137.57059715 167.56201172 138.9697113 C167.56787796 139.77420212 167.5737442 140.57869293 167.57978821 141.40756226 C167.09204102 143.50120544 167.09204102 143.50120544 165.49330425 145.10782814 C162.26055625 146.98368982 159.91539406 146.88160158 156.18408203 146.8888855 C155.48928269 146.89427104 154.79448336 146.89965657 154.07862949 146.90520531 C151.75088849 146.91951094 149.42371408 146.91237507 147.09594727 146.90525818 C145.42698712 146.91096036 143.75803088 146.91792403 142.08908081 146.92605591 C137.55607971 146.9440181 133.02327184 146.94281335 128.49024582 146.93711352 C124.70773832 146.93402647 120.92526819 146.94010864 117.142766 146.94615227 C108.22120374 146.96020558 99.29973722 146.95862916 90.37817383 146.94725037 C81.16904055 146.93576449 71.96019833 146.94985085 62.7511034 146.97664684 C54.84782005 146.99878368 46.9446282 147.00544589 39.04131603 146.99957043 C34.31947549 146.99619527 29.5978216 146.99865305 24.87600708 147.01582146 C20.43703607 147.03125677 15.99849733 147.02737329 11.55954361 147.00851631 C9.92931325 147.00482111 8.29905109 147.00796595 6.66884995 147.0184021 C4.44539769 147.03155082 2.22338947 147.02012121 0 147.00241089 C-1.24475601 147.0022016 -2.48951202 147.00199232 -3.77198792 147.0017767 C-6.90795898 146.50120544 -6.90795898 146.50120544 -9.30796051 144.82569981 C-11.29784758 141.93477125 -11.41066915 140.30272223 -11.41589355 136.80809021 C-11.42717285 135.64721893 -11.43845215 134.48634766 -11.45007324 133.29029846 C-11.44197632 132.02056183 -11.43387939 130.7508252 -11.42553711 129.44261169 C-11.43095856 128.08891548 -11.43808136 126.73522516 -11.44677734 125.38154602 C-11.46501134 121.70793057 -11.45794319 118.0347645 -11.445261 114.3611412 C-11.43513358 110.51662231 -11.44452595 106.67214187 -11.45080566 102.82762146 C-11.45808285 96.37141512 -11.44849261 89.91539181 -11.42944336 83.45921326 C-11.40767433 75.99505095 -11.41472566 68.53132567 -11.43674898 61.06717396 C-11.45490106 54.65855322 -11.45746229 48.25006404 -11.4469943 41.8414259 C-11.44075826 38.01384505 -11.43992662 34.18646962 -11.45314026 30.35890198 C-11.46469553 26.76034717 -11.45667982 23.16235578 -11.43356323 19.56386185 C-11.42575132 17.61328659 -11.43763486 15.66266367 -11.45007324 13.71211243 C-11.43879395 12.55124115 -11.42751465 11.39036987 -11.41589355 10.19432068 C-11.41438545 9.18554367 -11.41287735 8.17676666 -11.41132355 7.13742065 C-10.1671679 0.62154274 -5.95669051 0.00100151 0 0 Z M0.09204102 105.50120544 C0.09204102 115.07120544 0.09204102 124.64120544 0.09204102 134.50120544 C51.57204102 134.50120544 103.05204102 134.50120544 156.09204102 134.50120544 C156.09204102 124.93120544 156.09204102 115.36120544 156.09204102 105.50120544 C104.61204102 105.50120544 53.13204102 105.50120544 0.09204102 105.50120544 Z " fill="#000000" transform="translate(343.907958984375,22.498794555664063)"/>
<path d="M0 0 C4.32245463 0.64376984 6.72228922 2.75589749 9.484375 6.04296875 C17.62813601 17.87149486 23.59017637 30.13226893 23.640625 44.765625 C23.64533813 45.91611328 23.64533813 45.91611328 23.65014648 47.08984375 C23.46880295 56.01303914 21.20838103 65.31761294 17.203125 73.328125 C18.01221313 73.32146317 18.82130127 73.31480133 19.65490723 73.30793762 C27.30479217 73.24765926 34.95456086 73.20206601 42.60462189 73.17268848 C46.53697395 73.15707712 50.46912867 73.13592251 54.40136719 73.10180664 C58.20096254 73.06905038 62.00036887 73.05123797 65.8000946 73.04349327 C67.24487785 73.03797878 68.68965154 73.02721068 70.13435364 73.01093483 C86.90871151 72.82958737 86.90871151 72.82958737 93.2265625 77.9765625 C97.71484579 83.71014983 99.84030272 87.80942787 99.203125 95.328125 C97.794935 101.54072794 95.3557515 104.66403504 90.203125 108.328125 C90.38230469 109.01777344 90.56148438 109.70742187 90.74609375 110.41796875 C92.26868343 117.14504681 92.5891893 122.16375154 89.203125 128.328125 C86.578125 131.265625 86.578125 131.265625 84.203125 133.328125 C83.873125 133.988125 83.543125 134.648125 83.203125 135.328125 C83.533125 136.318125 83.863125 137.308125 84.203125 138.328125 C84.71561122 144.60608123 84.86987011 149.95896252 81.203125 155.328125 C79.140625 157.703125 79.140625 157.703125 77.203125 159.328125 C76.543125 159.328125 75.883125 159.328125 75.203125 159.328125 C75.533125 160.1325 75.863125 160.936875 76.203125 161.765625 C77.87579596 167.72451528 78.14245942 172.92965301 75.515625 178.640625 C72.60998797 183.7868765 68.77324322 186.50290504 63.203125 188.328125 C59.85067749 188.58209229 59.85067749 188.58209229 55.98193359 188.58691406 C55.27401169 188.5904187 54.56608978 188.59392334 53.8367157 188.59753418 C51.50823013 188.60630182 49.18005089 188.60052133 46.8515625 188.59375 C45.22921694 188.59509778 43.60687177 188.59703926 41.98452759 188.59954834 C38.59023174 188.60249261 35.19604137 188.5982233 31.80175781 188.58886719 C27.44925768 188.5774548 23.09700373 188.58404775 18.74451256 188.59601212 C15.39710632 188.60323404 12.04975861 188.60094158 8.70235062 188.59575653 C7.09716386 188.5944219 5.49197179 188.59606125 3.88679123 188.60071564 C1.64622628 188.60578836 -0.59393762 188.59806124 -2.83447266 188.58691406 C-4.10956696 188.58532288 -5.38466125 188.58373169 -6.69839478 188.58209229 C-9.796875 188.328125 -9.796875 188.328125 -12.796875 186.328125 C-13.109375 182.828125 -13.109375 182.828125 -12.796875 179.328125 C-10.796875 177.328125 -10.796875 177.328125 -7.89457703 177.08329773 C-6.6527919 177.08505508 -5.41100677 177.08681244 -4.1315918 177.08862305 C-3.4468277 177.08660889 -2.7620636 177.08459473 -2.05654907 177.08251953 C-0.56748038 177.07897044 0.92160336 177.07974554 2.41066933 177.08429527 C4.76892628 177.08987932 7.12668966 177.08074461 9.48490906 177.0670929 C16.1904004 177.0299297 22.89572699 177.0114162 29.60131836 177.02270508 C33.70172075 177.02856217 37.80143188 177.01026407 41.90169334 176.97681618 C43.46334082 176.96886762 45.02506373 176.97013191 46.58669472 176.98084068 C48.77511036 176.99519758 50.96136151 176.97886979 53.1496582 176.95581055 C54.39383011 176.95518112 55.63800201 176.9545517 56.9198761 176.9539032 C61.09615325 176.15791628 62.60845918 174.62931216 65.203125 171.328125 C65.27626714 168.25615499 64.79408506 166.97723805 62.734375 164.71484375 C58.85139767 162.58759537 55.00185148 162.83433149 50.640625 162.765625 C48.93079727 162.73114752 47.22110939 162.68851847 45.51171875 162.63671875 C44.75689209 162.62439209 44.00206543 162.61206543 43.22436523 162.59936523 C41.203125 162.328125 41.203125 162.328125 38.203125 160.328125 C37.890625 156.828125 37.890625 156.828125 38.203125 153.328125 C40.90395536 150.62729464 42.38900608 151.04880144 46.1640625 150.984375 C47.35773438 150.95472656 48.55140625 150.92507812 49.78125 150.89453125 C51.03421875 150.87261719 52.2871875 150.85070312 53.578125 150.828125 C56.04443887 150.78472196 58.51062401 150.73299201 60.9765625 150.671875 C62.07403809 150.65318359 63.17151367 150.63449219 64.30224609 150.61523438 C67.17066918 150.33133726 68.86866342 150.00471157 71.203125 148.328125 C72.11527379 144.46903395 72.46444731 142.11209192 71.203125 138.328125 C68.23593371 137.18079442 65.25996191 137.18002945 62.10546875 137.1171875 C61.13931641 137.08882812 60.17316406 137.06046875 59.17773438 137.03125 C57.14927654 136.97907102 55.12059936 136.93482858 53.09179688 136.8984375 C52.12693359 136.8675 51.16207031 136.8365625 50.16796875 136.8046875 C49.2874585 136.78486816 48.40694824 136.76504883 47.49975586 136.74462891 C44.76012219 136.24778453 43.85203572 135.53884008 42.203125 133.328125 C41.7877611 130.5590323 41.71911708 129.04327052 43.30688477 126.69726562 C46.13202157 124.65743465 48.46548746 124.94201009 51.91796875 124.921875 C52.57011856 124.91103882 53.22226837 124.90020264 53.8941803 124.88903809 C55.97642956 124.85479645 58.05813132 124.83919058 60.140625 124.828125 C62.87943135 124.81353495 65.61701957 124.77981067 68.35546875 124.734375 C69.57226318 124.72728516 70.78905762 124.72019531 72.04272461 124.71289062 C75.43100269 124.30038184 76.85317074 123.7702695 79.203125 121.328125 C79.67662684 118.08125526 79.84889092 116.21989698 77.890625 113.515625 C74.44157838 111.08851812 71.15436231 111.17056801 67.07421875 111.08203125 C65.27500977 111.03272461 65.27500977 111.03272461 63.43945312 110.98242188 C60.90308826 110.92113182 58.36662337 110.86385203 55.83007812 110.81054688 C54.63189453 110.77638672 53.43371094 110.74222656 52.19921875 110.70703125 C51.09763428 110.6819751 49.9960498 110.65691895 48.86108398 110.63110352 C46.203125 110.328125 46.203125 110.328125 44.203125 108.328125 C43.6594526 103.21760442 43.6594526 103.21760442 45.21875 100.66650391 C48.33019464 98.56796312 51.63501731 98.86704964 55.265625 98.8515625 C56.05332275 98.83598297 56.84102051 98.82040344 57.65258789 98.80435181 C60.1694234 98.75682612 62.68598238 98.72907492 65.203125 98.703125 C67.7200712 98.66660573 70.23686178 98.62594305 72.75366211 98.58047485 C74.31948766 98.55330873 75.88542661 98.53193121 77.45141602 98.51693726 C80.62395184 98.47113631 83.17166103 98.33861299 86.203125 97.328125 C86.2959375 95.4409375 86.2959375 95.4409375 86.390625 93.515625 C86.44283203 92.45408203 86.44283203 92.45408203 86.49609375 91.37109375 C86.34952993 89.29513668 86.34952993 89.29513668 85.1257019 87.72724915 C82.20673204 85.60301619 79.72601521 85.92897041 76.14892578 85.89916992 C75.43475494 85.88886246 74.72058411 85.87855499 73.98477173 85.86793518 C72.43467404 85.84700308 70.88447766 85.8325967 69.33426285 85.82393456 C66.8790091 85.80847139 64.42487045 85.77229844 61.96994019 85.73005676 C54.990826 85.61305017 48.01158869 85.52831551 41.03173828 85.47045898 C36.76125508 85.43360784 32.49198495 85.3680657 28.22216415 85.2849369 C26.59644119 85.25914872 24.97050197 85.24447643 23.34457779 85.2412014 C21.06713622 85.23609204 18.79296481 85.19464237 16.51611328 85.14526367 C15.2216629 85.13210617 13.92721252 85.11894867 12.59353638 85.10539246 C7.86600243 84.02158348 6.81363362 82.35545776 4.203125 78.328125 C3.9562145 71.53808614 6.81847603 65.15490843 9.046875 58.81640625 C12.81564367 47.44643862 11.84954232 35.94570418 6.66796875 25.12109375 C5.23607324 22.48410414 3.76235018 19.89151138 2.203125 17.328125 C0.38361758 22.07489876 -1.30202753 26.8257037 -2.83837891 31.6706543 C-6.58787047 43.41914734 -11.2168842 54.84695389 -17.796875 65.328125 C-20.796875 66.515625 -20.796875 66.515625 -23.796875 66.328125 C-26.234375 64.765625 -26.234375 64.765625 -27.796875 62.328125 C-27.44517886 57.74968064 -26.03344918 54.60122512 -23.796875 50.640625 C-16.0666723 36.11857975 -11.67767953 19.381142 -7.453125 3.5390625 C-6.20636994 -0.66131466 -4.08370047 0.15586643 0 0 Z " fill="#000000" transform="translate(85.796875,0.671875)"/>
<path d="M0 0 C0.84775497 -0.00953201 1.69550995 -0.01906403 2.56895447 -0.02888489 C3.4814949 -0.02797348 4.39403534 -0.02706207 5.33422852 -0.02612305 C6.27492691 -0.03040817 7.21562531 -0.0346933 8.18482971 -0.03910828 C10.17448115 -0.04485165 12.16415359 -0.04535178 14.15380859 -0.04101562 C17.19803709 -0.03785746 20.24129221 -0.06130851 23.28540039 -0.08666992 C25.21834187 -0.08894309 27.15128597 -0.08964633 29.08422852 -0.08862305 C29.99474472 -0.09783279 30.90526093 -0.10704254 31.84336853 -0.11653137 C32.69427567 -0.11030258 33.5451828 -0.10407379 34.421875 -0.09765625 C35.16783432 -0.09828568 35.91379364 -0.0989151 36.68235779 -0.0995636 C39.43502457 0.39253942 40.72815272 1.38396521 42.77563477 3.2746582 C43.2734127 5.32489109 43.2734127 5.32489109 43.27011108 7.72206116 C43.27850006 8.63202347 43.28688904 9.54198578 43.29553223 10.47952271 C43.27867371 11.97345047 43.27867371 11.97345047 43.26147461 13.49755859 C43.2652713 14.54816971 43.26906799 15.59878082 43.27297974 16.68122864 C43.28040309 20.16189202 43.25897838 23.64172497 43.23657227 27.12231445 C43.234189 29.53462119 43.23328227 31.94692981 43.23379517 34.35923767 C43.23066417 39.41750691 43.21407434 44.47549331 43.18725586 49.53369141 C43.15325761 56.0296976 43.1456276 62.52539296 43.14714622 69.0214777 C43.14660339 74.00303638 43.13565036 78.98452659 43.12114334 83.96606255 C43.11476249 86.36194782 43.11083345 88.75784089 43.10935593 91.15373421 C43.10503764 94.49634247 43.08756877 97.83861563 43.06616211 101.18115234 C43.06752167 102.67811646 43.06752167 102.67811646 43.06890869 104.20532227 C43.05611374 105.566036 43.05611374 105.566036 43.0430603 106.95423889 C43.03970861 107.74492799 43.03635693 108.53561708 43.03290367 109.35026646 C42.77563477 111.2746582 42.77563477 111.2746582 40.77563477 113.2746582 C38.80224609 113.52862549 38.80224609 113.52862549 36.35766602 113.53344727 C34.9861438 113.54290375 34.9861438 113.54290375 33.58691406 113.55255127 C32.59731689 113.54850281 31.60771973 113.54445435 30.58813477 113.5402832 C29.57468994 113.54219666 28.56124512 113.54411011 27.51708984 113.54608154 C25.37182365 113.54744411 23.22654923 113.54374267 21.08129883 113.53540039 C17.78911905 113.52470202 14.49748498 113.5352934 11.20532227 113.5480957 C9.12459189 113.54677412 7.04386185 113.54421176 4.96313477 113.5402832 C3.9735376 113.54433167 2.98394043 113.54838013 1.96435547 113.55255127 C0.59283325 113.54309479 0.59283325 113.54309479 -0.80639648 113.53344727 C-1.61310791 113.53185608 -2.41981934 113.53026489 -3.25097656 113.52862549 C-5.22436523 113.2746582 -5.22436523 113.2746582 -7.22436523 111.2746582 C-7.47884083 109.33185577 -7.47884083 109.33185577 -7.48506165 106.9095459 C-7.49214645 105.9925441 -7.49923126 105.0755423 -7.50653076 104.13075256 C-7.50405334 103.12185471 -7.50157593 102.11295685 -7.49902344 101.07348633 C-7.50413437 100.01326767 -7.5092453 98.95304901 -7.51451111 97.86070251 C-7.52845613 94.34238095 -7.52744678 90.82425418 -7.52514648 87.3059082 C-7.52903042 84.86975023 -7.53336446 82.43359293 -7.53813171 79.99743652 C-7.54560429 74.88620816 -7.54529491 69.77504885 -7.54003906 64.66381836 C-7.53423999 58.09937022 -7.55118124 51.53520383 -7.57438374 44.97080231 C-7.58908232 39.93864273 -7.58999812 34.90655163 -7.58687401 29.87437439 C-7.58738907 27.45335837 -7.59266121 25.0323387 -7.60268593 22.61134338 C-7.61495934 19.23265009 -7.60831355 15.85451379 -7.59667969 12.47583008 C-7.60432343 11.46693222 -7.61196716 10.45803436 -7.61984253 9.41856384 C-7.61282822 8.50156204 -7.6058139 7.58456024 -7.59858704 6.63977051 C-7.59875478 5.84040825 -7.59892252 5.04104599 -7.59909534 4.21746063 C-7.47543441 3.57633583 -7.35177347 2.93521103 -7.22436523 2.2746582 C-4.14381624 0.22095887 -3.48261073 0.02153319 0 0 Z M3.77563477 12.2746582 C3.77563477 41.9746582 3.77563477 71.6746582 3.77563477 102.2746582 C13.01563477 102.2746582 22.25563477 102.2746582 31.77563477 102.2746582 C31.77563477 72.5746582 31.77563477 42.8746582 31.77563477 12.2746582 C22.53563477 12.2746582 13.29563477 12.2746582 3.77563477 12.2746582 Z " fill="#000000" transform="translate(7.224365234375,72.725341796875)"/>
<path d="M0 0 C10.36085402 7.48094558 17.59590645 18.39281893 20 31 C20.92055374 40.4508737 20.93920078 50.2125521 17 59 C16.67128906 59.74121094 16.34257812 60.48242188 16.00390625 61.24609375 C10.11882192 72.9958988 0.77177818 81.07998902 -11.375 85.8125 C-23.67765676 89.84268066 -37.12385961 89.2513546 -49 84 C-52.21242436 82.23147075 -55.10581788 80.24579102 -58 78 C-59.03125 77.2575 -60.0625 76.515 -61.125 75.75 C-71.17839147 66.13371251 -75.82334842 54.11673637 -76.25 40.375 C-76.08860508 27.31815109 -71.76686571 15.71415317 -62.75 6.1875 C-45.35551754 -10.12712365 -20.34798683 -12.81789302 0 0 Z M-54.03515625 13.88671875 C-61.37809565 21.82208214 -64.58875671 30.15043434 -65 41 C-64.00843211 52.70812851 -59.57846276 60.89398626 -51.125 68.875 C-42.63674191 75.86339113 -32.80748129 78.00964628 -22 77 C-11.62126013 74.50511061 -2.7814664 69.2424511 3.4921875 60.546875 C8.711243 51.7312683 10.35639628 42.44336473 8.52734375 32.40625 C5.86898506 22.09118155 -0.3968289 14.15307707 -9 8 C-23.88366176 -0.3329239 -41.60564864 2.36377791 -54.03515625 13.88671875 Z " fill="#000000" transform="translate(476,326)"/>
<path d="M0 0 C9.66829636 8.02520485 15.32317774 18.31101192 17.6875 30.5625 C18.94658905 44.41247957 16.39974515 56.47101633 7.921875 67.76953125 C-0.2213007 77.26515746 -10.47182835 84.03552338 -23 86 C-38.07724263 87.0845658 -51.37572537 83.98866445 -63.18359375 74.1875 C-73.07884266 64.90953505 -78.08845831 53.36711496 -79 39.921875 C-79 24.99978586 -74.11811048 13.5017641 -63.93359375 2.8359375 C-46.27985769 -14.02827548 -19.34417711 -14.3339357 0 0 Z M-59.375 14.6875 C-66.29967015 24.09327666 -68.26970151 33.41397368 -67 45 C-65.06329408 54.24777079 -60.08758678 62.05961416 -52.609375 67.8515625 C-43.68346013 73.54955218 -34.096854 76.55958665 -23.56640625 74.53125 C-13.49660955 71.89205211 -4.91415647 66.6667559 1 58 C6.14752009 48.47394911 7.63386528 38.67719831 5.3515625 27.953125 C1.611534 16.63714133 -5.464418 9.35314682 -15.953125 4.00390625 C-31.21354261 -2.92963131 -48.64428634 2.16833406 -59.375 14.6875 Z " fill="#000000" transform="translate(282,31)"/>
<path d="M0 0 C3.94113231 0.61111841 4.27782643 0.6756988 6.54882812 3.58642578 C7.49074083 4.98007666 8.40678776 6.39142282 9.30175781 7.81567383 C9.80725159 8.57576248 10.31274536 9.33585114 10.83355713 10.11897278 C11.91863931 11.7517421 12.99426208 13.39082977 14.0612793 15.03546143 C16.26828569 18.41022995 18.56017288 21.72317999 20.85119629 25.04122925 C23.16932201 28.40988079 25.45422984 31.8004011 27.73730469 35.19287109 C28.91072177 36.93105289 30.08992007 38.66534374 31.27441406 40.39599609 C33.01563048 42.94119738 34.73858623 45.49790272 36.45800781 48.05786133 C36.98908142 48.82664108 37.52015503 49.59542084 38.06732178 50.38749695 C40.79785083 54.49901439 42.71890109 57.46229689 41.72363281 62.57739258 C39.7420543 64.93063063 37.73030454 66.24940671 34.97412109 67.5703125 C33.85748581 68.11053291 33.85748581 68.11053291 32.71829224 68.66166687 C31.91825775 69.03991104 31.11822327 69.41815521 30.29394531 69.80786133 C29.46659882 70.20314529 28.63925232 70.59842926 27.78683472 71.00569153 C26.0383253 71.8384617 24.28821023 72.66786776 22.53662109 73.49414062 C19.86009997 74.75947145 17.19217234 76.0417561 14.52441406 77.32543945 C12.82308713 78.13312566 11.12127956 78.93980038 9.41894531 79.74536133 C8.62295929 80.12967819 7.82697327 80.51399506 7.00686646 80.90995789 C-0.64699721 84.48533742 -0.64699721 84.48533742 -4.27636719 83.57739258 C-7.22873875 80.5514237 -9.23775342 77.1153983 -11.27246094 73.42895508 C-11.82474365 72.43468506 -12.37702637 71.44041504 -12.94604492 70.41601562 C-13.52942627 69.35552002 -14.11280762 68.29502441 -14.71386719 67.20239258 C-15.96344075 64.95085377 -17.21345093 62.69955724 -18.46386719 60.44848633 C-19.09679687 59.30621582 -19.72972656 58.16394531 -20.38183594 56.98706055 C-23.30144712 51.7325129 -26.25606001 46.4980028 -29.21386719 41.26489258 C-29.75084229 40.30929443 -30.28781738 39.35369629 -30.84106445 38.36914062 C-33.05841285 34.43384039 -35.28260843 30.51644442 -37.67871094 26.68676758 C-38.3296875 25.64004883 -38.98066406 24.59333008 -39.65136719 23.51489258 C-40.19535156 22.67829102 -40.73933594 21.84168945 -41.29980469 20.97973633 C-42.5938935 17.79627785 -42.19246927 15.84724208 -41.27636719 12.57739258 C-39.27636719 10.57739258 -39.27636719 10.57739258 -36.52636719 9.88989258 C-33.27636719 10.57739258 -33.27636719 10.57739258 -31.875 12.20678711 C-27.93547208 18.39176324 -24.31000884 24.71522768 -20.77636719 31.13989258 C-13.79372921 43.73002988 -6.57776393 56.16971355 0.72363281 68.57739258 C7.0007641 66.64103828 12.87837281 64.25316276 18.78613281 61.38989258 C19.55634766 61.02186523 20.3265625 60.65383789 21.12011719 60.2746582 C22.99020923 59.38026636 24.85725556 58.47951063 26.72363281 57.57739258 C20.98658075 48.41088668 14.99991024 39.41492955 8.99658203 30.42163086 C7.32963604 27.92392837 5.66520662 25.42456156 4.00097656 22.92504883 C2.94253107 21.33771038 1.88394272 19.75046717 0.82519531 18.16333008 C0.32734528 17.41554291 -0.17050476 16.66775574 -0.68344116 15.89730835 C-2.77863213 12.57846549 -2.77863213 12.57846549 -5.27636719 9.57739258 C-5.46386719 6.13989258 -5.46386719 6.13989258 -5.27636719 2.57739258 C-3.27636719 0.57739258 -3.27636719 0.57739258 0 0 Z " fill="#000000" transform="translate(237.2763671875,354.422607421875)"/>
<path d="M0 0 C2.80333552 2.01443406 4.68870433 3.61536208 5.46759033 7.07983398 C5.66246706 9.63902498 5.6929541 12.15225563 5.6640625 14.71875 C5.66884613 15.65424683 5.67362976 16.58974365 5.67855835 17.55358887 C5.6819536 19.52711676 5.67277739 21.50070118 5.65185547 23.47412109 C5.62508399 26.49053656 5.65161536 29.50323117 5.68359375 32.51953125 C5.68028958 34.44011236 5.67388321 36.36069116 5.6640625 38.28125 C5.67418365 39.18033081 5.68430481 40.07941162 5.69473267 41.0057373 C5.61340179 45.36299377 5.38406649 47.44913249 2.83349609 51.10742188 C-0.61999987 53.41411675 -1.91981828 53.70005719 -6 53 C-8.80640966 51.95747573 -11.41885852 50.63047134 -14.06640625 49.23828125 C-15.20117653 48.65677559 -15.20117653 48.65677559 -16.35887146 48.06352234 C-17.95283089 47.24299424 -19.54369513 46.41642874 -21.1315918 45.58422852 C-23.55026894 44.31889868 -25.98001136 43.07719034 -28.41210938 41.83789062 C-29.96425896 41.03523974 -31.5157154 40.23124676 -33.06640625 39.42578125 C-33.78735977 39.05785965 -34.50831329 38.68993805 -35.25111389 38.31086731 C-39.50983155 36.05953077 -42.86087536 33.752021 -46 30 C-46.625 26.5 -46.625 26.5 -46 23 C-42.57807017 18.98702387 -39.02512091 16.695531 -34.34375 14.3359375 C-33.7189978 14.01718658 -33.09424561 13.69843567 -32.45056152 13.37002563 C-30.47153945 12.36249933 -28.48617895 11.36833104 -26.5 10.375 C-24.51531469 9.37179492 -22.53204439 8.36585872 -20.54943848 7.35855103 C-18.75213124 6.44706281 -16.95135345 5.54242746 -15.15039062 4.63818359 C-12.03226873 3.06865429 -12.03226873 3.06865429 -9.30273438 1.31884766 C-5.98282492 -0.58256783 -3.75714607 -0.53673515 0 0 Z M-17.9375 18.875 C-18.96552734 19.43058594 -19.99355469 19.98617187 -21.05273438 20.55859375 C-22.03435547 21.09355469 -23.01597656 21.62851563 -24.02734375 22.1796875 C-24.93218506 22.67194824 -25.83702637 23.16420898 -26.76928711 23.67138672 C-29.09902138 24.93523543 -29.09902138 24.93523543 -31 27 C-27.21179916 29.00661684 -23.41888948 31.0041624 -19.625 33 C-18.54476563 33.57234375 -17.46453125 34.1446875 -16.3515625 34.734375 C-15.3203125 35.27578125 -14.2890625 35.8171875 -13.2265625 36.375 C-12.27346191 36.87773438 -11.32036133 37.38046875 -10.33837891 37.8984375 C-8.12925941 39.14205363 -8.12925941 39.14205363 -6 39 C-6 30.42 -6 21.84 -6 13 C-9.71405184 13 -14.73784585 17.12828062 -17.9375 18.875 Z " fill="#000000" transform="translate(440,49)"/>
<path d="M0 0 C0.62478241 0.49447128 1.24956482 0.98894257 1.89328003 1.49839783 C4.37846324 3.26975641 5.62764824 3.38156385 8.64501953 3.40063477 C9.55921661 3.41397354 10.4734137 3.42731232 11.41531372 3.4410553 C12.88422562 3.44122902 12.88422562 3.44122902 14.3828125 3.44140625 C15.39342743 3.45461411 16.40404236 3.46782196 17.44528198 3.48143005 C20.67188295 3.52232615 23.89819839 3.54400486 27.125 3.5625 C30.35885662 3.58625366 33.592443 3.61430058 36.82614136 3.65428162 C38.83819147 3.67871886 40.85038561 3.69351202 42.86257935 3.69789124 C44.22441849 3.71317116 44.22441849 3.71317116 45.61376953 3.72875977 C46.41444855 3.73303482 47.21512756 3.73730988 48.04006958 3.74171448 C50 4 50 4 52 6 C52.3125 9.5 52.3125 9.5 52 13 C48.87269255 15.08487163 48.15039442 15.25175479 44.59204102 15.27124023 C43.2603463 15.28652016 43.2603463 15.28652016 41.90174866 15.30210876 C40.94546066 15.30424881 39.98917267 15.30638885 39.00390625 15.30859375 C36.98111687 15.33375028 34.95833048 15.35914835 32.93554688 15.38476562 C29.74471792 15.41353398 26.55394085 15.43755029 23.36303711 15.45629883 C20.28472135 15.47792857 17.20701266 15.51736329 14.12890625 15.55859375 C12.6975106 15.55876747 12.6975106 15.55876747 11.23719788 15.5589447 C10.34624924 15.57228348 9.4553006 15.58562225 8.53735352 15.59936523 C7.75586441 15.60443588 6.97437531 15.60950653 6.16920471 15.61473083 C3.47015588 16.09410481 2.13242917 17.32613496 0 19 C-3.96792579 19.4133256 -6.59271925 19.09678815 -10 17 C-10 16.34 -10 15.68 -10 15 C-10.83978394 15.01571045 -10.83978394 15.01571045 -11.6965332 15.03173828 C-14.23514307 15.07333326 -16.7736812 15.09933685 -19.3125 15.125 C-20.63411133 15.15013672 -20.63411133 15.15013672 -21.98242188 15.17578125 C-22.82998047 15.18222656 -23.67753906 15.18867188 -24.55078125 15.1953125 C-25.33106689 15.20578613 -26.11135254 15.21625977 -26.9152832 15.22705078 C-29 15 -29 15 -32 13 C-32.3125 9.5 -32.3125 9.5 -32 6 C-29.61747495 3.61747495 -29.06845726 3.74446542 -25.82421875 3.69140625 C-24.58188477 3.65370117 -24.58188477 3.65370117 -23.31445312 3.61523438 C-21.57493958 3.58031477 -19.8353493 3.54901457 -18.09570312 3.52148438 C-11.36343846 3.30767891 -6.50028993 -0.82982425 0 0 Z " fill="#000000" transform="translate(412,133)"/>
<path d="M0 0 C2.64 0 5.28 0 8 0 C8 1.65 8 3.3 8 5 C10.31 5.66 12.62 6.32 15 7 C14.125 12.75 14.125 12.75 13 15 C7.06 14.01 7.06 14.01 1 13 C1 14.65 1 16.3 1 18 C1.86625 18.2475 2.7325 18.495 3.625 18.75 C8.24487011 20.461063 11.74869873 22.45672843 14.875 26.3125 C16.35117243 29.83891192 16.46618895 32.20389 16 36 C14.3125 39.375 14.3125 39.375 12 42 C9.25 42.875 9.25 42.875 7 43 C7 45.31 7 47.62 7 50 C4.69 50 2.38 50 0 50 C0 48.02 0 46.04 0 44 C-1.3921875 43.814375 -1.3921875 43.814375 -2.8125 43.625 C-6 43 -6 43 -9 41 C-8.125 35.25 -8.125 35.25 -7 33 C-6.34 33.33 -5.68 33.66 -5 34 C-1.13938967 35.28687011 1.94150283 35.13757618 6 35 C5.83318292 32.57726857 5.83318292 32.57726857 5 30 C3.08524782 28.4656953 3.08524782 28.4656953 0.6875 27.4375 C-6.14681904 23.90063107 -6.14681904 23.90063107 -8 21 C-8.82460277 16.39090452 -8.6243353 13.07028909 -6.25 9 C-4.04691751 7.04170446 -2.89094238 6.30974383 0 6 C0 4.02 0 2.04 0 0 Z " fill="#000000" transform="translate(445,341)"/>
<path d="M0 0 C2.31 0 4.62 0 7 0 C7 1.65 7 3.3 7 5 C8.134375 5.268125 9.26875 5.53625 10.4375 5.8125 C11.613125 6.204375 12.78875 6.59625 14 7 C15.2077558 10.62326739 14.54311128 11.64146369 13 15 C12.319375 14.835 11.63875 14.67 10.9375 14.5 C7.5835178 13.92910941 4.39610195 13.93340977 1 14 C1.08937932 15.92617454 1.08937932 15.92617454 2 18 C4.43865577 19.54621164 4.43865577 19.54621164 7.375 20.8125 C13.66029095 24.06126078 13.66029095 24.06126078 15.25 27.4375 C16.10541323 31.50071286 16.18183981 34.01129065 15 38 C12.625 40.9375 12.625 40.9375 10 43 C9.01 43 8.02 43 7 43 C7 45.31 7 47.62 7 50 C4.36 50 1.72 50 -1 50 C-1 48.02 -1 46.04 -1 44 C-2.423125 43.814375 -2.423125 43.814375 -3.875 43.625 C-7 43 -7 43 -9 41 C-8.75 37.4375 -8.75 37.4375 -8 34 C-6 33 -6 33 -3.94140625 33.55859375 C-3.15636719 33.84863281 -2.37132812 34.13867188 -1.5625 34.4375 C1.24346352 35.46835645 2.97296354 36 6 36 C6 34.35 6 32.7 6 31 C5.24074219 30.61328125 4.48148438 30.2265625 3.69921875 29.828125 C2.70535156 29.30734375 1.71148437 28.7865625 0.6875 28.25 C-0.29863281 27.73953125 -1.28476563 27.2290625 -2.30078125 26.703125 C-6.31785801 24.16847165 -7.70810487 22.14673088 -8.875 17.5625 C-9.01718844 13.51012944 -8.5123699 12.11880401 -6 9 C-2.5862069 6 -2.5862069 6 0 6 C0 4.02 0 2.04 0 0 Z " fill="#000000" transform="translate(248,44)"/>
<path d="M0 0 C3.6677437 1.43520406 4.72870735 2.5446159 6.75 5.9375 C9.72300867 13.22137124 9.64990498 19.55151559 6.9921875 26.98046875 C5.22921651 30.56887821 2.47264481 32.26367759 -1 34 C-5.70777 34.39231417 -8.07079697 34.47336758 -12.3125 32.3125 C-16.76173693 28.48408682 -18.1116089 25.51159386 -18.875 19.75 C-19.22542082 14.34037858 -18.62119067 9.79388864 -16 5 C-10.91410876 0.03815489 -6.88368138 -0.64422668 0 0 Z M-7 9 C-9.00215699 13.1294488 -9.33217754 16.43255885 -9 21 C-8.11935073 23.35369807 -8.11935073 23.35369807 -7 25 C-5.68 25 -4.36 25 -3 25 C-0.47944495 21.21916742 -0.53297822 17.38281981 -1 13 C-1.86265968 10.59442147 -1.86265968 10.59442147 -3 9 C-4.32 9 -5.64 9 -7 9 Z " fill="#000000" transform="translate(96,262)"/>
<path d="M0 0 C3.88479103 2.76251807 5.52152116 5.42687156 6.8125 10 C7.57254216 16.51586706 7.69509746 22.4534322 3.8125 28 C0.41152985 31.93237173 -1.75696945 32.8827434 -7 33.3125 C-11.39633809 33.23976647 -13.85312988 31.94665267 -17.1875 29 C-21.42080269 23.49670651 -20.81138075 16.61819443 -20.1875 10 C-18.68089039 5.70616261 -16.66211443 2.93170593 -13.1875 0 C-8.52772851 -1.55325716 -4.68597493 -1.47010978 0 0 Z M-8.1875 8 C-10.41014871 11.33397306 -10.48425463 12.59514891 -10.5 16.5 C-10.51675781 17.4590625 -10.53351562 18.418125 -10.55078125 19.40625 C-10.13878633 22.34780511 -9.48680415 23.20423739 -7.1875 25 C-4.97941458 23.63516042 -4.97941458 23.63516042 -3.1875 21 C-2.49042051 16.04749342 -2.37841613 12.2136258 -5.1875 8 C-6.1775 8 -7.1675 8 -8.1875 8 Z " fill="#000000" transform="translate(60.1875,243)"/>
<path d="M0 0 C2.36376953 0.25463867 2.36376953 0.25463867 4.1171875 0.58203125 C3.46906545 3.6870493 2.40442676 6.16168615 0.88671875 8.94140625 C0.41991699 9.79879395 -0.04688477 10.65618164 -0.52783203 11.53955078 C-1.29135986 12.92182861 -1.29135986 12.92182861 -2.0703125 14.33203125 C-2.5947998 15.28835449 -3.11928711 16.24467773 -3.65966797 17.22998047 C-8.41104778 25.83933016 -13.34566796 34.33927929 -18.33666992 42.81152344 C-18.9010376 43.76961914 -19.46540527 44.72771484 -20.046875 45.71484375 C-20.54654785 46.55934082 -21.0462207 47.40383789 -21.56103516 48.27392578 C-22.741996 50.33613557 -23.82004463 52.45649551 -24.8828125 54.58203125 C-28.1828125 54.58203125 -31.4828125 54.58203125 -34.8828125 54.58203125 C-33.47720522 50.85926578 -31.7926883 47.43956286 -29.86328125 43.9609375 C-28.95763428 42.32475464 -28.95763428 42.32475464 -28.03369141 40.65551758 C-25.68121102 36.440589 -23.31250424 32.23473809 -20.93670654 28.03291321 C-18.67336009 24.02094093 -16.48174862 19.97619482 -14.31640625 15.91015625 C-13.21465723 13.90433476 -12.11184971 11.89909419 -11.0078125 9.89453125 C-10.52207764 8.95101807 -10.03634277 8.00750488 -9.53588867 7.03540039 C-6.93805296 2.41968459 -5.56552324 0.02936091 0 0 Z " fill="#000000" transform="translate(87.8828125,241.41796875)"/>
<path d="M0 0 C0.87931183 -0.00807175 1.75862366 -0.01614349 2.6645813 -0.02445984 C4.5291343 -0.03831643 6.39371283 -0.04903151 8.25830078 -0.05688477 C11.11409404 -0.07410587 13.96873236 -0.11797779 16.82421875 -0.16210938 C18.63280396 -0.17223508 20.44139904 -0.18075157 22.25 -0.1875 C23.53449539 -0.21376213 23.53449539 -0.21376213 24.84494019 -0.24055481 C30.74952382 -0.21889092 30.74952382 -0.21889092 33.32861328 2.10083008 C34.55890452 4.93088783 34.31601368 6.3660209 33.2578125 9.23828125 C29.46726807 11.76531087 26.40478464 11.54418714 22.01171875 11.5390625 C20.80043556 11.54549019 20.80043556 11.54549019 19.56468201 11.55204773 C17.85750262 11.55778824 16.15029876 11.55829333 14.44311523 11.55395508 C11.8333962 11.55079708 9.22481308 11.57424976 6.61523438 11.59960938 C4.9557306 11.60188263 3.29622377 11.60258574 1.63671875 11.6015625 C0.85744522 11.61077225 0.07817169 11.61998199 -0.72471619 11.62947083 C-5.00004039 11.59303031 -7.65383004 11.32868162 -10.7421875 8.23828125 C-9.62866549 -0.51082027 -8.35339096 0.0717195 0 0 Z " fill="#000000" transform="translate(233.7421875,477.76171875)"/>
<path d="M0 0 C1.134375 0.020625 2.26875 0.04125 3.4375 0.0625 C3.685 0.866875 3.9325 1.67125 4.1875 2.5 C5.15988859 5.233581 5.15988859 5.233581 7.5625 5.875 C8.18125 5.936875 8.8 5.99875 9.4375 6.0625 C10.125 9.375 10.125 9.375 10.4375 13.0625 C9.125 15 9.125 15 7.4375 16.0625 C6.7775 16.0625 6.1175 16.0625 5.4375 16.0625 C5.31375 16.701875 5.19 17.34125 5.0625 18 C4.753125 19.0209375 4.753125 19.0209375 4.4375 20.0625 C1.67499964 21.44375018 -0.50981099 21.25329306 -3.5625 21.0625 C-4.2225 20.4025 -4.8825 19.7425 -5.5625 19.0625 C-5.5625 18.0725 -5.5625 17.0825 -5.5625 16.0625 C-6.18125 16.000625 -6.8 15.93875 -7.4375 15.875 C-9.5625 15.0625 -9.5625 15.0625 -11 12.8125 C-11.5625 10.0625 -11.5625 10.0625 -10.375 7.25 C-9.776875 6.528125 -9.17875 5.80625 -8.5625 5.0625 C-7.5725 5.0625 -6.5825 5.0625 -5.5625 5.0625 C-5.418125 4.423125 -5.27375 3.78375 -5.125 3.125 C-4.16977878 -0.37747781 -3.91378882 0.06866296 0 0 Z " fill="#000000" transform="translate(482.5625,131.9375)"/>
<path d="M0 0 C1.09924805 0.00483398 1.09924805 0.00483398 2.22070312 0.00976562 C2.94966797 -0.00634766 3.67863281 -0.02246094 4.4296875 -0.0390625 C9.75120791 -0.04394015 9.75120791 -0.04394015 12.26367188 1.68554688 C13.73592564 4.04905004 13.69235741 5.59457036 13.28320312 8.32226562 C12.25976562 9.95117188 12.25976562 9.95117188 10.28320312 11.32226562 C7.5181328 11.64739572 5.04352333 11.78677943 2.28320312 11.75976562 C1.55875 11.77974609 0.83429688 11.79972656 0.08789062 11.8203125 C-3.28555276 11.81720047 -5.2002111 11.80073439 -7.72851562 9.45898438 C-9.0288475 6.64759491 -8.7073312 5.21767367 -7.71679688 2.32226562 C-5.17479392 -0.21973733 -3.47455304 0.0350965 0 0 Z " fill="#000000" transform="translate(359.716796875,136.677734375)"/>
<path d="M0 0 C2.73883355 1.59029045 2.94967699 2.83465297 3.875 5.875 C4.02405268 9.60131711 3.25133987 11.08159647 1 14 C-1.88861709 15.44430855 -3.79647701 15.37688506 -7 15 C-9.9375 12.9375 -9.9375 12.9375 -12 10 C-12 6.48044581 -11.63108355 4.15079941 -9.9375 1.0625 C-6.74841596 -0.68635254 -3.54329495 -0.53260383 0 0 Z " fill="#000000" transform="translate(29,147)"/>
<path d="M0 0 C2 2 2 2 2.625 4.8125 C2 8 2 8 0.421875 9.50390625 C-2.8230599 11.67751723 -5.44115492 12.90510178 -9.3125 13.5625 C-12 13 -12 13 -13.9375 11.3125 C-15 9 -15 9 -15.0625 6.5 C-13.55043264 2.94219445 -11.31507724 1.85644325 -8 0 C-4.67679974 -1.10773342 -3.30835256 -0.93312508 0 0 Z " fill="#000000" transform="translate(203,326)"/>
<path d="M0 0 C2.15502531 3.23253796 2.46856135 4.25150923 2 8 C-0.05913858 10.9261443 -2.62230557 12.00204483 -6 13 C-9.6875 13.3125 -9.6875 13.3125 -13 13 C-15.15502531 9.76746204 -15.46856135 8.74849077 -15 5 C-11.4747313 -0.00959236 -5.70641039 -0.5383406 0 0 Z " fill="#000000" transform="translate(195,312)"/>
<path d="M0 0 C2 2 2 2 2.3125 4.9375 C2 8 2 8 0.8125 9.75 C-3.27901809 12.57173661 -7.03183603 13.64802139 -12 13 C-13.9375 11.3125 -13.9375 11.3125 -15 9 C-15 6.4375 -15 6.4375 -14 4 C-11.5625 2.25 -11.5625 2.25 -9 1 C-5.98675805 -0.50662097 -3.31713623 -0.17770373 0 0 Z " fill="#000000" transform="translate(189,298)"/>
<path d="M0 0 C3.3125 0.9375 3.3125 0.9375 5.3125 2.9375 C5.86489643 9.89769496 5.86489643 9.89769496 4.25 12.9375 C1.21496787 14.50396819 -1.33883668 14.2364878 -4.6875 13.9375 C-7.6875 11.9375 -7.6875 11.9375 -8.6875 8.625 C-8.6875 4.9375 -8.6875 4.9375 -6.6875 1.9375 C-3.6875 -0.0625 -3.6875 -0.0625 0 0 Z " fill="#000000" transform="translate(506.6875,94.0625)"/>
<path d="M0 0 C1.875 1.1875 1.875 1.1875 3 3 C3.41616519 6.25996064 3.2766188 8.34303035 2 11.375 C-0.70544036 13.5731703 -2.7087924 13.5712063 -6.125 13.3828125 C-8 13 -8 13 -10 11.375 C-11.2766188 8.34303035 -11.41616519 6.25996064 -11 3 C-7.7708256 -1.25663898 -5.01051526 -1.22706496 0 0 Z " fill="#000000" transform="translate(422,290)"/>
<path d="M0 0 C3.5625 0.3125 3.5625 0.3125 5.5 1.375 C7.19585287 4.46743758 6.99310657 6.86764741 6.5625 10.3125 C4.9375 12.3125 4.9375 12.3125 2.5625 13.3125 C-0.9178645 13.24147215 -2.73235909 12.92665498 -5.375 10.625 C-6.82300221 7.47346578 -6.367426 5.60300737 -5.4375 2.3125 C-3.4375 0.3125 -3.4375 0.3125 0 0 Z " fill="#000000" transform="translate(245.4375,397.6875)"/>
</svg>
