<?xml version="1.0" encoding="UTF-8"?>
<svg version="1.1" xmlns="http://www.w3.org/2000/svg" width="512" height="512">
<path d="M0 0 C1.20060271 0.98423035 2.38796127 1.98480788 3.5625 3 C4.28566406 3.58136719 5.00882812 4.16273437 5.75390625 4.76171875 C20.79245496 17.30656565 30.47685339 36.61341822 32.5625 56 C32.5143929 57.59327334 32.44253115 59.18594219 32.3515625 60.77734375 C32.12562565 65.93821703 31.92676013 71.04048123 33.5625 76 C37.3974256 79.63730409 41.50135138 81.12815922 46.3671875 83.02587891 C50.25922031 84.7528819 53.62207291 87.20257155 57.0625 89.6875 C57.76810059 90.19240967 58.47370117 90.69731934 59.20068359 91.2175293 C82.25111558 108.0138251 104.82754443 131.03454459 115.73828125 157.89453125 C117.53045046 160.45125529 117.53045046 160.45125529 121.484375 160.3828125 C123.09464182 160.31562684 124.70415667 160.22846437 126.3125 160.125 C146.00798986 159.54194048 163.33232278 165.44178369 178.5625 178 C179.33980469 178.61488281 180.11710937 179.22976562 180.91796875 179.86328125 C191.66530855 188.79781675 198.54673625 200.14250147 203.5625 213 C203.99820312 214.11375 204.43390625 215.2275 204.8828125 216.375 C211.39923574 236.42553303 208.80890237 258.77598682 199.6875 277.4375 C196.80122379 283.0472675 193.7000891 288.21296654 189.5625 293 C188.98113281 293.72316406 188.39976562 294.44632812 187.80078125 295.19140625 C175.1933611 310.30496671 155.99004941 319.78873421 136.5625 322 C133.081908 322.11209692 129.60690587 322.09508803 126.125 322.0625 C125.20267578 322.05798828 124.28035156 322.05347656 123.33007812 322.04882812 C121.07414952 322.03713938 118.81836033 322.02075455 116.5625 322 C116.28148437 322.72703125 116.00046875 323.4540625 115.7109375 324.203125 C104.17679193 352.29308497 76.87225758 383.34512121 49.5625 397 C46.08281998 397.25775408 43.42906941 397.36487133 40.1875 396 C37.6992444 392.93753157 37.16765555 389.83145353 37.5625 386 C40.58523609 380.89261834 44.98456491 378.18211673 49.8359375 374.890625 C71.52324484 359.85243481 86.83431258 339.80466912 99.5625 317 C98.345625 316.67 97.12875 316.34 95.875 316 C77.61504365 309.81794581 62.18839974 294.50047089 53.71484375 277.41796875 C49.39642179 267.7943601 46.21503407 257.57896151 45.5625 247 C45.48322266 245.73349609 45.48322266 245.73349609 45.40234375 244.44140625 C44.69546743 221.79063021 52.75120451 200.91556632 68.16723633 184.35229492 C76.63932965 175.60557018 86.19291823 169.32722888 97.5625 165 C98.2225 165 98.8825 165 99.5625 165 C91.59098501 150.34844451 82.57369382 137.42591435 70.94824219 125.43261719 C69.70499382 124.1473139 68.48014896 122.84426923 67.2578125 121.5390625 C56.07373256 109.86337465 42.01691079 100.2272054 27.5625 93 C27.211875 94.2375 26.86125 95.475 26.5 96.75 C20.23823814 115.13315409 5.23511493 130.28436647 -12.015625 138.84375 C-33.82029092 148.64144129 -56.27370881 149.47132548 -78.83203125 141.4765625 C-98.16953006 133.55719679 -113.51391603 118.80951523 -122.4375 100 C-123.21172505 97.67961544 -123.83500355 95.37383602 -124.4375 93 C-139.08905549 100.97151499 -152.01158565 109.98880618 -164.00488281 121.61425781 C-165.2901861 122.85750618 -166.59323077 124.08235104 -167.8984375 125.3046875 C-179.57412535 136.48876744 -189.2102946 150.54558921 -196.4375 165 C-195.2 165.350625 -193.9625 165.70125 -192.6875 166.0625 C-174.30434591 172.32426186 -159.15313353 187.32738507 -150.59375 204.578125 C-146.27002331 214.20053635 -143.09008683 224.42018319 -142.4375 235 C-142.35822266 236.26650391 -142.35822266 236.26650391 -142.27734375 237.55859375 C-141.58238789 259.82739677 -149.32208703 279.45952148 -163.8125 296.25 C-172.74545347 305.74410675 -182.59118004 311.79647628 -194.4375 317 C-195.0975 317 -195.7575 317 -196.4375 317 C-191.62240973 325.77217243 -186.58736851 334.07454804 -180.4375 342 C-179.77363281 342.86882812 -179.10976562 343.73765625 -178.42578125 344.6328125 C-168.57737949 357.12080438 -157.28606617 367.68521838 -144.4375 377 C-142.87268931 378.14267571 -141.30981521 379.28801456 -139.75 380.4375 C-138.84701172 381.08525391 -138.84701172 381.08525391 -137.92578125 381.74609375 C-136.4375 383 -136.4375 383 -134.4375 386 C-134.20877898 389.78152089 -134.65507641 393.03701711 -137.0625 396 C-140.65762602 397.51373727 -142.51659051 397.62236659 -146.4375 397 C-154.86098795 392.91629304 -161.93728734 386.48464311 -168.91357422 380.34033203 C-170.29929384 379.12155588 -171.69780348 377.91736045 -173.09765625 376.71484375 C-190.28204666 361.70913993 -203.31689937 343.37501384 -213.4375 323 C-214.70722656 322.96261719 -215.97695312 322.92523438 -217.28515625 322.88671875 C-239.18868188 322.11269725 -258.16694127 318.24063615 -275.4375 304 C-276.60345703 303.07767578 -276.60345703 303.07767578 -277.79296875 302.13671875 C-288.54030855 293.20218325 -295.42173625 281.85749853 -300.4375 269 C-300.87320312 267.88625 -301.30890625 266.7725 -301.7578125 265.625 C-308.2380879 245.68569109 -305.72457431 223.34179573 -296.6875 204.75 C-286.36831518 184.72977516 -270.02745351 170.09806691 -248.4375 163 C-237.05719942 159.77449767 -226.16398234 159.65918727 -214.4375 160 C-213.92703125 159.04222656 -213.4165625 158.08445313 -212.890625 157.09765625 C-193.87394375 122.01838459 -166.32791683 93.80520007 -130.4375 76 C-130.40011719 74.73027344 -130.36273438 73.46054688 -130.32421875 72.15234375 C-129.55119204 50.27696925 -125.69846663 31.23088651 -111.4375 14 C-110.76074219 13.14921875 -110.08398438 12.2984375 -109.38671875 11.421875 C-100.56068926 0.9016351 -89.16798781 -6.08988219 -76.4375 -11 C-75.36886719 -11.41378906 -74.30023438 -11.82757813 -73.19921875 -12.25390625 C-48.61898669 -20.2431776 -20.74142632 -15.06222626 0 0 Z M-93.6875 19.75 C-107.07501318 33.79521985 -113.1317002 50.61959746 -112.69140625 69.7734375 C-112.29922048 78.56707023 -109.9400235 91.07536492 -103.8125 97.77734375 C-103.35875 98.18082031 -102.905 98.58429688 -102.4375 99 C-102.10878906 98.39414063 -101.78007812 97.78828125 -101.44140625 97.1640625 C-95.8414301 87.29960587 -89.15810986 79.64648923 -79.6015625 73.47265625 C-77.62337062 72.12648597 -76.05745867 70.7506005 -74.4375 69 C-74.77523437 68.41992188 -75.11296875 67.83984375 -75.4609375 67.2421875 C-75.90695313 66.46101563 -76.35296875 65.67984375 -76.8125 64.875 C-77.25335938 64.10929687 -77.69421875 63.34359375 -78.1484375 62.5546875 C-82.18244576 54.56001659 -82.85119383 45.86361646 -80.75 37.1484375 C-77.17208907 27.5178939 -71.47388522 20.87067572 -62.4375 16 C-54.20850086 12.45023566 -42.87465316 12.58358729 -34.52734375 15.89453125 C-26.24362608 20.27638564 -20.11674252 26.35728016 -16.625 35.0625 C-13.65311618 45.07125816 -14.73411588 54.8134571 -19.4375 64 C-20.24767578 65.62421875 -20.24767578 65.62421875 -21.07421875 67.28125 C-21.52410156 68.1784375 -21.97398437 69.075625 -22.4375 70 C-21.58027344 70.56847656 -20.72304688 71.13695313 -19.83984375 71.72265625 C-10.45653594 78.02164238 -3.35920239 83.70343725 2.203125 93.765625 C3.4762521 95.8582362 4.75582816 97.36336786 6.5625 99 C15.62411995 81.84381046 18.60968747 64.37553701 12.875 45.55859375 C6.23551761 27.55690192 -6.15756357 14.56696765 -23.36328125 6.3203125 C-47.57540627 -4.07828757 -74.76797659 1.74363609 -93.6875 19.75 Z M-63.23828125 38.28125 C-65.94651565 42.16275858 -65.89693147 46.44902794 -65.4375 51 C-63.58830845 56.43879866 -60.06163162 59.77361725 -55.4375 63 C-50.50308151 64.64480616 -46.17339501 64.5902043 -41.3125 62.9375 C-36.79403079 59.89244466 -33.17723806 56.21921417 -31.4375 51 C-31.06926512 45.38441811 -31.19858594 41.80613054 -34.4375 37 C-38.77524105 32.62124012 -41.90768385 30.16588958 -48.25 29.75 C-55.19934973 29.88974926 -58.96008192 33.16088545 -63.23828125 38.28125 Z M-80.4375 95 C-85.29642326 101.37919987 -88.26537956 107.05562814 -89.4375 115 C-74.69011361 126.10052728 -58.64017707 131.79061554 -40.0546875 129.6015625 C-28.06965671 127.67495003 -16.71730958 122.94650361 -7.4375 115 C-8.93379357 104.85845471 -13.45441277 97.12841053 -21.375 90.5625 C-39.61431261 77.08965428 -64.56445949 77.26178206 -80.4375 95 Z M-274.30859375 201.0625 C-286.28908059 215.99921086 -289.27295083 233.38759079 -287.4375 252 C-285.99448892 260.10170552 -283.21847326 267.29846483 -278.4375 274 C-275.9219745 271.0007196 -273.72560949 267.91952158 -271.625 264.625 C-265.98479661 256.15066456 -259.14224549 251.17877264 -250.4375 246 C-251.04095872 243.16312189 -251.92281468 240.99885473 -253.375 238.5 C-257.83318509 229.69794227 -258.30487669 220.35670288 -255.4375 211 C-252.06603607 201.76570924 -246.67318731 195.78222537 -237.75 191.625 C-228.11215648 187.78299764 -219.047732 188.13417162 -209.4375 192 C-200.12428482 196.51599954 -194.92715238 203.38975313 -191.4375 213 C-188.81484575 221.74218083 -190.40191985 231.10292315 -194.52734375 239.1171875 C-195.48163354 240.75408315 -196.45769258 242.37824978 -197.4375 244 C-197.4375 244.66 -197.4375 245.32 -197.4375 246 C-195.83208177 247.08328221 -194.17514003 248.09050517 -192.5 249.0625 C-182.96781167 255.00941082 -177.08548705 261.7729607 -171.84765625 271.69140625 C-171.38230469 272.45324219 -170.91695313 273.21507812 -170.4375 274 C-169.7775 274 -169.1175 274 -168.4375 274 C-159.59382731 257.02816212 -156.63758057 239.53025106 -162.4375 221 C-166.25604599 210.86726654 -171.59123972 202.50805941 -179.4375 195 C-180.12328125 194.29488281 -180.8090625 193.58976562 -181.515625 192.86328125 C-193.56602191 181.14761758 -209.4920517 176.44692189 -225.99047852 176.58007812 C-245.69327586 177.27055019 -261.37711374 186.80817548 -274.30859375 201.0625 Z M79.5625 198 C78.67304688 198.84111328 78.67304688 198.84111328 77.765625 199.69921875 C67.41052362 210.30484678 62.80459327 226.61697989 62.1875 241 C62.66493752 252.9956176 66.0682062 263.45593456 71.5625 274 C72.2225 274 72.8825 274 73.5625 274 C74.62436996 272.24429455 75.61025833 270.44249972 76.5625 268.625 C82.40756489 258.36285708 90.15036199 251.44975734 100.5625 246 C99.29994875 242.7841744 97.95139208 239.6345654 96.5 236.5 C92.63226114 227.75804748 92.56915859 219.48002422 95.58984375 210.41796875 C99.10882021 201.66999111 104.61952013 195.65837439 113.1875 191.6875 C122.76494886 187.80170004 132.00775027 188.01885428 141.5625 192 C150.05974644 196.39938082 156.03583035 202.78075476 159.03125 211.9453125 C161.58332567 221.81584047 160.56388674 231.33719978 155.46484375 240.24609375 C154.49082552 242.13931533 154.00512895 243.92375081 153.5625 246 C154.26375 246.4125 154.965 246.825 155.6875 247.25 C167.3959431 254.37687841 173.84867563 262.28651919 180.5625 274 C184.3540581 270.76626175 185.67648258 267.68580582 187.25 263 C187.66636719 261.783125 188.08273437 260.56625 188.51171875 259.3125 C193.27082265 244.30982301 191.78376433 226.95653914 185.0546875 212.8359375 C176.00033748 196.20120142 162.34537831 185.2795994 144.6640625 178.96484375 C120.31231416 171.79275349 96.78284324 180.38348321 79.5625 198 Z M-236.1875 210.125 C-239.47801822 214.32955106 -241.52349242 218.67700738 -241.3828125 224.11328125 C-240.36460407 229.46407044 -237.65077502 233.58625905 -233.4375 237 C-229.2284415 239.33404353 -225.16561911 240.46265246 -220.375 239.625 C-214.49066855 237.71465592 -209.79999626 233.50699312 -206.875 228.125 C-206.05002643 222.23233167 -206.30523868 217.17171799 -209.6875 212.125 C-213.14386786 207.88309399 -216.41168402 206.00377684 -221.8125 205.125 C-227.68060106 204.65711154 -231.57178373 206.55831016 -236.1875 210.125 Z M112.5625 213 C109.40507011 218.57812614 109.19185091 221.92998259 110.5625 228 C112.76946528 232.99471089 116.49095694 236.56790925 121.4140625 238.86328125 C126.14241398 240.39858263 129.84781156 239.98382809 134.44921875 238.171875 C139.33355974 235.46336798 142.37835053 231.39651436 144.125 226.125 C145.04109648 221.31081951 143.7555149 217.29568088 141.5625 213 C137.76126178 208.14286227 133.19483773 205.54485066 127.0625 204.625 C120.88404846 205.55176773 116.48471918 208.20617656 112.5625 213 Z M-252.25 266.6875 C-258.18956335 272.19033075 -263.54906949 280.53779763 -264.859375 288.59375 C-264.65781791 291.16752887 -264.65781791 291.16752887 -262.453125 292.84375 C-244.98884812 303.30258248 -227.6165371 308.34672965 -207.5 303.3125 C-197.94479248 300.42771807 -190.1662639 296.28231926 -182.4375 290 C-184.76600891 278.81830615 -190.87258047 270.04889074 -200.16796875 263.4296875 C-217.15814196 252.72675567 -236.46269735 254.52986738 -252.25 266.6875 Z M95.46484375 269.9375 C89.9588841 275.9070004 87.53080953 282.19077195 85.5625 290 C101.35039465 301.51739855 117.8532935 307.63046506 137.56445312 304.70263672 C148.57347482 302.65566397 158.75820137 297.9131605 167.5625 291 C167.29050769 283.65620754 164.67936932 278.99828871 160.5625 273 C159.840625 271.948125 159.11875 270.89625 158.375 269.8125 C140.16131907 251.59881907 113.86526598 252.36892326 95.46484375 269.9375 Z " fill="#000000" transform="translate(304.4375,15)"/>
<path d="M0 0 C1.31726074 0.00858032 1.31726074 0.00858032 2.66113281 0.01733398 C12.6915575 0.2916467 21.13231645 3.35649096 28.49609375 10.3359375 C37.77930539 21.79005609 38.26924948 34.44990973 37.25 48.5 C35.64267346 57.56532169 31.85442339 66.89557661 25.25 73.5 C26.27738281 73.74234375 27.30476563 73.9846875 28.36328125 74.234375 C44.21956923 78.03819523 60.65386445 82.09471568 70.25 96.5 C73.04432168 102.73525702 73.68765586 107.82518649 73.65405273 114.61279297 C73.66091599 115.59276245 73.66777924 116.57273193 73.67485046 117.58239746 C73.69306134 120.8024774 73.6892887 124.02206741 73.68359375 127.2421875 C73.68815857 129.49366411 73.69346503 131.74513934 73.69947815 133.99661255 C73.70839829 138.70889964 73.70599886 143.42101716 73.69604492 148.13330078 C73.68456216 154.15433453 73.70476228 160.17478119 73.73396206 166.19573784 C73.75236163 170.8439197 73.75202398 175.49196189 73.74632454 180.14017105 C73.74617176 182.35920154 73.75218025 184.57824175 73.76461601 186.7972374 C73.77959338 189.90799888 73.76879863 193.01768864 73.75170898 196.12841797 C73.76621094 197.48629929 73.76621094 197.48629929 73.78100586 198.87161255 C73.66411608 209.0987803 69.88002676 216.86574548 62.90234375 224.2265625 C58.59555078 227.91809933 52.14874385 232.5 46.25 232.5 C46.25888245 233.77928879 46.26776489 235.05857758 46.2769165 236.37663269 C46.35797236 248.42754874 46.41795116 260.47840954 46.45724869 272.52953625 C46.47813109 278.72529135 46.50646127 284.92082654 46.55175781 291.11645508 C46.59519134 297.09461443 46.61913219 303.07256213 46.62950897 309.05086708 C46.63690475 311.33266851 46.6513468 313.61445824 46.67292023 315.89616966 C46.70192029 319.09013353 46.70595732 322.28322076 46.70410156 325.47729492 C46.71848267 326.42244461 46.73286377 327.3675943 46.74768066 328.34138489 C46.72245719 332.34845196 46.52008171 334.95239869 44.72796631 338.58598328 C41.30667898 341.22863469 38.3024343 341.20194575 34.1484375 341.14697266 C32.92824921 341.16011505 32.92824921 341.16011505 31.68341064 341.17352295 C28.99672982 341.19551484 26.3116973 341.18096581 23.625 341.1640625 C21.75699549 341.16743072 19.88899311 341.17228338 18.02099609 341.17855835 C14.10688401 341.18592937 10.19334261 341.17521691 6.27929688 341.15185547 C1.2617348 341.1233674 -3.75449016 341.13977017 -8.77200317 341.16971779 C-12.62909014 341.18778466 -16.48586003 341.18203558 -20.34295654 341.16907883 C-22.19293374 341.16574312 -24.04293971 341.1698377 -25.8928833 341.18147659 C-28.47884373 341.19417558 -31.06263845 341.17482376 -33.6484375 341.14697266 C-34.41323425 341.15709381 -35.17803101 341.16721497 -35.96600342 341.17764282 C-39.47081555 341.10770045 -41.42967879 340.7474207 -44.22796631 338.58598328 C-46.40570511 334.17053206 -46.27807819 330.33916005 -46.20410156 325.47729492 C-46.20468567 324.47194702 -46.20526978 323.46659912 -46.20587158 322.43078613 C-46.20308882 319.11366029 -46.17198672 315.79743728 -46.140625 312.48046875 C-46.13316332 310.17833446 -46.12747004 307.87619382 -46.12347412 305.5740509 C-46.1082122 299.51911844 -46.068925 293.46457066 -46.0246582 287.40979004 C-45.98371789 281.2296265 -45.96546572 275.04940072 -45.9453125 268.86914062 C-45.90243176 256.74592487 -45.83417321 244.62299444 -45.75 232.5 C-46.68245293 232.19881256 -46.68245293 232.19881256 -47.63374329 231.89154053 C-48.4472374 231.62536926 -49.26073151 231.359198 -50.09887695 231.08496094 C-50.90613724 230.82229431 -51.71339752 230.55962769 -52.54512024 230.28900146 C-59.83455095 227.68052748 -66.36925968 221.13227565 -69.87535858 214.31035709 C-72.50481408 208.09430512 -73.3277411 202.85896887 -73.26757812 196.14428711 C-73.2745874 195.16241928 -73.28159668 194.18055145 -73.28881836 193.16893005 C-73.30628388 189.95477194 -73.29481703 186.74150929 -73.28125 183.52734375 C-73.28394798 181.27632988 -73.28783294 179.02531715 -73.29284668 176.77430725 C-73.29872607 172.06972088 -73.29022809 167.36543944 -73.27148438 162.66088867 C-73.24868299 156.64651469 -73.26183591 150.63285434 -73.28577423 144.61850643 C-73.300263 139.97464164 -73.29561225 135.33094465 -73.28526306 130.68707466 C-73.28260499 128.47001624 -73.28583299 126.25294233 -73.29518127 124.03590202 C-73.30539891 120.93229972 -73.28977287 117.82983635 -73.26757812 114.72631836 C-73.27567505 113.82061096 -73.28377197 112.91490356 -73.29211426 111.98175049 C-73.17335368 102.96713355 -69.91720316 95.90607061 -63.7890625 89.34765625 C-53.02632917 79.59521781 -38.46142813 76.73431429 -24.75 73.5 C-25.12511719 73.06171875 -25.50023437 72.6234375 -25.88671875 72.171875 C-36.40664714 59.13458339 -37.9732938 44.66614422 -36.75 28.5 C-34.92213361 19.20399378 -30.12018615 11.62646032 -22.375 6.1875 C-15.2462676 1.52845954 -8.44123803 -0.06399787 0 0 Z M-14.61328125 22.18359375 C-15.09152344 22.76238281 -15.56976563 23.34117187 -16.0625 23.9375 C-16.79919922 24.80181641 -16.79919922 24.80181641 -17.55078125 25.68359375 C-21.395318 31.50675202 -20.21827726 39.82370424 -19.75 46.5 C-18.17601306 54.14237031 -14.77617034 60.46796367 -8.75 65.5 C-4.80282752 67.9837919 -1.30429126 68.90920882 3.3125 68.0625 C10.05560929 65.85446225 13.93272379 61.57661395 17.125 55.375 C20.97057375 47.19997236 21.44796615 38.05034705 19.82421875 29.171875 C18.09561441 24.46328403 14.30271355 21.24479236 10.25 18.5 C6.82008462 17.35669487 4.0513584 17.29618349 0.4375 17.25 C-0.76519531 17.22421875 -1.96789062 17.1984375 -3.20703125 17.171875 C-7.90148626 17.60664261 -11.11411174 19.02187035 -14.61328125 22.18359375 Z M-51.75 101.5 C-56.02651688 106.64396078 -56.32742098 110.48876105 -56.26757812 116.88256836 C-56.2745874 117.80854324 -56.28159668 118.73451813 -56.28881836 119.68855286 C-56.30637511 122.73929126 -56.29478265 125.78909645 -56.28125 128.83984375 C-56.2839458 130.96684446 -56.28782896 133.09384396 -56.29284668 135.22084045 C-56.29873879 139.67525992 -56.29018864 144.12935816 -56.27148438 148.58374023 C-56.24870916 154.28455943 -56.26181105 159.98462474 -56.28577423 165.68541622 C-56.30025164 170.07700749 -56.29561701 174.46842105 -56.28526306 178.86001778 C-56.28260044 180.96150362 -56.28584914 183.06300577 -56.29518127 185.16447258 C-56.30537709 188.10609325 -56.28980234 191.04650604 -56.26757812 193.98803711 C-56.27567505 194.85111481 -56.28377197 195.7141925 -56.29211426 196.60342407 C-56.21139126 202.39115481 -55.22897815 205.81388931 -51.75 210.5 C-49.81566184 212.09424667 -47.9433438 213.25378193 -45.75 214.5 C-45.74453156 213.00995453 -45.74453156 213.00995453 -45.73895264 211.48980713 C-45.70202229 202.13138936 -45.6442713 192.77330124 -45.56609726 183.41513443 C-45.52657644 178.60389078 -45.49441063 173.79283141 -45.47900391 168.98144531 C-45.46386755 164.33874281 -45.42947611 159.69654679 -45.38169098 155.05406952 C-45.36684591 153.28228913 -45.3589572 151.51043644 -45.35811615 149.73859406 C-45.35575406 147.25779631 -45.32873769 144.77840696 -45.29589844 142.29785156 C-45.3009288 141.56417358 -45.30595917 140.83049561 -45.31114197 140.07458496 C-45.24164009 136.68446278 -44.97332803 134.80215322 -42.93463135 132.04388428 C-39.73280861 129.78114838 -37.57226827 129.95396168 -33.75 130.5 C-31.56368637 132.05036545 -31.56368637 132.05036545 -29.75 134.5 C-29.35364843 137.20018024 -29.20223127 139.49505844 -29.23101807 142.19415283 C-29.22351681 142.97344548 -29.21601556 143.75273813 -29.208287 144.5556457 C-29.18797294 147.16920276 -29.19611953 149.78189533 -29.20410156 152.39550781 C-29.19536855 154.26800395 -29.18488372 156.14049262 -29.17277527 158.01296997 C-29.14486133 163.09940687 -29.14151178 168.18560092 -29.14249516 173.27210331 C-29.13937069 178.58662956 -29.11376222 183.90104568 -29.09051514 189.21551514 C-29.04991584 199.28059835 -29.02960518 209.34561672 -29.01654124 219.41076922 C-29.00068451 230.86898521 -28.96227448 242.32709063 -28.92194796 253.78524256 C-28.83949521 277.35679451 -28.78623669 300.92833562 -28.75 324.5 C-21.49 324.5 -14.23 324.5 -6.75 324.5 C-6.73541748 322.00139404 -6.72083496 319.50278809 -6.70581055 316.9284668 C-6.65552125 308.68214176 -6.58893641 300.43600668 -6.51428509 292.18986797 C-6.46951702 287.18917635 -6.4302752 282.18856741 -6.40356445 277.18774414 C-6.37759555 272.36357122 -6.337239 267.53971542 -6.28681374 262.7157383 C-6.2701015 260.87334951 -6.25861443 259.03090582 -6.25238609 257.18845177 C-6.24279217 254.61186689 -6.21479047 252.0361013 -6.18237305 249.4597168 C-6.18380814 248.69439133 -6.18524323 247.92906586 -6.1867218 247.14054871 C-6.09473816 241.98680475 -6.09473816 241.98680475 -4.37141418 239.55329895 C-2.11793896 238.08940212 -0.43295391 237.69163957 2.25 237.5 C4.9375 238.125 4.9375 238.125 7.25 239.5 C9.5002869 243.68496207 9.55511112 247.76881324 9.56884766 252.41137695 C9.57889328 253.19239273 9.5889389 253.97340851 9.59928894 254.77809143 C9.63006966 257.34814753 9.64714174 259.91809969 9.6640625 262.48828125 C9.68277827 264.27476391 9.70235199 266.06123776 9.7227478 267.84770203 C9.7740318 272.54117642 9.8136775 277.23467946 9.85089111 281.92828369 C9.89095415 286.72114121 9.94203601 291.51387993 9.9921875 296.30664062 C10.08890269 305.70435185 10.17230279 315.10211227 10.25 324.5 C16.52 324.5 22.79 324.5 29.25 324.5 C29.25364563 322.12854797 29.25729126 319.75709595 29.26104736 317.31378174 C29.29723617 295.00526585 29.35538916 272.69688502 29.43390274 250.38847733 C29.47374005 238.91848765 29.50610868 227.44856705 29.52099609 215.97851562 C29.53398831 205.98313653 29.56089066 195.98790913 29.60461307 185.99261546 C29.62728262 180.69841395 29.64290739 175.40439992 29.64188385 170.11014557 C29.64114048 165.12949114 29.65896091 160.14925201 29.69116783 155.16870499 C29.69970342 153.3385393 29.70139209 151.50832723 29.69580269 149.67815018 C29.68919606 147.18299481 29.7070017 144.68917376 29.73101807 142.19415283 C29.72325765 141.46652402 29.71549723 140.73889521 29.70750165 139.98921704 C29.76503309 136.62299751 30.04058559 134.78435765 32.05978012 132.04255295 C35.20738226 129.82572394 37.49353751 130.09020409 41.25 130.5 C44.25 132.5 44.25 132.5 45.25 135.5 C45.36955881 138.0389383 45.43523964 140.55257824 45.45532227 143.0925293 C45.46522186 143.86349945 45.47512146 144.6344696 45.48532104 145.42880249 C45.51690956 147.97724333 45.541683 150.52570282 45.56640625 153.07421875 C45.58697806 154.8411355 45.6079746 156.60804736 45.62937927 158.37495422 C45.68457645 163.02572667 45.73399612 167.67654336 45.78222656 172.32739258 C45.83245876 177.07311949 45.88813586 181.81878214 45.94335938 186.56445312 C46.05091216 195.87624719 46.15236356 205.18809705 46.25 214.5 C51.09641963 211.74635248 54.32258435 208.90672052 56.25 203.5 C56.77933704 200.3166661 56.79780346 197.20985487 56.76757812 193.98803711 C56.7745874 193.06030991 56.78159668 192.1325827 56.78881836 191.17674255 C56.80634627 188.12663364 56.79479488 185.0774612 56.78125 182.02734375 C56.78394617 179.89937666 56.78782964 177.77141076 56.79284668 175.64344788 C56.79873449 171.19080844 56.79020081 166.73849064 56.77148438 162.28588867 C56.74868163 156.58387915 56.76183121 150.88262223 56.78577423 145.18064022 C56.80023958 140.78909144 56.79562301 136.39772064 56.78526306 132.00616646 C56.78259855 129.90385409 56.78585582 127.80152547 56.79518127 125.6992321 C56.80536031 122.75990963 56.78982699 119.82180063 56.76757812 116.88256836 C56.77567505 116.01746643 56.78377197 115.1523645 56.79211426 114.26104736 C56.71649947 108.85847212 55.80570101 105.80971274 52.25 101.5 C39.20052679 89.31636861 11.89186384 88.73184005 -4.98046875 89.2109375 C-20.00862738 89.95314579 -39.65953201 91.71838935 -51.75 101.5 Z " fill="#000000" transform="translate(255.75,171.5)"/>
</svg>
