<?xml version="1.0" encoding="UTF-8"?>
<svg version="1.1" xmlns="http://www.w3.org/2000/svg" width="512" height="512">
<path d="M0 0 C7.90433445 6.2575981 9.39195119 12.14018428 10.59423828 21.69799805 C10.75826641 23.17698949 10.91679637 24.65659926 11.0703125 26.13671875 C11.15626678 26.93100784 11.24222107 27.72529694 11.33078003 28.5436554 C11.50957802 30.20633358 11.68591559 31.86927809 11.85986328 33.5324707 C12.12550182 36.06728859 12.40005023 38.60102776 12.67578125 41.13476562 C12.8494836 42.76036063 13.02267836 44.38600996 13.1953125 46.01171875 C13.27653351 46.76184738 13.35775452 47.51197601 13.44143677 48.28483582 C14.59100275 59.38999542 14.59100275 59.38999542 12.875 62.25 C10.15781176 63.88031294 8.10347254 63.70515665 5 63.375 C-0.08930098 58.28569902 0.81056272 46.87183903 0.0703125 39.80859375 C-0.00745422 39.07468414 -0.08522095 38.34077454 -0.16534424 37.58462524 C-0.81264621 31.45892815 -0.81264621 31.45892815 -1.09912109 28.48901367 C-1.31821594 26.2393706 -1.55945962 23.99301821 -1.8046875 21.74609375 C-1.8955513 20.72267128 -1.8955513 20.72267128 -1.98825073 19.67857361 C-2.35943276 16.44670017 -2.87264224 14.54119772 -4.86767578 11.93774414 C-8.00917138 9.63539547 -10.18103995 9.98663118 -14 10.375 C-19.46865365 11.38927866 -19.46865365 11.38927866 -23 15.375 C-23.02975337 18.11521563 -22.94171201 20.71675797 -22.73614502 23.44046021 C-22.68306852 24.24185901 -22.62999201 25.04325781 -22.57530713 25.86894143 C-21.98509121 34.37452743 -21.12779029 42.85092583 -20.22167969 51.32763672 C-20.04213556 53.03803209 -19.8629211 54.74846209 -19.68400574 56.45892334 C-19.10343695 61.99157559 -18.5131946 67.52317553 -17.921875 73.0546875 C-17.71734872 74.97202465 -17.51284295 76.88936399 -17.30835724 78.80670547 C-16.45793993 86.77372525 -15.60498071 94.7404655 -14.74505234 102.70646477 C-13.51757956 114.07792912 -12.30566014 125.45080987 -11.11492038 136.82618129 C-10.27284418 144.85883547 -9.4135852 152.88953785 -8.54139829 160.91897786 C-8.02204754 165.70428194 -7.51025393 170.49011331 -7.01680756 175.27816391 C-6.55380096 179.76706026 -6.06960143 184.2531587 -5.56887245 188.73799896 C-5.38890247 190.38352141 -5.21666272 192.02991031 -5.05270195 193.67710495 C-4.82785928 195.92405576 -4.57545084 198.16623128 -4.31585693 200.40939331 C-4.18165218 201.66546324 -4.04744743 202.92153316 -3.90917587 204.21566582 C-2.79267602 208.09543896 -1.16594867 209.0205678 2 211.375 C1.9375 215.0625 1.9375 215.0625 1 218.375 C-2.84003234 220.29501617 -7.98194941 219.62207813 -12.25976562 219.62890625 C-16.62102548 219.76463751 -18.49008879 219.98130415 -22.05078125 222.73046875 C-24.88069867 226.56985571 -24.29839168 229.16690154 -23.6875 233.6875 C-23.460625 234.244375 -23.23375 234.80125 -23 235.375 C-19.57352459 236.51715847 -16.94790464 236.50393801 -13.33261204 236.50922108 C-12.30606286 236.51274942 -12.30606286 236.51274942 -11.25877532 236.51634905 C-8.94875133 236.52304481 -6.63878351 236.52258065 -4.32875061 236.52217102 C-2.66259199 236.52546926 -0.99643418 236.52919475 0.66972262 236.5333125 C5.26145914 236.5433447 9.85318259 236.54705123 14.44492853 236.54970181 C19.39183445 236.55360111 24.33872997 236.56317954 29.28562927 236.57191467 C41.2370376 236.59168711 53.18844679 236.60174516 65.1398674 236.61064246 C70.76338163 236.61502309 76.38689492 236.62039039 82.0104084 236.62563133 C100.69504444 236.64264251 119.37967988 236.65713861 138.06432247 236.66438007 C142.91421955 236.66629006 147.76411662 236.66821038 152.61401367 236.67016602 C153.81947629 236.67064976 155.02493891 236.6711335 156.26693071 236.6716319 C175.81237644 236.67993944 195.35776112 236.70528907 214.90318017 236.73774669 C234.95423574 236.7707736 255.00526022 236.78882477 275.05634314 236.79202431 C286.32080818 236.7941932 297.58518412 236.80299731 308.84962273 236.82848549 C318.43882142 236.85013267 328.02790938 236.85827242 337.61712974 236.84851871 C342.51280189 236.84395691 347.40824526 236.84596883 352.30388641 236.86528015 C356.78151403 236.88279075 361.25874391 236.88201354 365.73637504 236.86638286 C367.36017292 236.86398828 368.98399748 236.86842516 370.60775434 236.88021151 C372.80791683 236.89519849 375.00664573 236.88575198 377.2067709 236.86998463 C379.04293741 236.87144984 379.04293741 236.87144984 380.91619819 236.87294465 C384.61168881 236.27622998 385.7901167 235.34872035 388 232.375 C388.6960228 229.1124658 388.6960228 229.1124658 388.75 225.625 C388.80671875 224.45453125 388.8634375 223.2840625 388.921875 222.078125 C388.94765625 221.18609375 388.9734375 220.2940625 389 219.375 C388.04996094 219.40980469 387.09992188 219.44460938 386.12109375 219.48046875 C383 219.375 383 219.375 381.0625 217.6875 C379.71766375 214.76050346 379.96884338 213.38915011 381 210.375 C383.37160148 208.00339852 384.00621122 208.05516648 387.25 208 C391.85353655 208.09637033 394.45178509 209.34603606 398 212.375 C400.88935104 216.70902657 400.36807667 220.58847102 400.375 225.6875 C400.39949219 226.62529297 400.42398437 227.56308594 400.44921875 228.52929688 C400.4778712 235.30560141 399.23356465 239.04656303 394.40234375 244.01953125 C389.5007581 247.92772887 386.42691814 248.50040478 380.25008106 248.51201439 C379.55678309 248.51466622 378.86348512 248.51731804 378.14917812 248.52005023 C375.80873321 248.52775504 373.46834067 248.52830285 371.12788391 248.52890015 C369.43982711 248.53291399 367.75177126 248.53735208 366.06371659 248.5421797 C361.41129498 248.55415972 356.75888374 248.55979695 352.10644972 248.56436086 C347.09402574 248.57031149 342.08161421 248.58192264 337.06919861 248.59265137 C324.9575923 248.61718698 312.84598186 248.63180384 300.73435834 248.64471143 C297.31469852 248.6484224 293.89503912 248.6523957 290.47537971 248.6564641 C269.24892979 248.68169866 248.02247925 248.70375615 226.79601765 248.71619225 C221.87809052 248.71912204 216.96016341 248.72208369 212.04223633 248.72509766 C210.81987926 248.72584371 209.59752219 248.72658976 208.338124 248.72735842 C188.53023831 248.74001597 168.72244231 248.77324384 148.91459856 248.81489949 C128.58780129 248.85729683 108.26104996 248.8808847 87.93420857 248.88611281 C76.51756885 248.88952932 65.1010693 248.90131295 53.68447304 248.93421555 C43.96289044 248.96218689 34.24147675 248.97322816 24.51985703 248.96202008 C19.55883232 248.95682608 14.59816148 248.95976848 9.63718796 248.98448563 C5.09513481 249.00692691 0.55369079 249.00627821 -3.98837266 248.98728175 C-5.63108766 248.98447455 -7.27384352 248.99012023 -8.91649266 249.00509469 C-25.1050563 249.14364143 -25.1050563 249.14364143 -31 243.375 C-36.25640112 236.63602421 -36.73964196 230.70125518 -36 222.375 C-34.46728311 216.72426061 -31.51154415 213.45719493 -26.68359375 210.28515625 C-22.76579157 208.16717967 -19.36260231 208.29268675 -15 208.375 C-15.08832596 207.59703568 -15.17665192 206.81907135 -15.26765442 206.01753235 C-17.96299844 182.26566343 -20.63238039 158.51092415 -23.28686523 134.75445557 C-23.77203605 130.41286838 -24.25794336 126.07136444 -24.74438477 121.72991943 C-26.1530688 109.15469884 -27.55510564 96.57877783 -28.94293499 84.00123692 C-29.56138175 78.39742954 -30.18271927 72.79398043 -30.81143188 67.1913147 C-31.40879724 61.86651608 -31.99761784 56.54083723 -32.58028412 51.21441078 C-32.79610989 49.25443682 -33.01485998 47.29478211 -33.23688507 45.33550072 C-34.2488804 36.38997841 -35.1882397 27.45362317 -35.38061523 18.44726562 C-35.40816391 17.21995728 -35.43571259 15.99264893 -35.46409607 14.72814941 C-34.72570591 9.39319252 -31.9749664 6.3499664 -28.25 2.625 C-20.88872116 -2.47126997 -8.18582146 -4.29889967 0 0 Z " fill="#000000" transform="translate(68,225.625)"/>
<path d="M0 0 C0.80598633 0.19787109 1.61197266 0.39574219 2.44238281 0.59960938 C10.80150749 2.72114492 18.79307959 5.10783079 26 10 C26.886875 10.556875 27.77375 11.11375 28.6875 11.6875 C35.43346225 18.43346225 38.9419445 26.56413289 39.02734375 36.03125 C38.42912637 48.9159321 34.312126 61.687874 25 71 C22.1875 71.625 22.1875 71.625 19 71 C14.40976302 66.15986473 12.2556946 59.14960314 10 53 C9.34 53 8.68 53 8 53 C6.26598805 54.77794806 4.62479401 56.56434462 3 58.4375 C-2.61605763 64.86387452 -2.61605763 64.86387452 -7.8125 65.375 C-11.25911092 65.32495846 -11.93588686 65.04738798 -14.875 62.875 C-18.05743019 58.56935915 -19 55.33317876 -19 50 C-24.86796947 52.93398473 -29.22218423 57.90032144 -33.55078125 62.73046875 C-35 64 -35 64 -38.0625 64.3125 C-41 64 -41 64 -43 62 C-43.5625 58.8125 -43.5625 58.8125 -43 55 C-40.96968724 52.31382778 -38.53086594 50.20584947 -36 48 C-35.21625 47.175 -34.4325 46.35 -33.625 45.5 C-28.91289639 41.01228227 -24.49704752 36.83234917 -18.25 34.75 C-15 35 -15 35 -12.1875 37 C-8.87916808 41.53714092 -8 45.43293675 -8 51 C-4.0208643 47.75172596 -0.70372321 44.69266692 2.4375 40.625 C4.25969748 38.49159576 5.37149276 37.21030357 8.04296875 36.31640625 C11.65024383 36.09306652 13.84175427 36.89450285 16.8125 38.875 C19.69649444 42.99499206 20.84095917 47.14710546 22 52 C22.66 52 23.32 52 24 52 C26.52400432 44.1124865 27.72720837 34.87609006 24.91796875 26.9453125 C20.3954584 20.00035771 14.74809261 16.99203228 6.9375 14.75 C6.10621582 14.50185547 5.27493164 14.25371094 4.41845703 13.99804688 C-10.78542741 9.48459498 -10.78542741 9.48459498 -26 12 C-28.95818785 13.72241991 -31.47200706 15.69791282 -34 18 C-34.52335937 18.46921875 -35.04671875 18.9384375 -35.5859375 19.421875 C-45.69392138 29.79726586 -50.87868234 47.98352928 -52 62 C-51.48050781 62.23074219 -50.96101563 62.46148437 -50.42578125 62.69921875 C-45.76447509 64.87909021 -42.44495881 67.07657468 -39 71 C-38.29875 71.7425 -37.5975 72.485 -36.875 73.25 C-32.60510025 79.51251964 -31.04065883 86.49380352 -32 94 C-34.05214306 102.96697295 -38.44760739 109.72111115 -46 115 C-52.64473473 118.98684084 -60.49819594 118.90089005 -68 118 C-77.56213463 114.92238581 -83.30259305 108.636002 -88 100 C-90.32264071 93.03207788 -90.21538224 83.54986578 -87.09375 76.80078125 C-82.68524393 69.5424909 -77.12944673 64.71852881 -69 62 C-66.1953125 61.875 -66.1953125 61.875 -64 62 C-63.97421875 61.45214844 -63.9484375 60.90429688 -63.921875 60.33984375 C-62.52031198 40.74981516 -55.02225049 21.80840354 -41 8 C-60.18193116 9.68881654 -78.05026312 14.68365112 -91.73828125 29.12109375 C-99.69463638 39.24861315 -102.79985938 50.60221005 -103.9362793 63.23608398 C-105.62052638 81.76542331 -110.1636017 97.95718869 -117.23120117 115.09301758 C-122.7678236 128.58084124 -125.48032893 141.00205142 -120 155 C-117.24182844 159.97077072 -113.26635047 162.22454719 -108 164 C-105.28542571 164.63131201 -102.58142374 165.00849729 -99.8125 165.3125 C-99.0692749 165.39443604 -98.3260498 165.47637207 -97.56030273 165.56079102 C-87.64489458 166.49233244 -77.1388621 165.27438174 -69 159 C-66.25545128 153.6723466 -66.71983451 148.4919983 -67.37109375 142.69921875 C-67.49613281 141.54035156 -67.62117188 140.38148438 -67.75 139.1875 C-67.95882812 137.53814453 -67.95882812 137.53814453 -68.171875 135.85546875 C-68 133 -68 133 -66.2109375 131.11328125 C-64 130 -64 130 -60.875 130 C-58 131 -58 131 -56.6875 133.1875 C-54.28730191 143.00649218 -52.71333772 154.92746747 -57.68359375 164.140625 C-63.7116911 172.65508892 -73.4339323 175.96745572 -83.390625 177.68359375 C-95.35765706 179.13468596 -111.88998568 178.38717674 -122 171 C-129.72262391 164.7323632 -133.88758391 156.86067593 -135 147 C-135.85728176 131.869729 -133.08138204 120.21558125 -127.05810547 106.35791016 C-121.59401532 93.63694348 -117.7357269 80.27810374 -116.6171875 66.4453125 C-115.32193748 50.65181581 -112.80179073 36.96297432 -103 24 C-102.46632812 23.28457031 -101.93265625 22.56914063 -101.3828125 21.83203125 C-77.5626355 -7.62976661 -33.6304463 -8.25824619 0 0 Z M-72.8125 76.75 C-76.53975952 80.58375265 -78.14205844 84.76561155 -78.375 90.0625 C-77.71056476 97.03907001 -74.90807383 100.46496463 -69.71875 104.80078125 C-65.85601983 107.49591344 -61.53170692 107.58160944 -57 107 C-51.81753335 105.27563497 -47.73361866 102.83640224 -45 98 C-43.03546103 92.34095492 -42.25936688 87.37007756 -44.83203125 81.8203125 C-47.94544573 76.96796753 -51.89499894 74.01696921 -57.4375 72.4375 C-63.51867215 71.41188494 -67.74545278 73.59717062 -72.8125 76.75 Z " fill="#000000" transform="translate(221,75)"/>
<path d="M0 0 C1.03743347 -0.0071553 2.07486694 -0.01431061 3.14373779 -0.02168274 C4.28661255 -0.02437164 5.4294873 -0.02706055 6.60699463 -0.02983093 C7.80709167 -0.03640213 9.00718872 -0.04297333 10.24365234 -0.04974365 C14.22967779 -0.06951359 18.21566296 -0.08114774 22.20172119 -0.09111023 C23.57416046 -0.09515778 24.94659953 -0.0992747 26.31903839 -0.10346031 C32.76791888 -0.12251472 39.21678791 -0.13674427 45.66569114 -0.14507228 C53.10733205 -0.15484106 60.54867523 -0.18114976 67.99021125 -0.22157317 C73.74316653 -0.25175017 79.49603656 -0.26654271 85.24906945 -0.26985329 C88.68444794 -0.27220236 92.11950844 -0.28114309 95.55480194 -0.30631447 C99.39000433 -0.3339614 103.22481634 -0.32975917 107.06011963 -0.32279968 C108.76228638 -0.34201477 108.76228638 -0.34201477 110.49884033 -0.36161804 C116.63585887 -0.32098315 120.51918855 -0.13236423 125.09234619 4.14717102 C127.84984369 8.22341206 127.72265584 12.39565873 127.09234619 17.14717102 C125.94609684 20.93914408 124.37066084 24.48777466 122.73687744 28.09248352 C122.2837468 29.12780212 121.83061615 30.16312073 121.36375427 31.22981262 C119.89219426 34.58398013 118.39849984 37.92779199 116.90484619 41.27217102 C115.88280916 43.59345815 114.86263588 45.91556673 113.84429932 48.23847961 C111.83694796 52.81596299 109.82349996 57.39068011 107.8057251 61.96357727 C104.47599412 69.52885952 101.26332671 77.13929588 98.09234619 84.77217102 C97.60032715 85.94779602 97.10830811 87.12342102 96.60137939 88.33467102 C94.1607905 94.16660193 91.73769613 100.00518992 89.33282471 105.85191345 C88.06846666 108.91848051 86.79397151 111.9807739 85.51763916 115.04237366 C84.90919786 116.50861284 84.30522146 117.97671421 83.70611572 119.4467926 C82.87741794 121.4794198 82.03350553 123.50509973 81.18609619 125.52998352 C80.70849854 126.68901184 80.23090088 127.84804016 79.73883057 129.04219055 C77.64923736 132.98279649 75.13559555 136.12554634 71.09234619 138.14717102 C69.18095819 138.2971727 67.2645545 138.38454517 65.34820557 138.44380188 C64.11203491 138.48284134 62.87586426 138.5218808 61.60223389 138.56210327 C60.21353391 138.60003755 58.82482071 138.63749001 57.43609619 138.67451477 C56.7198558 138.69493269 56.00361542 138.71535061 55.26567078 138.73638725 C33.71319911 139.34681813 12.15169082 139.51162638 -9.40765381 139.70967102 C-11.00540838 139.72451853 -11.00540838 139.72451853 -12.63544083 139.73966599 C-22.26694335 139.82906825 -31.89845977 139.91663057 -41.53004456 139.99673462 C-51.06575331 140.07613851 -60.60117217 140.1609044 -70.13646889 140.28052616 C-75.4460197 140.34670093 -80.7555454 140.39537952 -86.06536865 140.43327332 C-88.06267438 140.4506753 -90.05993414 140.47486997 -92.05706787 140.5063324 C-94.70933593 140.54707265 -97.36058797 140.56357374 -100.01312256 140.57295227 C-100.74584885 140.59041504 -101.47857513 140.60787781 -102.23350525 140.62586975 C-107.24216101 140.60437999 -110.06243891 139.3046065 -113.90765381 136.14717102 C-118.04490434 129.94129522 -117.50300026 122.44863773 -116.22015381 115.33467102 C-114.45512365 111.04816922 -111.98422224 109.18545524 -107.90765381 107.14717102 C-103.6429848 106.91290706 -99.37452124 106.91879457 -95.10418701 106.90693665 C-92.98163779 106.89722357 -90.86005413 106.86619675 -88.73773193 106.83467102 C-87.38943039 106.82814147 -86.04112193 106.82289081 -84.69281006 106.81904602 C-83.46441406 106.80970032 -82.23601807 106.80035461 -80.97039795 106.79072571 C-77.90765381 107.14717102 -77.90765381 107.14717102 -75.97186279 108.44111633 C-74.90765381 110.14717102 -74.90765381 110.14717102 -75.09515381 113.77217102 C-75.36327881 114.88592102 -75.63140381 115.99967102 -75.90765381 117.14717102 C-78.67382944 118.53025883 -80.91783381 118.25927298 -84.00921631 118.24482727 C-85.22093506 118.24160461 -86.43265381 118.23838196 -87.68109131 118.23506165 C-88.95210693 118.22668274 -90.22312256 118.21830383 -91.53265381 118.20967102 C-92.81140381 118.2051593 -94.09015381 118.20064758 -95.40765381 118.19599915 C-98.57436673 118.18418305 -101.74098736 118.16770917 -104.90765381 118.14717102 C-104.90765381 121.77717102 -104.90765381 125.40717102 -104.90765381 129.14717102 C-90.05765381 129.14717102 -75.20765381 129.14717102 -59.90765381 129.14717102 C-59.90765381 126.83717102 -59.90765381 124.52717102 -59.90765381 122.14717102 C-59.35647583 120.015625 -59.35647583 120.015625 -58.5692749 118.22016907 C-58.27354584 117.52823456 -57.97781677 116.83630005 -57.67312622 116.12339783 C-57.3457547 115.39261017 -57.01838318 114.66182251 -56.68109131 113.90888977 C-56.34203766 113.12396149 -56.00298401 112.3390332 -55.65365601 111.53031921 C-54.92270896 109.84178498 -54.18605919 108.15571008 -53.4442749 106.47190857 C-51.86092073 102.87720708 -50.30554734 99.27061676 -48.74829102 95.66455078 C-47.95116892 93.81946389 -47.15261689 91.97499413 -46.35266113 90.13113403 C-43.05904893 82.53363676 -39.86938684 74.89738559 -36.73532104 67.2328949 C-35.90581469 65.20517532 -35.07308133 63.17880939 -34.23944092 61.15278625 C-31.33939037 54.10047256 -28.45728304 47.04113752 -25.59158325 39.97479248 C-24.05942604 36.2031 -22.51833602 32.43509357 -20.97576904 28.66764832 C-20.22923555 26.83833094 -19.48664044 25.00740077 -18.74822998 23.17478943 C-17.71626515 20.61452569 -16.67085903 18.06013124 -15.62249756 15.50654602 C-15.17014992 14.36979683 -15.17014992 14.36979683 -14.70866394 13.21008301 C-11.70466554 5.96817037 -8.47278978 0.04001882 0 0 Z M-0.90765381 11.14717102 C-8.06391714 27.84511878 -15.19542703 44.53265519 -22.09515381 61.33467102 C-23.71795903 65.2829553 -25.34171378 69.23084765 -26.96624756 73.17842102 C-27.37190948 74.16456894 -27.77757141 75.15071686 -28.19552612 76.16674805 C-31.07837086 83.16384377 -34.00242884 90.14283763 -36.94281006 97.11592102 C-38.13279293 99.94776821 -39.32205542 102.7799168 -40.51107788 105.61216736 C-41.27198683 107.41891853 -42.03626101 109.22425633 -42.8039856 111.02812195 C-43.86263463 113.51615777 -44.90975237 116.00875383 -45.95452881 118.50263977 C-46.2712001 119.23788879 -46.5878714 119.97313782 -46.91413879 120.73066711 C-48.71647786 124.83807753 -48.71647786 124.83807753 -47.90765381 129.14717102 C-37.63841629 129.03790905 -27.36922543 128.92498701 -17.10007477 128.80783176 C-12.32778037 128.75349285 -7.55547988 128.70025282 -2.78314209 128.64985657 C20.52001364 128.40287938 43.80296174 128.00602163 67.09234619 127.14717102 C70.39204545 120.7134631 73.43000868 114.23121409 76.20953369 107.55732727 C76.58357834 106.66740082 76.95762299 105.77747437 77.34300232 104.86058044 C78.14102465 102.96113889 78.93757729 101.06107927 79.73275757 99.16044617 C81.84193799 94.11931988 83.96186503 89.08271323 86.08062744 84.04560852 C86.50571091 83.03425339 86.93079437 82.02289825 87.36875916 80.980896 C90.94879443 72.4699813 94.57577135 63.97984228 98.2244873 55.4981842 C100.58037772 50.01965323 102.92713129 44.53719639 105.27478027 39.05513 C106.08784983 37.15766422 106.90231799 35.26080286 107.71685791 33.3639679 C109.18353901 29.94094642 110.63973703 26.51368296 112.09234619 23.08467102 C112.52039551 22.090401 112.94844482 21.09613098 113.38946533 20.07173157 C113.76579102 19.17752502 114.1421167 18.28331848 114.52984619 17.36201477 C115.0229126 16.20367126 115.0229126 16.20367126 115.52593994 15.02192688 C116.34610319 13.0823678 116.34610319 13.0823678 115.09234619 11.14717102 C76.81234619 11.14717102 38.53234619 11.14717102 -0.90765381 11.14717102 Z " fill="#000000" transform="translate(352.90765380859375,307.8528289794922)"/>
<path d="M0 0 C3.125 0.25 3.125 0.25 5 1.4375 C6.53573559 3.91174068 6.44247811 5.36729879 6.125 8.25 C4.62109375 10.3984375 4.62109375 10.3984375 2.5625 12.625 C-0.7824607 16.62711227 -3.39008288 20.67428846 -5.625 25.375 C-6.15609375 26.49132812 -6.6871875 27.60765625 -7.234375 28.7578125 C-12.02016548 40.75725776 -13.83303333 53.96347982 -15.78515625 66.6640625 C-16.04072632 68.29251901 -16.29687906 69.92088418 -16.55357361 71.54916382 C-17.08641671 74.93851937 -17.61461659 78.32855076 -18.13891602 81.71923828 C-18.80028867 85.99613504 -19.46983009 90.27169883 -20.14229774 94.54686356 C-21.53357905 103.39304679 -22.90105594 112.24258352 -24.24346924 121.09631348 C-24.6372133 123.69312869 -25.03654164 126.28882842 -25.44012451 128.88415527 C-25.9091626 131.90799595 -26.36213682 134.93369442 -26.80859375 137.9609375 C-26.9373439 138.77092194 -27.06609406 139.58090637 -27.19874573 140.41543579 C-28.39787014 148.85398446 -28.01492742 157.01610168 -24.10546875 164.69140625 C-22.52132794 166.69798461 -21.25492702 167.29826654 -18.875 168.25 C-16.05639985 168.5457401 -16.05639985 168.5457401 -12.92456055 168.49291992 C-11.10811539 168.49746689 -11.10811539 168.49746689 -9.25497437 168.50210571 C-7.27831284 168.49139542 -7.27831284 168.49139542 -5.26171875 168.48046875 C-3.86959863 168.47965355 -2.47747785 168.47961943 -1.08535767 168.48031616 C2.64977677 168.47926699 6.38474956 168.46499588 10.11983871 168.44743729 C12.43240235 168.43752186 14.74494646 168.43122843 17.05752563 168.42623901 C36.97823652 168.3828471 56.89556772 168.22024255 76.8125 167.8125 C77.81221832 167.79303314 78.81193665 167.77356628 79.84194946 167.75350952 C82.60706281 167.69745 85.37186163 167.63382437 88.13671875 167.56640625 C89.34731461 167.54131485 89.34731461 167.54131485 90.58236694 167.51571655 C94.15209869 167.73751715 94.15209869 167.73751715 97.125 166.25 C97.14193598 163.87192202 97.09630138 161.52689337 97.00390625 159.15234375 C96.98029526 158.44348526 96.95668427 157.73462677 96.93235779 157.00428772 C96.85555354 154.73182979 96.77160225 152.45969843 96.6875 150.1875 C96.63429604 148.65040681 96.58155554 147.1132975 96.52929688 145.57617188 C96.39991595 141.80057297 96.2641231 138.02525197 96.125 134.25 C92.93817165 133.25674055 90.49517078 133.26876415 87.19555664 133.68725586 C85.72736229 133.86755592 85.72736229 133.86755592 84.22950745 134.05149841 C83.17537155 134.18790237 82.12123566 134.32430634 81.03515625 134.46484375 C79.93964951 134.59943497 78.84414276 134.73402618 77.71543884 134.87269592 C73.0340665 135.44793318 68.35485238 136.03988693 63.67553711 136.6315918 C60.25451445 137.0616536 56.83240992 137.48220772 53.41015625 137.90234375 C52.37423843 138.03672348 51.33832062 138.17110321 50.27101135 138.30955505 C42.95501395 139.20557883 35.48696324 139.93529773 28.125 139.25 C26.125 137.25 26.125 137.25 25.75 134.3125 C26.125 131.25 26.125 131.25 27.79048157 129.62004089 C30.56737226 127.99038839 32.65747572 127.63835627 35.85229492 127.2668457 C37.00416794 127.12692703 38.15604095 126.98700836 39.34281921 126.84284973 C40.58449356 126.70521713 41.82616791 126.56758453 43.10546875 126.42578125 C44.38803055 126.27465378 45.67059235 126.12352631 46.99201965 125.96781921 C49.70715628 125.648536 52.42306649 125.33752599 55.13989258 125.03295898 C58.59978054 124.64490388 62.05766126 124.24160083 65.51513195 123.83262348 C68.83620815 123.44085267 72.1583224 123.05837664 75.48046875 122.67578125 C77.32779854 122.46022331 77.32779854 122.46022331 79.21244812 122.24031067 C98.20310399 120.11844464 98.20310399 120.11844464 104.125 124.25 C107.58010758 128.6213792 108.66215891 131.64771933 108.875 137.1875 C108.90174805 137.85700684 108.92849609 138.52651367 108.95605469 139.21630859 C109.03698993 141.56080271 109.08165709 143.90451667 109.125 146.25 C109.15078125 147.20438965 109.1765625 148.1587793 109.203125 149.14208984 C109.28177427 152.2197341 109.33302805 155.29665025 109.375 158.375 C109.3965918 159.35847412 109.41818359 160.34194824 109.44042969 161.35522461 C109.4643183 166.69938189 109.36857946 170.7662284 106.125 175.25 C101.64739708 178.84865982 98.15472572 179.84639794 92.53491211 179.84838867 C91.79654932 179.86412996 91.05818653 179.87987125 90.29744911 179.89608955 C87.85315139 179.94316127 85.40951289 179.96212644 82.96484375 179.98046875 C81.22596462 180.00717585 79.48710792 180.03537966 77.74827576 180.06498718 C73.14006801 180.13770624 68.531961 180.18471539 63.92336273 180.2243576 C61.17499771 180.24954185 58.42679403 180.28126787 55.67852783 180.31549072 C44.83922401 180.44923882 34.00097212 180.5213448 23.16088867 180.54516602 C19.45630409 180.55421657 15.75207173 180.57560047 12.04760742 180.60668945 C7.46385789 180.64511933 2.8804268 180.66391988 -1.70347786 180.66844749 C-3.41899925 180.67327692 -5.1345169 180.68478496 -6.84994316 180.70348549 C-24.26074531 180.88258737 -24.26074531 180.88258737 -31.86328125 174.609375 C-39.56210755 165.25268935 -40.32641246 155.03393328 -39.875 143.25 C-39.37888627 138.44174049 -38.6505663 133.68043494 -37.8984375 128.90625 C-37.68984457 127.54091373 -37.48200255 126.17546255 -37.27485657 124.80990601 C-36.7244282 121.19772074 -36.1627025 117.58738736 -35.59780502 113.97743988 C-35.13141687 110.99056074 -34.67060011 108.00283209 -34.20963573 105.01511192 C-33.08132112 97.70403801 -31.94060175 90.39497065 -30.79123211 83.08717918 C-30.1527494 79.02611737 -29.51994878 74.96423514 -28.89306641 70.90136719 C-28.24310933 66.69109779 -27.58191556 62.48284191 -26.90631104 58.27661133 C-26.68255407 56.87631302 -26.46227674 55.47545278 -26.24603271 54.07397461 C-24.18440422 40.78618305 -16.71308891 1.45331208 0 0 Z " fill="#000000" transform="translate(112.875,259.75)"/>
<path d="M0 0 C11.88806402 8.9389449 21.332953 21.8460389 23.9765625 36.7265625 C25.56897376 52.44846415 22.91581884 67.79431809 12.73828125 80.33203125 C7.32086234 86.6359546 1.38788263 91.89831995 -5.77734375 96.15625 C-6.92589844 96.84460938 -6.92589844 96.84460938 -8.09765625 97.546875 C-16.87033363 102.35302828 -26.79478808 104.66915641 -36.65234375 105.96875 C-41.71693597 106.81408457 -44.30989398 108.9235238 -48.140625 112.2109375 C-56.05966939 118.05343247 -67.87795401 123.10377974 -77.77734375 123.15625 C-81.58996642 121.67788611 -82.50329985 120.56731585 -84.77734375 117.15625 C-84.50195951 113.36971676 -83.91989568 109.81502549 -83.1171875 106.10546875 C-82.90191406 105.04972656 -82.68664062 103.99398437 -82.46484375 102.90625 C-82.24183594 101.91109375 -82.01882813 100.9159375 -81.7890625 99.890625 C-81.49580002 97.06515303 -81.49580002 97.06515303 -83.4375 95.01953125 C-85.76918258 93.16274896 -88.12822444 91.36252746 -90.52734375 89.59375 C-100.82782481 81.41707947 -108.45113141 69.16215186 -110.77734375 56.15625 C-112.35487027 39.58873911 -109.49056196 25.90733862 -99.77734375 12.15625 C-93.74567523 4.96147817 -86.90708976 -0.2282321 -78.77734375 -4.84375 C-78.14699219 -5.23175781 -77.51664062 -5.61976562 -76.8671875 -6.01953125 C-53.32632491 -19.41971457 -21.64488175 -14.36903543 0 0 Z M-91.65625 20.34375 C-98.62541505 29.84556902 -101.15289279 41.55625916 -99.77734375 53.15625 C-96.82286505 67.17691224 -87.91667614 78.16087002 -76.40234375 86.34375 C-73.23752585 88.65841093 -71.53896946 90.15771501 -70.77734375 94.15625 C-70.5087123 99.61842272 -71.0050815 104.75041423 -71.77734375 110.15625 C-63.7096083 107.81031274 -56.59046332 104.73034432 -50.33984375 99.03125 C-45.65386789 95.34807297 -40.42753986 95.05974478 -34.70117188 94.26025391 C-19.79094103 92.11315616 -6.58042116 85.46277422 3.21484375 73.89453125 C10.80270068 63.54611159 14.20070963 52.9107471 12.75 40.1640625 C10.4816403 27.22601087 3.47363373 16.76726225 -7.01953125 8.9375 C-34.67590312 -8.92553906 -70.01750981 -4.84896208 -91.65625 20.34375 Z " fill="#000000" transform="translate(403.77734375,50.84375)"/>
<path d="M0 0 C17.44292032 9.96325747 30.5304041 26.60970279 35.875 46 C37.32733307 52.59341395 37.71122393 59.26853014 38 66 C40.76094035 63.53848849 42.34016346 60.85790095 44.109375 57.625 C44.69976562 56.55636719 45.29015625 55.48773438 45.8984375 54.38671875 C46.50945312 53.26910156 47.12046875 52.15148437 47.75 51 C61.49443695 25.92086504 61.49443695 25.92086504 68 23 C77.96190654 20.20367536 88.15142952 25.11478171 96.91015625 29.78515625 C102.00133256 32.74469986 105.0451967 35.34135887 107 41 C108.18263631 47.76467968 106.69933059 53.51620661 104.3503418 59.8527832 C104.0818703 60.59422986 103.8133988 61.33567652 103.5367918 62.09959126 C102.69968026 64.40294171 101.8513756 66.70188787 101 69 C100.74459568 69.69338345 100.48919136 70.38676689 100.22604752 71.10116196 C98.44867262 75.92290422 96.6438185 80.73406969 94.83203125 85.54296875 C94.26480928 87.0512732 93.69764647 88.5595999 93.13053894 90.06794739 C91.95617141 93.19004832 90.78042069 96.31162405 89.60375977 99.43286133 C88.10085865 103.42013323 86.60260005 107.4091327 85.10545826 111.39857006 C83.94180169 114.49727402 82.77518601 117.59485765 81.60773277 120.69213295 C81.05373669 122.16326404 80.50077131 123.63478373 79.94889259 125.10671043 C79.17970946 127.15719874 78.4064051 129.20608753 77.63208008 131.25463867 C77.19495193 132.41581711 76.75782379 133.57699554 76.30744934 134.77336121 C72.77928481 143.48047679 72.77928481 143.48047679 69 146 C65.67759676 145.6758631 64.39223697 145.39223697 62 143 C61.2975286 137.45528593 63.20584237 133.03696162 65.19140625 127.9765625 C65.52845078 127.09392227 65.8654953 126.21128204 66.2127533 125.30189514 C66.94100518 123.39834352 67.67379654 121.49652363 68.41064453 119.59628296 C69.57219004 116.60000394 70.72134183 113.59923891 71.8671875 110.59692383 C73.44878393 106.4559393 75.03485284 102.31672022 76.62548828 98.17919922 C79.94084954 89.55438764 83.24378105 80.92503873 86.51437378 72.28314209 C87.48224091 69.73426847 88.46072412 67.18964399 89.43969727 64.64501953 C90.03327385 63.0799645 90.62632097 61.51470853 91.21875 59.94921875 C91.4877562 59.25836685 91.75676239 58.56751495 92.03392029 57.85572815 C93.76951834 53.22259909 94.7323062 48.95747688 95 44 C91.97320875 40.58985334 88.23060655 38.98805215 84.0625 37.25 C83.06347656 36.82203125 82.06445312 36.3940625 81.03515625 35.953125 C76.57237938 34.49974578 76.57237938 34.49974578 72 35 C69.49647567 37.69616713 67.79441506 40.80366292 66 44 C65.45375977 44.94939453 64.90751953 45.89878906 64.34472656 46.87695312 C62.57801802 49.9870858 60.84870049 53.11584821 59.125 56.25 C51.01237625 70.85101416 51.01237625 70.85101416 47.3125 76.9375 C46.73113281 77.89527344 46.14976562 78.85304688 45.55078125 79.83984375 C44 82 44 82 41 84 C37.625 84.4375 37.625 84.4375 34 84 C29.9705318 80.8759629 28.42366173 78.32855928 27.64672852 73.27758789 C27.55705811 72.56723389 27.4673877 71.85687988 27.375 71.125 C27.14328142 69.60526163 26.91018068 68.08573344 26.67578125 66.56640625 C26.56443848 65.80344238 26.4530957 65.04047852 26.33837891 64.25439453 C23.17960475 43.20957448 15.85166233 26.05189492 -1.671875 13.01171875 C-3.75459257 11.62213489 -5.86249998 10.30238373 -8 9 C-9 8 -9 8 -9.3125 5.125 C-9 2 -9 2 -7.3125 0.0625 C-4.33496876 -1.3055549 -3.12232914 -0.89209404 0 0 Z " fill="#000000" transform="translate(228,244)"/>
<path d="M0 0 C7.16900582 4.04437762 10.15505052 10.25323169 12.578125 17.80078125 C15.31653394 32.07600565 11.53646988 44.89687823 4.01953125 57.06640625 C-2.22856429 66.14245993 -9.65177523 72.61682596 -18.55444336 78.94140625 C-22.00522038 81.40306421 -24.49805791 83.54072316 -27 87 C-30.17717433 87.46333792 -32.10124887 87.49286352 -34.9375 85.9375 C-36 84 -36 84 -36.125 80.75 C-34.0028636 73.67621201 -28.39240931 70.21397923 -22.5625 66.0625 C-10.88975892 57.69065702 -2.39084654 47.2816443 1 33 C1.80995027 26.70973683 0.78449453 20.70649496 -2 15 C-3.51910028 13.27627127 -3.51910028 13.27627127 -5 12 C-5.14695312 12.67804688 -5.29390625 13.35609375 -5.4453125 14.0546875 C-8.97604635 28.70520384 -16.54507115 36.67072709 -28.96484375 44.57421875 C-30.85536106 45.89866945 -32.23426897 47.21270263 -33.75 48.9375 C-36 51 -36 51 -38.6875 51 C-41 50 -41 50 -43 47 C-42.71352467 44.66045145 -42.36950465 42.32787927 -42 40 C-41.87800365 38.25226966 -41.79602162 36.50137844 -41.75 34.75 C-41.72421875 33.91984375 -41.6984375 33.0896875 -41.671875 32.234375 C-42.06853763 29.53329138 -42.9157409 28.68934685 -45 27 C-45.23783203 28.52367187 -45.23783203 28.52367187 -45.48046875 30.078125 C-47.48994462 42.21642545 -50.98843489 57.98843489 -60 67 C-62.875 67.3125 -62.875 67.3125 -66 67 C-67.9375 65.375 -67.9375 65.375 -69 63 C-68.61856949 57.69889433 -66.52595544 53.79932631 -64.125 49.1875 C-60.75054713 42.44675587 -58.85920104 36.19961353 -58.01220703 28.7097168 C-57.4145199 23.85543215 -56.0441639 20.82079417 -53 17 C-49.56461687 14.63340273 -47.6812906 13.9878341 -43.5 14.0625 C-38.84757948 15.30868407 -35.44212408 16.7854689 -32.73828125 20.9375 C-31.04703922 24.16569531 -30 26.30856481 -30 30 C-22.64414382 24.81622046 -20.04652244 19.29270008 -17 11 C-13.38093313 2.57793361 -9.71593807 -2.18568722 0 0 Z " fill="#000000" transform="translate(372,186)"/>
<path d="M0 0 C4.23838103 2.38890567 6.18191814 4.79493207 7.875 9.25 C11.22228625 21.34406402 7.52362238 33.28985427 1.796875 44.10546875 C-2.64023637 51.25307641 -8.86555903 58.99674628 -17 62 C-22.0347746 62.8691446 -25.77744476 62.55570693 -30.4375 60.4375 C-35.69463775 55.43680799 -36.22026787 51.04483288 -36.5 44 C-36.19205507 30.45042289 -31.15677287 17.50108497 -21.7265625 7.6171875 C-15.05321935 1.43159701 -9.22447839 -1.38958489 0 0 Z M-14 16 C-21.31174815 25.2198244 -26.13176218 36.11649707 -25 48 C-24.34 48.99 -23.68 49.98 -23 51 C-18.3343087 50.85861542 -15.91095123 48.66613288 -12.84375 45.4375 C-6.94833327 37.64355924 -2.85092621 28.67303419 -2.875 18.875 C-2.87242187 17.82054687 -2.86984375 16.76609375 -2.8671875 15.6796875 C-2.818471 13.02773346 -2.818471 13.02773346 -4 11 C-8.39723972 11 -10.91785024 13.08872918 -14 16 Z " fill="#000000" transform="translate(403,351)"/>
<path d="M0 0 C3.0625 0.1875 3.0625 0.1875 5.0625 2.1875 C5.1875 5.3125 5.1875 5.3125 5.0625 8.1875 C5.97 8.31125 6.8775 8.435 7.8125 8.5625 C10.67246164 9.11249262 12.62239718 9.65113897 15.0625 11.1875 C16.45681504 13.97613007 16.31910094 16.10828868 16.0625 19.1875 C12.11257738 21.82078174 10.69192654 20.92232961 6.0625 20.1875 C2.72722541 20.09512359 -0.60177275 20.12709448 -3.9375 20.1875 C-4.2675 21.5075 -4.5975 22.8275 -4.9375 24.1875 C-3.76832031 24.50203125 -2.59914063 24.8165625 -1.39453125 25.140625 C0.15382152 25.57228698 1.70198903 26.00461386 3.25 26.4375 C4.01892578 26.64246094 4.78785156 26.84742187 5.58007812 27.05859375 C10.20137161 28.36762967 13.55426123 29.73986421 17.0625 33.1875 C19.36777869 37.79805737 19.6753883 42.29224253 18.0625 47.1875 C15.62940113 51.23738118 13.37571788 53.78343296 8.8125 55.1875 C7.45125 55.6825 7.45125 55.6825 6.0625 56.1875 C4.67211255 59.67776242 4.67211255 59.67776242 4.0625 63.1875 C3.0625 64.1875 3.0625 64.1875 0.125 64.375 C-2.9375 64.1875 -2.9375 64.1875 -4.9375 62.1875 C-5.0625 59.0625 -5.0625 59.0625 -4.9375 56.1875 C-6.154375 56.06375 -7.37125 55.94 -8.625 55.8125 C-11.99972086 55.38766812 -14.88229645 54.76139274 -17.9375 53.1875 C-19.31875018 50.42499964 -19.12829306 48.24018901 -18.9375 45.1875 C-16.9375 43.1875 -16.9375 43.1875 -13.4375 43 C-9.9375 43.1875 -9.9375 43.1875 -7.9375 44.1875 C-5.89694995 44.25815617 -3.85415743 44.27171976 -1.8125 44.25 C-0.71679688 44.24097656 0.37890625 44.23195312 1.5078125 44.22265625 C2.35085938 44.21105469 3.19390625 44.19945312 4.0625 44.1875 C4.0625 42.8675 4.0625 41.5475 4.0625 40.1875 C3.04929687 39.94515625 2.03609375 39.7028125 0.9921875 39.453125 C-0.35952833 39.11519604 -1.71108243 38.77661976 -3.0625 38.4375 C-3.72765625 38.28023437 -4.3928125 38.12296875 -5.078125 37.9609375 C-10.30876521 36.62763705 -15.11227241 34.84907107 -18.29296875 30.2109375 C-19.83491755 25.37015277 -19.40825394 20.65514463 -17.875 15.875 C-14.7896816 11.5953648 -10.93516462 9.85338821 -5.9375 8.1875 C-5.19490651 5.87720915 -4.526062 3.541748 -3.9375 1.1875 C-2.9375 0.1875 -2.9375 0.1875 0 0 Z " fill="#000000" transform="translate(359.9375,64.8125)"/>
<path d="M0 0 C3.72022107 3.72022107 3.16006483 8.72387653 3.1875 13.75 C3.10894799 30.87221613 1.446887 50.38748573 -10 64 C-10.53496094 64.64453125 -11.06992188 65.2890625 -11.62109375 65.953125 C-19.44604745 74.55515263 -28.82435736 75.79182242 -40 77 C-39.81308594 77.94101563 -39.62617188 78.88203125 -39.43359375 79.8515625 C-39 83 -39 83 -40.0625 85.375 C-42 87 -42 87 -45 87.5 C-48 87 -48 87 -49.8125 85.1875 C-52.43181468 80.36244665 -52.94613245 75.21316409 -51.3984375 69.95703125 C-49.47085492 65.23542746 -49.47085492 65.23542746 -47 64 C-44.97874548 64.00579987 -42.95751975 64.05412211 -40.9375 64.125 C-33.33115401 64.16697763 -26.20453364 63.1617314 -20.40625 57.75 C-9.85083661 44.61437445 -9.6161861 28.16036335 -9.46557617 12.15405273 C-9.43620972 10.4477771 -9.43620972 10.4477771 -9.40625 8.70703125 C-9.39916016 7.6806958 -9.39207031 6.65436035 -9.38476562 5.59692383 C-9 3 -9 3 -7.66601562 1.1628418 C-5.10733544 -0.62305998 -3.02662439 -0.32198132 0 0 Z " fill="#000000" transform="translate(249,154)"/>
<path d="M0 0 C2.98433159 0.44764974 3.63525287 1.06786443 5.5 3.375 C6.06835938 5.27270508 6.06835938 5.27270508 6.34375 7.39453125 C6.45589844 8.16990234 6.56804687 8.94527344 6.68359375 9.74414062 C6.78800781 10.55044922 6.89242187 11.35675781 7 12.1875 C7.88650733 20.28597038 7.88650733 20.28597038 11.5 27.375 C14.5723364 28.55315794 17.68771929 28.94207228 20.9375 29.375 C30.6161837 30.97958049 39.10595948 33.32597355 46.75 39.875 C48.5 42.375 48.5 42.375 49.0625 45.5 C48.5 48.375 48.5 48.375 46.8125 50.3125 C44.5 51.375 44.5 51.375 42.1875 51.375 C39.5 50.375 39.5 50.375 36.5625 48.0625 C26.68355676 40.55537353 12.24489415 40.19996725 0.3125 39.9453125 C-5.86499708 39.71146403 -5.86499708 39.71146403 -9.05078125 38.0234375 C-10.5 36.375 -10.5 36.375 -11.0625 33.375 C-10.5 30.375 -10.5 30.375 -8.1875 28.5 C-5.5 27.375 -5.5 27.375 -2.5 27.375 C-2.7165625 26.56417969 -2.933125 25.75335938 -3.15625 24.91796875 C-6.77257776 10.53636899 -6.77257776 10.53636899 -5.5 3.375 C-3.68083306 1.00488535 -2.99432697 0.44914905 0 0 Z " fill="#000000" transform="translate(235.5,348.625)"/>
<path d="M0 0 C2.875 0.6875 2.875 0.6875 3.875 1.6875 C4.4375 4.8125 4.4375 4.8125 3.875 8.6875 C-1.29122279 15.45848954 -9.06427796 18.39540076 -17.0625 20.4375 C-18.073125 20.52 -19.08375 20.6025 -20.125 20.6875 C-20.85460937 20.75066406 -21.58421875 20.81382812 -22.3359375 20.87890625 C-35.62576798 21.49750196 -48.7907665 17.45887112 -60.125 10.6875 C-61.125 9.6875 -61.125 9.6875 -61.375 6.8125 C-61.125 3.6875 -61.125 3.6875 -60.0625 1.75 C-56.94478206 0.04028371 -54.38845564 0.74622696 -51.125 1.6875 C-49.09760354 2.48348192 -47.07741342 3.29792835 -45.0625 4.125 C-35.19113109 8.02816196 -24.38921941 10.51212248 -14.125 6.6875 C-11.2932756 5.22081198 -8.70946594 3.54974798 -6.125 1.6875 C-3.125 -0.3125 -3.125 -0.3125 0 0 Z " fill="#000000" transform="translate(208.125,255.3125)"/>
<path d="M0 0 C2.49929791 2.49929791 2.25825638 3.99593839 2.27758789 7.40893555 C2.26848389 8.18148682 2.25937988 8.95403809 2.25 9.75 C2.24540771 10.56186768 2.24081543 11.37373535 2.23608398 12.21020508 C1.62600881 56.37399119 1.62600881 56.37399119 -3 61 C-6.5 61.25 -6.5 61.25 -10 61 C-12 59 -12 59 -12.24145508 56.73876953 C-12.12602247 46.74279717 -11.55910738 36.78487671 -10.88305664 26.8125 C-10.68563845 23.8470372 -10.50787501 20.88075839 -10.33007812 17.9140625 C-10.20433032 16.02335695 -10.07742031 14.13272825 -9.94921875 12.2421875 C-9.87401253 10.91572708 -9.87401253 10.91572708 -9.79728699 9.56246948 C-9.70753349 8.33441086 -9.70753349 8.33441086 -9.6159668 7.08154297 C-9.56933395 6.36352509 -9.52270111 5.6455072 -9.47465515 4.9057312 C-8.20080588 -0.20874886 -4.7219653 -0.50233673 0 0 Z " fill="#000000" transform="translate(152,311)"/>
<path d="M0 0 C2.06332864 2.04598975 3.82841065 3.99439194 5.625 6.25 C6.10195313 6.82363281 6.57890625 7.39726562 7.0703125 7.98828125 C14.10039042 16.56107071 14.10039042 16.56107071 13.8125 20.6875 C13 23 13 23 11 25 C8.125 25.375 8.125 25.375 5 25 C2.875 23.3125 2.875 23.3125 1 21 C-0.00546875 19.76830078 -0.00546875 19.76830078 -1.03125 18.51171875 C-1.6809375 17.68285156 -2.330625 16.85398438 -3 16 C-3.6084375 15.28457031 -4.216875 14.56914062 -4.84375 13.83203125 C-7.39522345 10.72091857 -8.86955316 8.69136824 -9.625 4.6875 C-9 2 -9 2 -7.3125 0.0625 C-4.25015528 -1.34452325 -3.17851402 -1.12371708 0 0 Z " fill="#000000" transform="translate(262,223)"/>
<path d="M0 0 C18.20033482 6.16908482 18.20033482 6.16908482 21.87890625 9.84765625 C22.14478456 12.90525682 22.31300506 15.0560643 20.81640625 17.78515625 C17.72389162 19.48105137 15.28009158 18.50450802 11.87890625 17.84765625 C9.2358905 17.02399388 6.6886192 16.02424173 4.12890625 14.97265625 C3.47019531 14.71613281 2.81148438 14.45960938 2.1328125 14.1953125 C-4.07534951 11.68938098 -4.07534951 11.68938098 -6.12109375 8.84765625 C-6.55859375 5.84765625 -6.55859375 5.84765625 -6.12109375 2.84765625 C-4.04809335 0.77928309 -2.98131824 -0.21412783 0 0 Z " fill="#000000" transform="translate(269.12109375,209.15234375)"/>
<path d="M0 0 C1.24609375 1.7109375 1.24609375 1.7109375 0.93359375 5.3984375 C0.70671875 6.4915625 0.47984375 7.5846875 0.24609375 8.7109375 C-5.5522955 10.3146063 -11.06693815 11.2081748 -17.06640625 11.5859375 C-17.86369141 11.658125 -18.66097656 11.7303125 -19.48242188 11.8046875 C-21.8046875 11.953125 -21.8046875 11.953125 -25.75390625 11.7109375 C-27.80859375 9.8828125 -27.80859375 9.8828125 -28.75390625 7.7109375 C-28.51316603 4.34057439 -28.16592604 3.12295729 -25.75390625 0.7109375 C-4.75421828 -3.49419161 -4.75421828 -3.49419161 0 0 Z " fill="#000000" transform="translate(293.75390625,192.2890625)"/>
</svg>
