<?xml version="1.0" encoding="UTF-8"?>
<svg version="1.1" xmlns="http://www.w3.org/2000/svg" width="280" height="280">
<path d="M0 0 C0.93042618 -0.00426498 1.86085236 -0.00852997 2.81947327 -0.01292419 C4.35593254 -0.01224442 4.35593254 -0.01224442 5.9234314 -0.0115509 C7.00017624 -0.01490952 8.07692108 -0.01826813 9.18629456 -0.02172852 C12.76714212 -0.03127036 16.34794298 -0.03318408 19.92880249 -0.03425598 C22.42110208 -0.0374693 24.91340149 -0.04083342 27.40570068 -0.04434204 C32.64647727 -0.05034345 37.88724204 -0.05222398 43.12802124 -0.05158997 C49.80761245 -0.05092766 56.48707977 -0.06507212 63.16665077 -0.08236217 C68.32461012 -0.09355179 73.48254413 -0.09550695 78.64051437 -0.09498024 C81.10019676 -0.09615254 83.55987997 -0.10053173 86.01955032 -0.10831261 C113.69288277 -0.18756932 139.30784126 1.04223202 160.13973999 21.25871277 C173.19467034 35.1655146 179.13275953 51.57006669 179.01473999 70.57121277 C179.03472046 71.70881042 179.05470093 72.84640808 179.07528687 74.01847839 C179.06884058 85.31881368 175.66728864 94.70587336 170.51473999 104.63371277 C170.17636108 105.30918152 169.83798218 105.98465027 169.48934937 106.68058777 C166.11058596 113.32047872 166.11058596 113.32047872 163.57723999 116.13371277 C162.91723999 116.13371277 162.25723999 116.13371277 161.57723999 116.13371277 C161.16538452 117.02509949 161.16538452 117.02509949 160.74520874 117.93449402 C155.1926359 128.38967298 140.58330286 135.82641514 129.70614624 139.36027527 C95.72694249 147.759629 61.85665766 140.81380668 29.57723999 129.13371277 C27.9046814 128.5362323 27.9046814 128.5362323 26.19833374 127.92668152 C11.93508578 122.38332314 -5.22560113 114.81071023 -16.42276001 104.13371277 C-16.42276001 103.47371277 -16.42276001 102.81371277 -16.42276001 102.13371277 C-17.74276001 101.47371277 -19.06276001 100.81371277 -20.42276001 100.13371277 C-19.54776001 95.25871277 -19.54776001 95.25871277 -18.42276001 94.13371277 C-15.3219078 93.97330084 -12.24088422 93.87407875 -9.13760376 93.81730652 C-8.20678482 93.79652542 -7.27596588 93.77574432 -6.31694031 93.7543335 C-3.33145819 93.68873346 -0.34588517 93.62990475 2.63973999 93.57121277 C4.65862975 93.52803747 6.67751019 93.48442352 8.69638062 93.44035339 C13.65657296 93.33304148 18.61685708 93.23180389 23.57723999 93.13371277 C23.57723999 92.14371277 23.57723999 91.15371277 23.57723999 90.13371277 C21.32836219 88.92325122 19.07839412 87.71493021 16.82723999 86.50871277 C16.14202271 86.14116882 15.45680542 85.77362488 14.75082397 85.39494324 C10.75213032 83.26050855 6.72677942 81.2204917 2.63973999 79.25871277 C-3.74063013 76.11175515 -9.67459481 72.32744471 -15.66104126 68.50090027 C-18.07419275 66.96202068 -20.50861764 65.49852144 -23.00479126 64.09855652 C-34.22594706 57.64799496 -44.60841304 49.54601017 -54.42276001 41.13371277 C-55.04151001 40.65933777 -55.66026001 40.18496277 -56.29776001 39.69621277 C-58.06258527 37.24506657 -57.67646013 35.05126416 -57.42276001 32.13371277 C-55.36244093 30.07339369 -50.97688836 30.94809984 -48.13931274 30.9283905 C-47.27109894 30.91849091 -46.40288513 30.90859131 -45.50836182 30.89839172 C-42.62438734 30.86667908 -39.74039636 30.84198089 -36.85635376 30.81730652 C-34.8623765 30.79674541 -32.86840369 30.77574917 -30.87443542 30.7543335 C-25.61535225 30.6990257 -20.35622918 30.64965497 -15.09707642 30.60148621 C-9.73489819 30.55133459 -4.3727782 30.49561551 0.98934937 30.44035339 C11.51859654 30.33266539 22.04789419 30.23124421 32.57723999 30.13371277 C32.24040541 28.16577096 32.24040541 28.16577096 31.57723999 26.13371277 C29.35548914 24.82020005 29.35548914 24.82020005 26.51473999 23.88371277 C1.70552946 14.26200224 1.70552946 14.26200224 -6.42276001 6.13371277 C-6.46339833 4.46754162 -6.46548101 2.79983182 -6.42276001 1.13371277 C-4.05804909 -0.04864269 -2.63759074 0.00545247 0 0 Z M78.57723999 33.13371277 C78.57723999 33.79371277 78.57723999 34.45371277 78.57723999 35.13371277 C77.98942749 35.38894714 77.40161499 35.64418152 76.79598999 35.90715027 C68.62185056 40.4259527 64.48977708 49.81588595 61.82723999 58.32121277 C58.33654452 72.18809644 61.06607385 84.55804867 68.08895874 96.73918152 C69.74334594 99.4009646 71.39580302 101.87436733 73.57723999 104.13371277 C74.23723999 104.13371277 74.89723999 104.13371277 75.57723999 104.13371277 C75.57723999 104.79371277 75.57723999 105.45371277 75.57723999 106.13371277 C84.91879677 115.50274471 97.80676968 118.42766471 110.5105896 118.4506073 C121.48766633 118.27251151 129.87543647 114.69159368 138.57723999 108.13371277 C139.44348999 107.55621277 140.30973999 106.97871277 141.20223999 106.38371277 C150.18614629 97.87264364 155.55153795 86.39551445 156.57723999 74.13371277 C156.86454437 59.36945993 152.79141216 47.74059436 142.61630249 37.07902527 C132.73914006 27.62975436 121.60282849 23.50517211 108.02645874 23.04777527 C96.94356756 23.43664864 87.93265191 27.56027588 78.57723999 33.13371277 Z " fill="#FD6530" transform="translate(71.42276000976563,68.86628723144531)"/>
<path d="M0 0 C8.73913981 0.09056103 17.29263485 3.75289007 24.0625 9.3125 C24.0625 9.9725 24.0625 10.6325 24.0625 11.3125 C25.5475 11.8075 25.5475 11.8075 27.0625 12.3125 C28.59765625 14.203125 28.59765625 14.203125 30.125 16.5625 C30.63160156 17.33078125 31.13820312 18.0990625 31.66015625 18.890625 C34.36832868 23.56769159 35.39092617 27.54383478 35.8125 32.9375 C35.95945312 34.62746094 35.95945312 34.62746094 36.109375 36.3515625 C36.0625 39.3125 36.0625 39.3125 34.0625 42.3125 C31.3125 42.7109375 31.3125 42.7109375 28.0625 42.6875 C26.99 42.69523437 25.9175 42.70296875 24.8125 42.7109375 C23.45125 42.51371094 23.45125 42.51371094 22.0625 42.3125 C20.06804127 39.32081191 19.49522747 36.95930632 18.69921875 33.5078125 C17.82273841 30.48583734 16.45034304 27.83780799 14.96484375 25.07421875 C14.0625 23.3125 14.0625 23.3125 13.0625 20.3125 C10.7194191 19.19164688 10.7194191 19.19164688 8.0625 18.3125 C7.44246094 17.97992188 6.82242188 17.64734375 6.18359375 17.3046875 C3.89755951 16.23534552 1.92448024 15.87845351 -0.5625 15.5 C-4.71331663 14.60566286 -4.71331663 14.60566286 -6.5625 12.1875 C-7.06865118 8.30700766 -6.6445271 5.16901148 -5.9375 1.3125 C-4.26551674 -0.35948326 -2.29582392 0.06117904 0 0 Z " fill="#FC6936" transform="translate(181.9375,102.6875)"/>
<path d="M0 0 C0.82862045 0.00359528 1.65724091 0.00719055 2.51097107 0.01089478 C3.81329178 0.01067574 3.81329178 0.01067574 5.141922 0.01045227 C8.02594967 0.01115171 10.9099136 0.01894554 13.79393005 0.02676392 C15.78790247 0.02862799 17.78187535 0.03005194 19.77584839 0.03105164 C25.03498082 0.03487769 30.29408583 0.04470871 35.5532074 0.05575562 C40.91534555 0.06596786 46.27748811 0.07054885 51.63963318 0.07559204 C62.16894213 0.0863309 72.69823069 0.10340837 83.2275238 0.12442017 C83.2275238 0.45442017 83.2275238 0.78442017 83.2275238 1.12442017 C54.1875238 1.12442017 25.1475238 1.12442017 -4.7724762 1.12442017 C-4.1124762 2.77442017 -3.4524762 4.42442017 -2.7724762 6.12442017 C-3.4324762 6.78442017 -4.0924762 7.44442017 -4.7724762 8.12442017 C-5.4324762 7.79442017 -6.0924762 7.46442017 -6.7724762 7.12442017 C-6.81501976 5.12487271 -6.81328403 3.1240038 -6.7724762 1.12442017 C-4.95008957 -0.69796646 -2.42491537 0.0044432 0 0 Z " fill="#E16C44" transform="translate(20.772476196289063,99.87557983398438)"/>
<path d="M0 0 C0.33 0 0.66 0 1 0 C1.25 6.625 1.25 6.625 -1 10 C-3.8203125 10.29296875 -3.8203125 10.29296875 -7.125 10.1875 C-8.76855469 10.14689453 -8.76855469 10.14689453 -10.4453125 10.10546875 C-11.28835937 10.07066406 -12.13140625 10.03585938 -13 10 C-13.33 9.01 -13.66 8.02 -14 7 C-9.71 7.33 -5.42 7.66 -1 8 C-0.67 5.36 -0.34 2.72 0 0 Z " fill="#F98E66" transform="translate(217,135)"/>
<path d="M0 0 C1.37478516 0.01740234 1.37478516 0.01740234 2.77734375 0.03515625 C3.69644531 0.04417969 4.61554687 0.05320312 5.5625 0.0625 C6.27277344 0.07410156 6.98304687 0.08570312 7.71484375 0.09765625 C7.71484375 0.42765625 7.71484375 0.75765625 7.71484375 1.09765625 C4.74484375 1.09765625 1.77484375 1.09765625 -1.28515625 1.09765625 C-0.62515625 2.74765625 0.03484375 4.39765625 0.71484375 6.09765625 C0.05484375 6.75765625 -0.60515625 7.41765625 -1.28515625 8.09765625 C-1.94515625 7.76765625 -2.60515625 7.43765625 -3.28515625 7.09765625 C-3.32769981 5.09810879 -3.32596408 3.09723989 -3.28515625 1.09765625 C-2.28515625 0.09765625 -2.28515625 0.09765625 0 0 Z " fill="#F38058" transform="translate(17.28515625,99.90234375)"/>
<path d="M0 0 C0.33 0.66 0.66 1.32 1 2 C0.25 4.0625 0.25 4.0625 -1 6 C-1.99 6.33 -2.98 6.66 -4 7 C-4.99 8.485 -4.99 8.485 -6 10 C-8.625 10.6875 -8.625 10.6875 -11 11 C-7.33333333 7.33333333 -3.66666667 3.66666667 0 0 Z " fill="#F9865C" transform="translate(216,170)"/>
</svg>
