<?xml version="1.0" encoding="UTF-8"?>
<svg version="1.1" xmlns="http://www.w3.org/2000/svg" width="512" height="512">
<path d="M0 0 C1.24210283 -0.01043099 2.48420566 -0.02086198 3.76394796 -0.03160906 C5.14466423 -0.02296057 6.52537818 -0.01393393 7.90608978 -0.00457001 C9.37100168 -0.00917746 10.83590895 -0.01552932 12.30080652 -0.02347898 C16.33173068 -0.04021714 20.36227729 -0.03190579 24.39320302 -0.01953411 C28.73819779 -0.01050419 33.08312647 -0.02444309 37.42810822 -0.0354538 C45.94206753 -0.05326567 54.45588601 -0.04938718 62.9698509 -0.03780323 C69.88763994 -0.02877966 76.80538944 -0.02754024 83.72318268 -0.0318985 C85.19851726 -0.0328179 85.19851726 -0.0328179 86.70365658 -0.03375587 C88.70156254 -0.03503473 90.69946848 -0.03633159 92.6973744 -0.03764623 C111.4437307 -0.04905985 130.19000883 -0.03592608 148.93635231 -0.01444477 C165.03108098 0.00342692 181.12569425 0.00032303 197.22042084 -0.01811981 C215.89844778 -0.03951274 234.57640616 -0.04796114 253.25444365 -0.03567076 C255.24511177 -0.03439652 257.23577991 -0.03313904 259.22644806 -0.0318985 C260.69572258 -0.03097285 260.69572258 -0.03097285 262.19467941 -0.03002849 C269.1063375 -0.02657085 276.0179522 -0.03241284 282.92960358 -0.04181671 C291.34950402 -0.05302056 299.76925525 -0.05003074 308.18913853 -0.02869374 C312.487361 -0.01816149 316.78533445 -0.01409829 321.08355522 -0.02729034 C325.01531165 -0.03917539 328.94658733 -0.03271663 332.87829989 -0.01138014 C334.30354004 -0.00689746 335.72882049 -0.00921754 337.15403491 -0.01888329 C339.08587254 -0.03098387 341.01782333 -0.01622302 342.94963074 0 C344.56170859 0.00097411 344.56170859 0.00097411 346.20635366 0.00196791 C349.69128195 0.63312397 350.87303253 1.6914828 352.97481537 4.50336456 C353.35897254 7.55700396 353.49814442 10.24638445 353.45583344 13.29846954 C353.45925113 14.19618521 353.46266883 15.09390088 353.4661901 16.01882005 C353.47278968 19.03319664 353.45075844 22.04668691 353.42891693 25.06098175 C353.4277889 27.21917958 353.42842144 29.37737894 353.43068695 31.53557587 C353.43183677 37.40098831 353.40828392 43.26607497 353.38039112 49.13141155 C353.35542214 55.25865474 353.35303902 61.38590501 353.34828949 67.51319122 C353.33584648 79.1189427 353.30300685 90.72454383 353.26289153 102.33022904 C353.21821511 115.54165748 353.19619716 128.75309301 353.17610979 141.96457815 C353.13427546 169.14425704 353.06389758 196.32380238 352.97481537 223.50336456 C353.599487 223.69998688 354.22415863 223.89660919 354.8677597 224.09918976 C355.68361542 224.36211823 356.49947113 224.62504669 357.34004974 224.89594269 C358.15034637 225.15444 358.96064301 225.41293732 359.79549408 225.67926788 C362.40192317 226.6648727 363.7997817 227.7829711 365.47481537 230.00336456 C366.17090912 230.88508331 366.17090912 230.88508331 366.88106537 231.78461456 C370.04396697 236.75488851 368.97481537 239.93328073 368.97481537 246.50336456 C382.17481537 246.50336456 395.37481537 246.50336456 408.97481537 246.50336456 C408.97481537 243.53336456 408.97481537 240.56336456 408.97481537 237.50336456 C410.45850476 232.22341965 413.3311594 228.448122 417.97481537 225.50336456 C422.66069083 223.07234647 427.12824268 223.13639425 432.28731537 223.12836456 C433.10393646 223.10387238 433.92055756 223.07938019 434.76192474 223.05414581 C441.23931678 223.0231782 446.77867351 224.39905439 451.53829193 229.02191925 C455.17745698 233.27666445 456.10126736 235.62849304 456.03731537 241.12836456 C456.02829193 242.13125519 456.01926849 243.13414581 456.00997162 244.16742706 C455.99256927 245.32371613 455.99256927 245.32371613 455.97481537 246.50336456 C456.61918549 246.4824173 457.2635556 246.46147003 457.92745209 246.439888 C460.90140869 246.35575458 463.87511379 246.30440111 466.84981537 246.25336456 C467.86301849 246.21984894 468.87622162 246.18633331 469.92012787 246.15180206 C478.91648682 246.03646413 486.17002204 247.98637609 493.28731537 253.62836456 C502.03492756 262.33294392 502.61776557 271.0549404 502.65245819 282.85181427 C502.64273855 284.9153543 502.63249783 286.97889193 502.62178802 289.04242706 C502.62856965 291.23455276 502.63747583 293.42667276 502.64833832 295.61878204 C502.67107305 301.5526993 502.66231911 307.4861804 502.64644289 313.42010498 C502.63375383 319.64008988 502.64553236 325.8600383 502.65337372 332.08002472 C502.66304301 343.19224327 502.64753816 354.30429079 502.62207703 365.41647553 C502.59974049 375.47613542 502.60362136 385.53550675 502.62667084 395.59516144 C502.65347478 407.29875501 502.66336394 419.00218035 502.64860952 430.70580101 C502.64082811 436.89321441 502.63973756 443.08042937 502.65629196 449.2678299 C502.67077173 455.08585319 502.66065024 460.90333338 502.63182068 466.72129822 C502.6252287 468.852123 502.62707506 470.98299376 502.638134 473.11380005 C502.74253772 495.27936188 502.74253772 495.27936188 495.04374886 503.58719635 C493.08378644 505.51724075 491.29830858 507.01603292 488.97481537 508.50336456 C488.47237 508.8368275 487.96992463 509.17029044 487.45225364 509.51385832 C479.15514081 514.09680166 469.65128656 513.05702083 460.46900177 513.01129913 C458.45942747 513.01591002 456.44985654 513.02226419 454.44029266 513.03020811 C448.92709236 513.04689796 443.41416922 513.03865656 437.90096796 513.02626324 C431.95209974 513.01721404 426.00327922 513.03118165 420.05442047 513.04218292 C409.07858877 513.0589446 398.10283941 513.05748838 387.12700453 513.04653705 C376.99006654 513.03647236 366.85316091 513.0338492 356.71621895 513.03862762 C356.04365357 513.03893316 355.37108819 513.03923871 354.67814204 513.0395535 C351.94799244 513.04079886 349.21784285 513.04207246 346.48769328 513.04339256 C320.88570379 513.05562438 295.28377054 513.04454009 269.68178973 513.02300497 C246.92909304 513.00401215 224.17648589 513.0057306 201.42378998 513.02484894 C175.86089686 513.04625681 150.29805338 513.05476771 124.73515254 513.04239988 C122.01154603 513.041117 119.2879395 513.03986564 116.56433296 513.03862762 C115.55839855 513.03815316 115.55839855 513.03815316 114.53214224 513.03766911 C104.39737014 513.03311588 94.26263389 513.03844629 84.12786674 513.04854584 C72.61010146 513.05996634 61.09243684 513.05677209 49.57468357 513.03542286 C43.69471567 513.02488416 37.81492992 513.02083872 31.93496323 513.03401947 C26.55827286 513.04589021 21.18193444 513.03946904 15.80527625 513.01810926 C13.85461573 513.01362068 11.9039258 513.01595959 9.95328399 513.02561241 C7.3123961 513.03768415 4.67273174 513.02539624 2.03190899 513.00672913 C0.88196219 513.02077612 0.88196219 513.02077612 -0.29121587 513.0351069 C-3.538132 512.98887662 -5.70518599 512.69875319 -8.4972927 510.99391508 C-10.66941608 507.45323076 -10.57590264 504.18099891 -10.52854919 500.15119171 C-10.53436296 499.29683438 -10.54017672 498.44247705 -10.54616666 497.56223011 C-10.56084435 494.67969592 -10.54684529 491.7980029 -10.5331192 488.91547394 C-10.53772504 486.83596865 -10.54407581 484.75646662 -10.55202818 482.67697144 C-10.5687881 476.94725013 -10.56044488 471.21779394 -10.54808331 465.48807144 C-10.53906234 459.31484646 -10.55298783 453.14166825 -10.56400299 446.96845245 C-10.5807935 435.56897771 -10.57929364 424.16961153 -10.56835712 412.77013946 C-10.55830398 402.24004327 -10.55566384 391.70997823 -10.56044769 381.17987823 C-10.56075323 380.48201492 -10.56105877 379.7841516 -10.56137357 379.0651409 C-10.56261888 376.23244966 -10.56389248 373.39975844 -10.56521263 370.56706724 C-10.57745495 343.98178516 -10.56634477 317.3965572 -10.54482504 290.81128347 C-10.52584191 267.17996901 -10.52754039 243.54874077 -10.54666901 219.91742706 C-10.56807689 193.38148678 -10.57658681 166.84559432 -10.56421995 140.30964661 C-10.56293704 137.48204805 -10.56168568 134.65444947 -10.56044769 131.82685089 C-10.56013138 131.13059874 -10.55981507 130.43434659 -10.55948918 129.71699589 C-10.55493488 119.19224045 -10.56026858 108.66751953 -10.57036591 98.14276886 C-10.581787 86.17839146 -10.57859153 74.21411593 -10.55724293 62.24974251 C-10.54670334 56.14095654 -10.54266015 50.03234591 -10.55583954 43.9235611 C-10.56770907 38.33757822 -10.56129102 32.75193414 -10.53992933 27.16598225 C-10.53544011 25.13912957 -10.53778106 23.1122486 -10.54743248 21.08541393 C-10.55950102 18.34170805 -10.54721924 15.59918052 -10.52854919 12.85553741 C-10.54259619 11.66012943 -10.54259619 11.66012943 -10.55692697 10.44057178 C-10.51025723 7.03657431 -10.27381635 4.8775473 -8.37029839 2.01281404 C-5.38214826 0.08946954 -3.54657741 0.00214305 0 0 Z M6.97481537 16.50336456 C6.97481537 174.90336456 6.97481537 333.30336456 6.97481537 496.50336456 C69.34481537 496.50336456 131.71481537 496.50336456 195.97481537 496.50336456 C195.31481537 493.86336456 194.65481537 491.22336456 193.97481537 488.50336456 C193.72296637 486.12231022 193.72296637 486.12231022 193.72033978 484.13953495 C193.71450758 483.36977662 193.70867539 482.60001828 193.70266646 481.80693394 C193.70644579 480.98814902 193.71022511 480.1693641 193.71411896 479.32576752 C193.71029341 478.4350678 193.70646786 477.54436808 193.70252639 476.62667745 C193.69225661 473.65981222 193.69617705 470.69314269 193.70015717 467.72626495 C193.69580739 465.59192985 193.69062335 463.45759631 193.68466949 461.32326508 C193.67129762 455.5381774 193.67069877 449.75315513 193.67323279 443.96805501 C193.67430362 439.13453314 193.66941633 434.30102444 193.66462737 429.4675054 C193.65353869 418.06318863 193.65309136 406.65890481 193.65914154 395.25458527 C193.66518312 383.49731612 193.65286411 371.74016659 193.63157147 359.98291785 C193.61394885 349.87993167 193.60795512 339.77698354 193.61120921 329.67398256 C193.61302098 323.64366333 193.61039635 317.61342945 193.59649467 311.58312416 C193.5839101 305.91218681 193.58586654 300.24143585 193.59890556 294.57050133 C193.60126941 292.49246279 193.59854355 290.4144111 193.59028244 288.33638763 C193.57979729 285.49335837 193.58792992 282.65095251 193.60059357 279.80794525 C193.59321928 278.99139105 193.585845 278.17483686 193.57824725 277.33353859 C193.66510771 268.02421102 196.38816359 261.20115732 202.78340912 254.45258331 C208.13568813 249.69182177 214.21057042 247.54157681 221.30294037 247.18695831 C222.50176849 247.12411652 222.50176849 247.12411652 223.72481537 247.06000519 C224.54981537 247.02068878 225.37481537 246.98137238 226.22481537 246.94086456 C227.06528412 246.89768097 227.90575287 246.85449738 228.77169037 246.81000519 C230.83922208 246.70427913 232.90699817 246.60335161 234.97481537 246.50336456 C235.10436615 245.20012238 235.10436615 245.20012238 235.23653412 243.87055206 C236.68773933 231.96800655 236.68773933 231.96800655 241.97481537 227.50336456 C247.56837075 224.56497787 252.14387818 224.01109664 258.41231537 224.06586456 C259.21991302 224.04588409 260.02751068 224.02590363 260.85958099 224.00531769 C267.50636073 224.01067367 272.96501901 225.57664114 277.81465912 230.29242706 C281.36978362 236.23872072 281.21004257 238.85563658 281.97481537 246.50336456 C295.17481537 246.50336456 308.37481537 246.50336456 321.97481537 246.50336456 C322.30481537 243.20336456 322.63481537 239.90336456 322.97481537 236.50336456 C326.5876364 228.8398048 327.55551174 228.71301638 335.97481537 224.50336456 C335.97481537 155.86336456 335.97481537 87.22336456 335.97481537 16.50336456 C227.40481537 16.50336456 118.83481537 16.50336456 6.97481537 16.50336456 Z M251.97481537 240.50336456 C251.97481537 251.72336456 251.97481537 262.94336456 251.97481537 274.50336456 C256.26481537 274.50336456 260.55481537 274.50336456 264.97481537 274.50336456 C264.99946825 269.82197203 265.01765276 265.14061697 265.02974701 260.45917511 C265.03478694 258.86541842 265.04161887 257.27166637 265.05025482 255.67792511 C265.06233535 253.39186204 265.06804692 251.10585989 265.07247162 248.81977081 C265.0776329 248.10309738 265.08279419 247.38642395 265.08811188 246.64803314 C265.088308 244.93272784 265.03673544 243.2175519 264.97481537 241.50336456 C264.64481537 241.17336456 264.31481537 240.84336456 263.97481537 240.50336456 C260.01481537 240.50336456 256.05481537 240.50336456 251.97481537 240.50336456 Z M338.97481537 240.50336456 C338.97481537 251.72336456 338.97481537 262.94336456 338.97481537 274.50336456 C343.26481537 274.50336456 347.55481537 274.50336456 351.97481537 274.50336456 C351.97481537 263.28336456 351.97481537 252.06336456 351.97481537 240.50336456 C347.68481537 240.50336456 343.39481537 240.50336456 338.97481537 240.50336456 Z M426.97481537 240.50336456 C425.61269717 241.63844264 425.61269717 241.63844264 425.86128998 244.64618683 C425.86144904 246.03739154 425.8671403 247.42860217 425.87715912 248.81977081 C425.87857407 249.55082535 425.87998901 250.28187988 425.88144684 251.03508759 C425.88706129 253.37872089 425.89961615 255.72225996 425.91231537 258.06586456 C425.91732851 259.65114965 425.92189174 261.23643622 425.92598724 262.82172394 C425.9370354 266.71564066 425.95430965 270.60948662 425.97481537 274.50336456 C430.26481537 274.50336456 434.55481537 274.50336456 438.97481537 274.50336456 C438.97481537 263.28336456 438.97481537 252.06336456 438.97481537 240.50336456 C435.01481537 240.50336456 431.05481537 240.50336456 426.97481537 240.50336456 Z M212.97481537 267.50336456 C207.3165873 275.96191936 207.3165873 275.96191936 209.97481537 303.50336456 C300.72481537 303.50336456 391.47481537 303.50336456 484.97481537 303.50336456 C488.44570269 274.01614237 488.44570269 274.01614237 478.97481537 264.50336456 C476.09216388 263.54248073 474.29819266 263.38665515 471.30684662 263.40570831 C470.41417084 263.40893097 469.52149506 263.41215363 468.60176849 263.41547394 C467.67299896 263.42385284 466.74422943 263.43223175 465.78731537 263.44086456 C464.84694427 263.44537628 463.90657318 263.449888 462.93770599 263.45453644 C460.61667824 263.4663183 458.29577892 263.48276898 455.97481537 263.50336456 C455.94903412 264.57715363 455.92325287 265.65094269 455.89669037 266.75727081 C455.38192389 281.53124213 455.38192389 281.53124213 450.97481537 286.50336456 C445.03938837 290.65089339 439.41869799 291.09650047 432.34981537 290.94086456 C431.43458099 290.94795441 430.51934662 290.95504425 429.57637787 290.96234894 C424.30650236 290.91284866 420.51457258 290.45634143 415.97481537 287.50336456 C409.04136495 280.18472246 409.72313086 273.97978143 408.97481537 263.50336456 C395.77481537 263.50336456 382.57481537 263.50336456 368.97481537 263.50336456 C368.64481537 268.45336456 368.31481537 273.40336456 367.97481537 278.50336456 C364.97766626 284.49766278 363.98207938 285.85223456 358.97481537 289.50336456 C354.56980428 290.97170159 350.27702599 290.72830164 345.66231537 290.75336456 C344.7245224 290.77398956 343.78672943 290.79461456 342.82051849 290.81586456 C336.64708101 290.850669 332.08850187 290.34340165 327.33028412 286.00336456 C321.29189433 278.24837567 322.75623243 275.22462041 321.97481537 263.50336456 C308.77481537 263.50336456 295.57481537 263.50336456 281.97481537 263.50336456 C281.64481537 268.45336456 281.31481537 273.40336456 280.97481537 278.50336456 C277.97766626 284.49766278 276.98207938 285.85223456 271.97481537 289.50336456 C267.60523376 290.95989177 263.36569507 290.76879418 258.78731537 290.81586456 C257.86628021 290.84486847 256.94524506 290.87387238 255.99629974 290.90375519 C249.81785873 290.96075997 245.09499391 290.10987963 239.97481537 286.50336456 C234.3527278 280.16049653 235.16868646 271.57809566 234.97481537 263.50336456 C232.43198302 263.39464489 229.89386449 263.31574055 227.34981537 263.25336456 C226.63696381 263.21984894 225.92411224 263.18633331 225.18965912 263.15180206 C219.98274045 263.05626227 217.05172932 263.9883713 212.97481537 267.50336456 Z M209.97481537 320.50336456 C209.89231537 347.76961456 209.80981537 375.03586456 209.72481537 403.12836456 C209.68839935 411.74010773 209.65198334 420.35185089 209.61446381 429.22455597 C209.60108668 436.93907608 209.60108668 436.93907608 209.59304047 444.6536026 C209.5893114 448.09177712 209.57431213 451.529705 209.55251312 454.96781158 C209.52507215 459.35387517 209.51685143 463.73958022 209.52252626 468.12572169 C209.52133967 469.73507784 209.51341 471.34444654 209.49795485 472.95372891 C209.47803013 475.12954998 209.48286288 477.30398191 209.4937973 479.47983551 C209.49011013 480.69844584 209.48642296 481.91705616 209.48262405 483.17259407 C210.21699133 488.14222435 212.40758468 491.3379879 216.41231537 494.31586456 C222.08131523 496.94296206 227.81709039 496.64711119 233.94402313 496.63707733 C234.95607728 496.63934289 235.96813143 496.64160844 237.01085389 496.64394265 C240.40624193 496.65027899 243.80159003 496.64945352 247.19698334 496.64862823 C249.62968243 496.65161994 252.06238105 496.65502249 254.49507904 496.65880585 C260.41969968 496.66672982 266.34431093 496.66986044 272.26893578 496.67041823 C277.08521517 496.67089362 281.90149128 496.67294955 286.71776962 496.67611885 C300.37647795 496.68492373 314.03517842 496.68953846 327.6938896 496.68878838 C328.42999843 496.68874842 329.16610725 496.68870846 329.9245224 496.6886673 C330.66153118 496.68862642 331.39853997 496.68858554 332.15788235 496.68854342 C344.10298995 496.68813694 356.04806604 496.69770738 367.99316452 496.71180566 C380.2619035 496.72617154 392.5306271 496.73307574 404.7993747 496.73221189 C411.68591081 496.73188 418.57241388 496.73462338 425.45894241 496.74538994 C431.93496765 496.75544994 438.41094112 496.75515741 444.88697052 496.74787331 C447.26417009 496.74682616 449.64137399 496.74919804 452.01856613 496.75523376 C455.26300669 496.76293809 458.50720506 496.75831905 461.75164032 496.75060272 C463.16337235 496.75831807 463.16337235 496.75831807 464.60362422 496.76618928 C471.22663172 496.73136979 476.70669217 496.52495263 481.84981537 491.94086456 C482.55106537 491.13648956 483.25231537 490.33211456 483.97481537 489.50336456 C484.30481537 489.17336456 484.63481537 488.84336456 484.97481537 488.50336456 C485.07176855 486.33910283 485.09668301 484.17161203 485.09506989 482.00518036 C485.0959259 481.319953 485.09678192 480.63472565 485.09766388 479.92873383 C485.09932876 477.60845143 485.09377983 475.28824005 485.08834076 472.96796417 C485.08803466 471.28577457 485.08816751 469.60358484 485.08870602 467.9213953 C485.08893256 463.40062458 485.08312034 458.87988011 485.07609558 454.3591156 C485.07041708 450.12305871 485.07013336 445.88700834 485.06941986 441.65094757 C485.06416438 429.24758307 485.05020334 416.84422349 485.03731537 404.44086456 C485.01669037 376.74148956 484.99606537 349.04211456 484.97481537 320.50336456 C394.22481537 320.50336456 303.47481537 320.50336456 209.97481537 320.50336456 Z " fill="#000000" transform="translate(10.025184631347656,-0.5033645629882813)"/>
<path d="M0 0 C0.97926956 -0.00700928 1.95853912 -0.01401855 2.96748352 -0.02124023 C6.20582399 -0.03885136 9.44329121 -0.02718603 12.68164062 -0.01367188 C14.93078784 -0.01636588 17.17993392 -0.02024754 19.42907715 -0.02526855 C24.14342332 -0.03116785 28.85746639 -0.02258649 33.57177734 -0.00390625 C39.61820348 0.01888319 45.66391945 0.00576247 51.71031952 -0.01819611 C56.35485191 -0.03264223 60.99921561 -0.02805346 65.64375305 -0.01768494 C67.8733173 -0.01501439 70.1028968 -0.01829889 72.33244324 -0.02760315 C75.44730262 -0.03774889 78.56100795 -0.02229448 81.67578125 0 C83.06142021 -0.01214539 83.06142021 -0.01214539 84.47505188 -0.02453613 C90.71897193 0.05836332 90.71897193 0.05836332 93.90856934 2.42492676 C95.89616189 5.33493608 95.90480519 7.1867218 95.73242188 10.61523438 C95.12400955 13.54886608 93.72642548 14.8114818 91.33789062 16.51757812 C87.58643696 17.76806268 84.10112978 17.6490176 80.19458008 17.63110352 C78.95034271 17.63132256 78.95034271 17.63132256 77.68096924 17.63154602 C74.9376769 17.63084904 72.19445236 17.62306666 69.45117188 17.61523438 C67.54973894 17.61336943 65.64830553 17.61194589 63.74687195 17.61094666 C58.74094314 17.60712748 53.73504332 17.59730228 48.72912598 17.58624268 C42.72357533 17.57421776 36.71801499 17.56962346 30.71245575 17.56378937 C21.58758054 17.55409024 12.46276895 17.53492947 3.33789062 17.51757812 C3.33789062 39.95757812 3.33789062 62.39757812 3.33789062 85.51757812 C28.08789062 85.51757812 52.83789062 85.51757812 78.33789062 85.51757812 C78.00789063 78.91757812 77.67789063 72.31757813 77.33789062 65.51757812 C73.56408874 69.04253706 73.56408874 69.04253706 69.79980469 72.57763672 C64.29600285 77.67079027 64.29600285 77.67079027 61.33789062 78.51757812 C55.61549047 78.21490642 53.06360833 76.98320515 49.09570312 72.89648438 C48.1753125 71.96126953 47.25492188 71.02605469 46.30664062 70.0625 C45.35860628 69.06847159 44.41069092 68.0743297 43.46289062 67.08007812 C42.49288255 66.08852512 41.52153939 65.09827632 40.54882812 64.109375 C32.48415687 55.83397434 32.48415687 55.83397434 32.02539062 51.70507812 C32.42754577 47.60309565 33.15762617 46.1548706 36.33789062 43.51757812 C40.21783951 42.65910579 43.86415209 42.59089104 47.28930664 44.74462891 C49.12021336 46.4157887 50.76467834 48.1553826 52.40039062 50.01757812 C53.26954102 50.94763672 53.26954102 50.94763672 54.15625 51.89648438 C55.5716184 53.41712811 56.95786809 54.96478616 58.33789062 56.51757812 C61.15140849 55.22862096 63.27046132 53.85489307 65.50976562 51.72460938 C66.08734619 51.18054443 66.66492676 50.63647949 67.26000977 50.07592773 C67.86321045 49.49979736 68.46641113 48.92366699 69.08789062 48.33007812 C70.35141925 47.1391307 71.61573537 45.94901817 72.88085938 44.75976562 C73.48333496 44.19225586 74.08581055 43.62474609 74.70654297 43.04003906 C77.1456895 40.76369699 79.66499457 38.5879353 82.19335938 36.41210938 C85.8446461 33.18647356 89.39433994 29.84850921 92.94750977 26.51538086 C97.26014045 22.49683714 99.31957802 21.12721187 105.36132812 21.24804688 C107.33789062 21.51757812 107.33789062 21.51757812 109.83789062 23.01757812 C111.9292313 26.50314591 112.09071704 29.6122911 111.33789062 33.51757812 C108.85823103 37.75366326 104.95515729 40.71751697 101.24023438 43.86914062 C100.61246094 44.413125 99.9846875 44.95710938 99.33789062 45.51757812 C98.81126328 45.94619644 98.28463593 46.37481476 97.74205017 46.81642151 C95.86496745 49.09053038 95.96575755 50.45835103 95.96899414 53.38452148 C95.96211075 54.37242172 95.95522736 55.36032196 95.94813538 56.37815857 C95.95737282 57.97664391 95.95737282 57.97664391 95.96679688 59.60742188 C95.949416 61.85807445 95.9318316 64.10872546 95.9140625 66.359375 C95.90397921 69.91238258 95.90039552 73.46528924 95.90209961 77.01831055 C95.89853622 80.44415586 95.87121672 83.86921585 95.84179688 87.29492188 C95.8499794 88.35855453 95.85816193 89.42218719 95.86659241 90.51805115 C95.85655685 91.50910355 95.8465213 92.50015594 95.83618164 93.52124023 C95.83634781 94.3915538 95.83651398 95.26186737 95.83668518 96.15855408 C95.11949533 99.5504678 94.23513961 100.58054001 91.33789062 102.51757812 C88.11803949 103.10764732 84.94167884 103.06378246 81.67578125 103.03515625 C80.69651169 103.04216553 79.71724213 103.0491748 78.70829773 103.05639648 C75.46995726 103.07400761 72.23249004 103.06234228 68.99414062 103.04882812 C66.74499341 103.05152213 64.49584733 103.05540379 62.2467041 103.0604248 C57.53235793 103.0663241 52.81831486 103.05774274 48.10400391 103.0390625 C42.05757777 103.01627306 36.0118618 103.02939378 29.96546173 103.05335236 C25.32092934 103.06779848 20.67656564 103.06320971 16.0320282 103.05284119 C13.80246395 103.05017064 11.57288445 103.05345514 9.34333801 103.0627594 C6.22847863 103.07290514 3.1147733 103.05745073 0 103.03515625 C-0.92375931 103.04325317 -1.84751862 103.0513501 -2.79927063 103.05969238 C-6.51990414 103.01029417 -8.96859092 102.91365334 -12.23364258 101.0489502 C-14.38353126 97.23915344 -14.22032668 93.80595137 -14.1796875 89.49804688 C-14.18669678 88.58705231 -14.19370605 87.67605774 -14.20092773 86.73745728 C-14.2185319 83.72635409 -14.20687626 80.71619086 -14.19335938 77.70507812 C-14.19605359 75.61287251 -14.19993542 73.52066812 -14.20495605 71.4284668 C-14.21085439 67.04366128 -14.20227717 62.6591817 -14.18359375 58.27441406 C-14.16080422 52.65170855 -14.17392548 47.02976672 -14.19788361 41.40708923 C-14.21233239 37.08681475 -14.20773977 32.76672157 -14.19737244 28.44644165 C-14.19470262 26.3731782 -14.19798385 24.29989833 -14.20729065 22.22665405 C-14.21744092 19.32969516 -14.20197626 16.43397585 -14.1796875 13.53710938 C-14.18778442 12.67880524 -14.19588135 11.8205011 -14.20422363 10.93618774 C-14.15355672 7.38457281 -13.99797231 5.11275756 -12.23364258 1.98620605 C-8.25012379 -0.28882074 -4.51314013 -0.03955852 0 0 Z " fill="#000000" transform="translate(62.662109375,204.482421875)"/>
<path d="M0 0 C0.97926956 -0.00700928 1.95853912 -0.01401855 2.96748352 -0.02124023 C6.20582399 -0.03885136 9.44329121 -0.02718603 12.68164062 -0.01367188 C14.93078784 -0.01636588 17.17993392 -0.02024754 19.42907715 -0.02526855 C24.14342332 -0.03116785 28.85746639 -0.02258649 33.57177734 -0.00390625 C39.61820348 0.01888319 45.66391945 0.00576247 51.71031952 -0.01819611 C56.35485191 -0.03264223 60.99921561 -0.02805346 65.64375305 -0.01768494 C67.8733173 -0.01501439 70.1028968 -0.01829889 72.33244324 -0.02760315 C75.44730262 -0.03774889 78.56100795 -0.02229448 81.67578125 0 C83.06142021 -0.01214539 83.06142021 -0.01214539 84.47505188 -0.02453613 C90.71897193 0.05836332 90.71897193 0.05836332 93.90856934 2.42492676 C95.89624284 5.3350546 95.90730546 7.1863007 95.72851562 10.61523438 C95.1186764 13.58515138 93.78226018 14.82009927 91.33789062 16.51757812 C87.41433833 17.93883944 83.28781289 17.65029012 79.17285156 17.63110352 C78.35296753 17.63124954 77.5330835 17.63139557 76.68835449 17.63154602 C73.98296447 17.6308503 71.2776436 17.62307384 68.57226562 17.61523438 C66.69468219 17.61336899 64.81709826 17.61194565 62.93951416 17.61094666 C58.00100355 17.60713101 53.06252241 17.59730884 48.12402344 17.58624268 C42.19687509 17.57420822 36.26971688 17.56962178 30.34255981 17.56378937 C21.34098293 17.5540966 12.33947069 17.53493336 3.33789062 17.51757812 C3.33789062 39.95757812 3.33789062 62.39757812 3.33789062 85.51757812 C28.08789062 85.51757812 52.83789062 85.51757812 78.33789062 85.51757812 C78.00789063 78.91757812 77.67789063 72.31757813 77.33789062 65.51757812 C73.56408874 69.04253706 73.56408874 69.04253706 69.79980469 72.57763672 C64.29600285 77.67079027 64.29600285 77.67079027 61.33789062 78.51757812 C55.61549047 78.21490642 53.06360833 76.98320515 49.09570312 72.89648438 C48.1753125 71.96126953 47.25492188 71.02605469 46.30664062 70.0625 C45.35860628 69.06847159 44.41069092 68.0743297 43.46289062 67.08007812 C42.49288255 66.08852512 41.52153939 65.09827632 40.54882812 64.109375 C32.48415687 55.83397434 32.48415687 55.83397434 32.02539062 51.70507812 C32.42754577 47.60309565 33.15762617 46.1548706 36.33789062 43.51757812 C40.21783951 42.65910579 43.86415209 42.59089104 47.28930664 44.74462891 C49.12021336 46.4157887 50.76467834 48.1553826 52.40039062 50.01757812 C53.26954102 50.94763672 53.26954102 50.94763672 54.15625 51.89648438 C55.5716184 53.41712811 56.95786809 54.96478616 58.33789062 56.51757812 C61.264323 55.18901619 63.40796693 53.72193635 65.72851562 51.50585938 C66.35137451 50.91651611 66.9742334 50.32717285 67.6159668 49.7199707 C68.26670166 49.09630615 68.91743652 48.4726416 69.58789062 47.83007812 C70.94251396 46.54793433 72.29797306 45.26667292 73.65429688 43.98632812 C74.61940186 43.07367188 74.61940186 43.07367188 75.60400391 42.14257812 C78.10892385 39.79496517 80.69089703 37.54667417 83.29492188 35.31054688 C86.69282345 32.3284497 89.99712033 29.24247137 93.3034668 26.15942383 C97.4533523 22.31849307 99.55786221 21.13197756 105.36132812 21.24804688 C107.33789062 21.51757812 107.33789062 21.51757812 109.83789062 23.01757812 C111.9292313 26.50314591 112.09071704 29.6122911 111.33789062 33.51757812 C108.85823103 37.75366326 104.95515729 40.71751697 101.24023438 43.86914062 C100.61246094 44.413125 99.9846875 44.95710938 99.33789062 45.51757812 C98.81126328 45.94619644 98.28463593 46.37481476 97.74205017 46.81642151 C95.86496745 49.09053038 95.96575755 50.45835103 95.96899414 53.38452148 C95.96211075 54.37242172 95.95522736 55.36032196 95.94813538 56.37815857 C95.95737282 57.97664391 95.95737282 57.97664391 95.96679688 59.60742188 C95.949416 61.85807445 95.9318316 64.10872546 95.9140625 66.359375 C95.90397921 69.91238258 95.90039552 73.46528924 95.90209961 77.01831055 C95.89853622 80.44415586 95.87121672 83.86921585 95.84179688 87.29492188 C95.8499794 88.35855453 95.85816193 89.42218719 95.86659241 90.51805115 C95.85655685 91.50910355 95.8465213 92.50015594 95.83618164 93.52124023 C95.83634781 94.3915538 95.83651398 95.26186737 95.83668518 96.15855408 C95.11949533 99.5504678 94.23513961 100.58054001 91.33789062 102.51757812 C88.11803949 103.10764732 84.94167884 103.06378246 81.67578125 103.03515625 C80.69651169 103.04216553 79.71724213 103.0491748 78.70829773 103.05639648 C75.46995726 103.07400761 72.23249004 103.06234228 68.99414062 103.04882812 C66.74499341 103.05152213 64.49584733 103.05540379 62.2467041 103.0604248 C57.53235793 103.0663241 52.81831486 103.05774274 48.10400391 103.0390625 C42.05757777 103.01627306 36.0118618 103.02939378 29.96546173 103.05335236 C25.32092934 103.06779848 20.67656564 103.06320971 16.0320282 103.05284119 C13.80246395 103.05017064 11.57288445 103.05345514 9.34333801 103.0627594 C6.22847863 103.07290514 3.1147733 103.05745073 0 103.03515625 C-0.92375931 103.04325317 -1.84751862 103.0513501 -2.79927063 103.05969238 C-6.51990414 103.01029417 -8.96859092 102.91365334 -12.23364258 101.0489502 C-14.38353126 97.23915344 -14.22032668 93.80595137 -14.1796875 89.49804688 C-14.18669678 88.58705231 -14.19370605 87.67605774 -14.20092773 86.73745728 C-14.2185319 83.72635409 -14.20687626 80.71619086 -14.19335938 77.70507812 C-14.19605359 75.61287251 -14.19993542 73.52066812 -14.20495605 71.4284668 C-14.21085439 67.04366128 -14.20227717 62.6591817 -14.18359375 58.27441406 C-14.16080422 52.65170855 -14.17392548 47.02976672 -14.19788361 41.40708923 C-14.21233239 37.08681475 -14.20773977 32.76672157 -14.19737244 28.44644165 C-14.19470262 26.3731782 -14.19798385 24.29989833 -14.20729065 22.22665405 C-14.21744092 19.32969516 -14.20197626 16.43397585 -14.1796875 13.53710938 C-14.18778442 12.67880524 -14.19588135 11.8205011 -14.20422363 10.93618774 C-14.15355672 7.38457281 -13.99797231 5.11275756 -12.23364258 1.98620605 C-8.25012379 -0.28882074 -4.51314013 -0.03955852 0 0 Z " fill="#000000" transform="translate(62.662109375,360.482421875)"/>
<path d="M0 0 C0.97926956 -0.00700928 1.95853912 -0.01401855 2.96748352 -0.02124023 C6.20582399 -0.03885136 9.44329121 -0.02718603 12.68164062 -0.01367188 C14.93078784 -0.01636588 17.17993392 -0.02024754 19.42907715 -0.02526855 C24.14342332 -0.03116785 28.85746639 -0.02258649 33.57177734 -0.00390625 C39.61820348 0.01888319 45.66391945 0.00576247 51.71031952 -0.01819611 C56.35485191 -0.03264223 60.99921561 -0.02805346 65.64375305 -0.01768494 C67.8733173 -0.01501439 70.1028968 -0.01829889 72.33244324 -0.02760315 C75.44730262 -0.03774889 78.56100795 -0.02229448 81.67578125 0 C83.06142021 -0.01214539 83.06142021 -0.01214539 84.47505188 -0.02453613 C90.71897193 0.05836332 90.71897193 0.05836332 93.90856934 2.42492676 C95.89616189 5.33493608 95.90480519 7.1867218 95.73242188 10.61523438 C95.12400955 13.54886608 93.72642548 14.8114818 91.33789062 16.51757812 C87.58643696 17.76806268 84.10112978 17.6490176 80.19458008 17.63110352 C78.95034271 17.63132256 78.95034271 17.63132256 77.68096924 17.63154602 C74.9376769 17.63084904 72.19445236 17.62306666 69.45117188 17.61523438 C67.54973894 17.61336943 65.64830553 17.61194589 63.74687195 17.61094666 C58.74094314 17.60712748 53.73504332 17.59730228 48.72912598 17.58624268 C42.72357533 17.57421776 36.71801499 17.56962346 30.71245575 17.56378937 C21.58758054 17.55409024 12.46276895 17.53492947 3.33789062 17.51757812 C3.33789062 40.28757812 3.33789062 63.05757812 3.33789062 86.51757812 C28.08789062 86.51757812 52.83789062 86.51757812 78.33789062 86.51757812 C77.84289062 76.12257812 77.84289062 76.12257812 77.33789062 65.51757812 C73.56408874 69.04253706 73.56408874 69.04253706 69.79980469 72.57763672 C64.29600285 77.67079027 64.29600285 77.67079027 61.33789062 78.51757812 C55.61549047 78.21490642 53.06360833 76.98320515 49.09570312 72.89648438 C48.1753125 71.96126953 47.25492188 71.02605469 46.30664062 70.0625 C45.35860628 69.06847159 44.41069092 68.0743297 43.46289062 67.08007812 C42.49288255 66.08852512 41.52153939 65.09827632 40.54882812 64.109375 C32.48415687 55.83397434 32.48415687 55.83397434 32.02539062 51.70507812 C32.42754577 47.60309565 33.15762617 46.1548706 36.33789062 43.51757812 C40.21783951 42.65910579 43.86415209 42.59089104 47.28930664 44.74462891 C49.12021336 46.4157887 50.76467834 48.1553826 52.40039062 50.01757812 C53.26954102 50.94763672 53.26954102 50.94763672 54.15625 51.89648438 C55.5716184 53.41712811 56.95786809 54.96478616 58.33789062 56.51757812 C62.42974275 54.86700009 65.31664792 51.94583656 68.46289062 48.95507812 C69.63037789 47.8608142 70.79835088 46.76706827 71.96679688 45.67382812 C72.54059082 45.135 73.11438477 44.59617188 73.70556641 44.04101562 C75.91093812 41.98275665 78.15221715 39.96640999 80.40039062 37.95507812 C83.13614119 35.50682844 85.85685805 33.04472759 88.55273438 30.55273438 C89.09857178 30.0487915 89.64440918 29.54484863 90.20678711 29.02563477 C91.27449513 28.0384723 92.34048406 27.04944645 93.40454102 26.05834961 C97.50488236 22.26968615 99.62955277 21.13341137 105.36132812 21.24804688 C107.33789062 21.51757812 107.33789062 21.51757812 109.83789062 23.01757812 C111.9292313 26.50314591 112.09071704 29.6122911 111.33789062 33.51757812 C108.85823103 37.75366326 104.95515729 40.71751697 101.24023438 43.86914062 C100.61246094 44.413125 99.9846875 44.95710938 99.33789062 45.51757812 C98.81126328 45.94619644 98.28463593 46.37481476 97.74205017 46.81642151 C95.86496745 49.09053038 95.96575755 50.45835103 95.96899414 53.38452148 C95.96211075 54.37242172 95.95522736 55.36032196 95.94813538 56.37815857 C95.95737282 57.97664391 95.95737282 57.97664391 95.96679688 59.60742188 C95.949416 61.85807445 95.9318316 64.10872546 95.9140625 66.359375 C95.90397921 69.91238258 95.90039552 73.46528924 95.90209961 77.01831055 C95.89853622 80.44415586 95.87121672 83.86921585 95.84179688 87.29492188 C95.8499794 88.35855453 95.85816193 89.42218719 95.86659241 90.51805115 C95.85655685 91.50910355 95.8465213 92.50015594 95.83618164 93.52124023 C95.83634781 94.3915538 95.83651398 95.26186737 95.83668518 96.15855408 C95.11949533 99.5504678 94.23513961 100.58054001 91.33789062 102.51757812 C88.11803949 103.10764732 84.94167884 103.06378246 81.67578125 103.03515625 C80.69651169 103.04216553 79.71724213 103.0491748 78.70829773 103.05639648 C75.46995726 103.07400761 72.23249004 103.06234228 68.99414062 103.04882812 C66.74499341 103.05152213 64.49584733 103.05540379 62.2467041 103.0604248 C57.53235793 103.0663241 52.81831486 103.05774274 48.10400391 103.0390625 C42.05757777 103.01627306 36.0118618 103.02939378 29.96546173 103.05335236 C25.32092934 103.06779848 20.67656564 103.06320971 16.0320282 103.05284119 C13.80246395 103.05017064 11.57288445 103.05345514 9.34333801 103.0627594 C6.22847863 103.07290514 3.1147733 103.05745073 0 103.03515625 C-0.92375931 103.04325317 -1.84751862 103.0513501 -2.79927063 103.05969238 C-6.51990414 103.01029417 -8.96859092 102.91365334 -12.23364258 101.0489502 C-14.38353126 97.23915344 -14.22032668 93.80595137 -14.1796875 89.49804688 C-14.18669678 88.58705231 -14.19370605 87.67605774 -14.20092773 86.73745728 C-14.2185319 83.72635409 -14.20687626 80.71619086 -14.19335938 77.70507812 C-14.19605359 75.61287251 -14.19993542 73.52066812 -14.20495605 71.4284668 C-14.21085439 67.04366128 -14.20227717 62.6591817 -14.18359375 58.27441406 C-14.16080422 52.65170855 -14.17392548 47.02976672 -14.19788361 41.40708923 C-14.21233239 37.08681475 -14.20773977 32.76672157 -14.19737244 28.44644165 C-14.19470262 26.3731782 -14.19798385 24.29989833 -14.20729065 22.22665405 C-14.21744092 19.32969516 -14.20197626 16.43397585 -14.1796875 13.53710938 C-14.18778442 12.67880524 -14.19588135 11.8205011 -14.20422363 10.93618774 C-14.15355672 7.38457281 -13.99797231 5.11275756 -12.23364258 1.98620605 C-8.25012379 -0.28882074 -4.51314013 -0.03955852 0 0 Z " fill="#000000" transform="translate(62.662109375,48.482421875)"/>
<path d="M0 0 C1.41705986 -0.02409439 1.41705986 -0.02409439 2.86274719 -0.04867554 C7.18518385 -0.09310153 11.5074666 -0.13418924 15.83007812 -0.15722656 C18.11045535 -0.17378987 20.39078058 -0.20108456 22.67089844 -0.23925781 C25.95689863 -0.29399672 29.24168158 -0.31589647 32.52807617 -0.33056641 C33.54593704 -0.35323578 34.56379791 -0.37590515 35.61250305 -0.39926147 C40.04398444 -0.38602486 42.72163377 -0.23541271 46.58691406 2.04980469 C49.31970332 6.66988728 49.16310604 10.72470482 49.11010742 16.00537109 C49.11489105 17.05184814 49.11967468 18.0983252 49.12460327 19.17651367 C49.1280004 21.38543199 49.11881117 23.59440071 49.09790039 25.80322266 C49.07113388 29.18164319 49.09765635 32.55674123 49.12963867 35.93505859 C49.12633454 38.08350342 49.11992825 40.23194618 49.11010742 42.38037109 C49.12022858 43.3888208 49.13034973 44.39727051 49.14077759 45.4362793 C49.06728623 49.84031342 48.8581406 52.5033652 46.56884766 56.33374023 C41.99641192 59.05589629 38.04683844 58.85467473 32.81713867 58.75146484 C31.79048599 58.74913345 30.76383331 58.74680206 29.70606995 58.74440002 C27.53996448 58.73467335 25.37388405 58.71291126 23.20800781 58.67993164 C19.89178839 58.63049399 16.57705285 58.618448 13.26049805 58.61279297 C11.15436247 58.59870755 9.04823976 58.58250336 6.94213867 58.56396484 C5.95040146 58.55860214 4.95866425 58.55323944 3.93687439 58.54771423 C3.01233963 58.53172684 2.08780487 58.51573944 1.13525391 58.49926758 C0.32426743 58.48862778 -0.48671906 58.47798798 -1.32228088 58.46702576 C-3.87086854 58.1539392 -5.42110325 57.62591117 -7.55395508 56.19287109 C-9.47644919 53.32720201 -9.80881823 51.00343204 -9.82861328 47.59545898 C-9.83814529 46.69094498 -9.84767731 45.78643097 -9.85749817 44.85450745 C-9.85658676 43.88464401 -9.85567535 42.91478058 -9.85473633 41.91552734 C-9.85902145 40.91202744 -9.86330658 39.90852753 -9.86772156 38.87461853 C-9.87346043 36.75390375 -9.87396838 34.63316928 -9.86962891 32.51245117 C-9.86647013 29.27081665 -9.88992997 26.03009586 -9.9152832 22.78857422 C-9.91755638 20.72672641 -9.91825961 18.66487615 -9.91723633 16.60302734 C-9.92644608 15.63518814 -9.93565582 14.66734894 -9.94514465 13.67018127 C-9.91125022 8.7310468 -9.87263962 5.15273985 -6.55395508 1.19287109 C-4.17364547 0.00271629 -2.65732397 0.04101607 0 0 Z M7.44604492 17.19287109 C7.44604492 25.11287109 7.44604492 33.03287109 7.44604492 41.19287109 C15.36604492 41.19287109 23.28604492 41.19287109 31.44604492 41.19287109 C31.44604492 33.27287109 31.44604492 25.35287109 31.44604492 17.19287109 C23.52604492 17.19287109 15.60604492 17.19287109 7.44604492 17.19287109 Z " fill="#000000" transform="translate(337.553955078125,413.80712890625)"/>
<path d="M0 0 C1.41705986 -0.02409439 1.41705986 -0.02409439 2.86274719 -0.04867554 C7.18518385 -0.09310153 11.5074666 -0.13418924 15.83007812 -0.15722656 C18.11045535 -0.17378987 20.39078058 -0.20108456 22.67089844 -0.23925781 C25.95689863 -0.29399672 29.24168158 -0.31589647 32.52807617 -0.33056641 C33.54593704 -0.35323578 34.56379791 -0.37590515 35.61250305 -0.39926147 C40.04395423 -0.38602495 42.72364856 -0.23312015 46.59130859 2.04760742 C49.32554798 6.68433324 49.12557693 10.74778256 49.03979492 16.04052734 C49.03983521 17.08937607 49.03987549 18.13822479 49.03991699 19.21885681 C49.03456426 21.43201706 49.01699225 23.64517699 48.98803711 25.8581543 C48.94614828 29.24700927 48.94697257 32.63387877 48.95385742 36.02294922 C48.94336593 38.17465575 48.93042805 40.32635203 48.91479492 42.47802734 C48.91459351 43.49163834 48.91439209 44.50524933 48.91418457 45.54957581 C48.89827271 46.49413132 48.88236084 47.43868683 48.8659668 48.41186523 C48.85754761 49.24061661 48.84912842 50.06936798 48.8404541 50.92323303 C48.35006352 53.74519862 47.39889918 55.11960469 45.44604492 57.19287109 C42.62265338 58.13400161 40.87092283 58.32417272 37.94628906 58.33813477 C37.03847183 58.34451462 36.1306546 58.35089447 35.19532776 58.35746765 C34.21716599 58.35858047 33.23900421 58.3596933 32.23120117 58.36083984 C31.22391464 58.36416824 30.21662811 58.36749664 29.17881775 58.3709259 C27.04792742 58.37598975 24.91702915 58.3783344 22.78613281 58.37817383 C19.524851 58.38036016 16.26390749 58.39852131 13.00268555 58.41748047 C10.93302525 58.42041451 8.86336334 58.42239923 6.79370117 58.42333984 C5.32949486 58.43411812 5.32949486 58.43411812 3.83570862 58.44511414 C2.92473923 58.44203751 2.01376984 58.43896088 1.07519531 58.43579102 C-0.12368568 58.43792854 -0.12368568 58.43792854 -1.3467865 58.44010925 C-3.89765795 58.15437088 -5.42274137 57.62648846 -7.55395508 56.19287109 C-9.47644919 53.32720201 -9.80881823 51.00343204 -9.82861328 47.59545898 C-9.83814529 46.69094498 -9.84767731 45.78643097 -9.85749817 44.85450745 C-9.85658676 43.88464401 -9.85567535 42.91478058 -9.85473633 41.91552734 C-9.85902145 40.91202744 -9.86330658 39.90852753 -9.86772156 38.87461853 C-9.87346043 36.75390375 -9.87396838 34.63316928 -9.86962891 32.51245117 C-9.86647013 29.27081665 -9.88992997 26.03009586 -9.9152832 22.78857422 C-9.91755638 20.72672641 -9.91825961 18.66487615 -9.91723633 16.60302734 C-9.92644608 15.63518814 -9.93565582 14.66734894 -9.94514465 13.67018127 C-9.91125022 8.7310468 -9.87263962 5.15273985 -6.55395508 1.19287109 C-4.17364547 0.00271629 -2.65732397 0.04101607 0 0 Z M7.44604492 17.19287109 C7.44604492 25.11287109 7.44604492 33.03287109 7.44604492 41.19287109 C15.36604492 41.19287109 23.28604492 41.19287109 31.44604492 41.19287109 C31.44604492 33.27287109 31.44604492 25.35287109 31.44604492 17.19287109 C23.52604492 17.19287109 15.60604492 17.19287109 7.44604492 17.19287109 Z " fill="#000000" transform="translate(337.553955078125,343.80712890625)"/>
<path d="M0 0 C0.94463104 -0.0159874 1.88926208 -0.03197479 2.86251831 -0.04844666 C4.39067673 -0.05649071 4.39067673 -0.05649071 5.94970703 -0.06469727 C6.99901398 -0.07372574 8.04832092 -0.08275421 9.12942505 -0.09205627 C11.35025169 -0.10656993 13.57112119 -0.11544827 15.79199219 -0.11914062 C19.18774577 -0.13103426 22.58168097 -0.18020855 25.97705078 -0.23071289 C28.13459399 -0.24017729 30.29214837 -0.24741224 32.44970703 -0.25219727 C33.46443085 -0.27172958 34.47915466 -0.2912619 35.52462769 -0.31138611 C39.94491491 -0.28313466 42.61778877 -0.11696029 46.47119141 2.16552734 C49.20801256 6.78373355 49.04958186 10.83810921 48.99658203 16.11889648 C49.00136566 17.16537354 49.00614929 18.21185059 49.01107788 19.29003906 C49.01447501 21.49895738 49.00528578 23.7079261 48.984375 25.91674805 C48.95760849 29.29516858 48.98413096 32.67026662 49.01611328 36.04858398 C49.01280915 38.19702881 49.00640286 40.34547157 48.99658203 42.49389648 C49.00670319 43.50234619 49.01682434 44.5107959 49.0272522 45.54980469 C48.95376084 49.95383881 48.74461521 52.61689059 46.45532227 56.44726562 C41.88288653 59.16942168 37.93331305 58.96820012 32.70361328 58.86499023 C31.6769606 58.86265884 30.65030792 58.86032745 29.59254456 58.85792542 C27.42643908 58.84819874 25.26035866 58.82643665 23.09448242 58.79345703 C19.778263 58.74401938 16.46352746 58.73197339 13.14697266 58.72631836 C11.04083707 58.71223294 8.93471437 58.69602875 6.82861328 58.67749023 C5.83687607 58.67212753 4.84513885 58.66676483 3.823349 58.66123962 C2.89881424 58.64525223 1.97427948 58.62926483 1.02172852 58.61279297 C0.21074203 58.60215317 -0.60024445 58.59151337 -1.43580627 58.58055115 C-3.98439393 58.26746459 -5.53462864 57.73943656 -7.66748047 56.30639648 C-9.59781738 53.43290164 -9.91943879 51.11125299 -9.92626953 47.69311523 C-9.93257385 46.78537354 -9.93887817 45.87763184 -9.94537354 44.94238281 C-9.94132507 43.96938232 -9.93727661 42.99638184 -9.93310547 41.99389648 C-9.93501892 40.9880249 -9.93693237 39.98215332 -9.93890381 38.94580078 C-9.94026372 36.82087961 -9.93658083 34.69595009 -9.92822266 32.57104492 C-9.91752055 29.31857643 -9.92812467 26.06666029 -9.94091797 22.81420898 C-9.93959634 20.7491036 -9.93703388 18.68399856 -9.93310547 16.61889648 C-9.93715393 15.645896 -9.94120239 14.67289551 -9.94537354 13.67041016 C-9.93906921 12.76266846 -9.93276489 11.85492676 -9.92626953 10.91967773 C-9.92467834 10.12343994 -9.92308716 9.32720215 -9.92144775 8.50683594 C-9.63150619 5.99470584 -9.02514564 4.43525169 -7.66748047 2.30639648 C-4.49019761 0.18820791 -3.64790667 0.04670795 0 0 Z M7.33251953 17.30639648 C7.33251953 25.22639648 7.33251953 33.14639648 7.33251953 41.30639648 C15.25251953 41.30639648 23.17251953 41.30639648 31.33251953 41.30639648 C31.33251953 33.38639648 31.33251953 25.46639648 31.33251953 17.30639648 C23.41251953 17.30639648 15.49251953 17.30639648 7.33251953 17.30639648 Z " fill="#000000" transform="translate(414.66748046875,343.693603515625)"/>
<path d="M0 0 C0.92453476 -0.0159874 1.84906952 -0.03197479 2.80162048 -0.04844666 C3.7933577 -0.05380936 4.78509491 -0.05917206 5.80688477 -0.06469727 C6.83258072 -0.07372574 7.85827667 -0.08275421 8.91505432 -0.09205627 C11.08282555 -0.1065539 13.25064048 -0.1154443 15.41845703 -0.11914062 C18.73292679 -0.13104832 22.04554157 -0.1802497 25.35961914 -0.23071289 C27.46703194 -0.24017602 29.57445616 -0.24741158 31.68188477 -0.25219727 C32.67159775 -0.27172958 33.66131073 -0.2912619 34.68101501 -0.31138611 C39.04355959 -0.28280496 41.63353803 -0.09679963 45.43359375 2.16552734 C48.19249708 6.78164015 48.02793378 10.83009477 47.97485352 16.11889648 C47.97963715 17.16537354 47.98442078 18.21185059 47.98934937 19.29003906 C47.9927465 21.49895738 47.98355727 23.7079261 47.96264648 25.91674805 C47.93587997 29.29516858 47.96240244 32.67026662 47.99438477 36.04858398 C47.99108064 38.19702881 47.98467434 40.34547157 47.97485352 42.49389648 C47.98497467 43.50234619 47.99509583 44.5107959 48.00552368 45.54980469 C47.93203232 49.95383881 47.72288669 52.61689059 45.43359375 56.44726562 C40.86115802 59.16942168 36.91158453 58.96820012 31.68188477 58.86499023 C30.65523209 58.86265884 29.62857941 58.86032745 28.57081604 58.85792542 C26.40471057 58.84819874 24.23863014 58.82643665 22.07275391 58.79345703 C18.75653449 58.74401938 15.44179895 58.73197339 12.12524414 58.72631836 C10.01910856 58.71223294 7.91298586 58.69602875 5.80688477 58.67749023 C4.81514755 58.67212753 3.82341034 58.66676483 2.80162048 58.66123962 C1.87708572 58.64525223 0.95255096 58.62926483 0 58.61279297 C-0.81098648 58.60215317 -1.62197296 58.59151337 -2.45753479 58.58055115 C-5.00612244 58.26746459 -6.55635716 57.73943656 -8.68920898 56.30639648 C-10.6195459 53.43290164 -10.94116731 51.11125299 -10.94799805 47.69311523 C-10.95430237 46.78537354 -10.96060669 45.87763184 -10.96710205 44.94238281 C-10.96305359 43.96938232 -10.95900513 42.99638184 -10.95483398 41.99389648 C-10.95674744 40.9880249 -10.95866089 39.98215332 -10.96063232 38.94580078 C-10.96199223 36.82087961 -10.95830935 34.69595009 -10.94995117 32.57104492 C-10.93924906 29.31857643 -10.94985318 26.06666029 -10.96264648 22.81420898 C-10.96132486 20.7491036 -10.95876239 18.68399856 -10.95483398 16.61889648 C-10.95888245 15.645896 -10.96293091 14.67289551 -10.96710205 13.67041016 C-10.96079773 12.76266846 -10.95449341 11.85492676 -10.94799805 10.91967773 C-10.94640686 10.12343994 -10.94481567 9.32720215 -10.94317627 8.50683594 C-10.64963613 5.96352683 -10.1179035 4.43314768 -8.68920898 2.30639648 C-5.804121 0.36793707 -3.43204307 0.04502696 0 0 Z M6.31079102 17.30639648 C6.31079102 25.22639648 6.31079102 33.14639648 6.31079102 41.30639648 C14.23079102 41.30639648 22.15079102 41.30639648 30.31079102 41.30639648 C30.31079102 33.38639648 30.31079102 25.46639648 30.31079102 17.30639648 C22.39079102 17.30639648 14.47079102 17.30639648 6.31079102 17.30639648 Z " fill="#000000" transform="translate(415.689208984375,413.693603515625)"/>
<path d="M0 0 C0.92461029 -0.0127597 1.84922058 -0.02551941 2.80184937 -0.03866577 C3.79874786 -0.04089142 4.79564636 -0.04311707 5.82275391 -0.04541016 C6.84986481 -0.05206696 7.87697571 -0.05872375 8.93521118 -0.06558228 C11.10897021 -0.0757114 13.28276036 -0.08039922 15.45654297 -0.08007812 C18.77965684 -0.08444681 22.10143798 -0.12075225 25.42431641 -0.15869141 C27.53629103 -0.16456039 29.64827196 -0.16852924 31.76025391 -0.17041016 C32.75310394 -0.18478119 33.74595398 -0.19915222 34.76889038 -0.21395874 C38.81466455 -0.18721655 41.80192979 0.02572129 45.54931641 1.62011719 C48.58610079 5.94516245 48.13761137 10.31944522 48.08837891 15.47802734 C48.09316254 16.57268311 48.09794617 17.66733887 48.10287476 18.79516602 C48.10627562 21.10841306 48.09706033 23.42170805 48.07617188 25.73486328 C48.04941144 29.27794446 48.07591601 32.81785734 48.10791016 36.36083984 C48.10460609 38.60824268 48.09819994 40.85564354 48.08837891 43.10302734 C48.09850006 44.16352295 48.10862122 45.22401855 48.11904907 46.31665039 C48.00496728 53.46684488 48.00496728 53.46684488 45.54492188 56.95654297 C40.95892824 58.91694582 36.77177251 58.8623303 31.83056641 58.82177734 C30.8062854 58.82560425 29.78200439 58.82943115 28.72668457 58.83337402 C26.56485001 58.83609145 24.40298247 58.8287422 22.24121094 58.81201172 C18.9356137 58.79060052 15.63218994 58.81182003 12.32666016 58.83740234 C10.22379078 58.83475904 8.12092276 58.82963401 6.01806641 58.82177734 C5.03149048 58.82987427 4.04491455 58.83797119 3.02844238 58.84631348 C-1.31255671 58.78710686 -3.88621456 58.70108074 -7.67529297 56.44482422 C-10.36942404 53.39073731 -10.70154355 50.91587454 -10.73681641 46.99023438 C-10.74642395 46.12568634 -10.75603149 45.26113831 -10.76593018 44.37039185 C-10.77018005 43.43911469 -10.77442993 42.50783752 -10.77880859 41.54833984 C-10.78450867 40.58781708 -10.79020874 39.62729431 -10.79608154 38.63766479 C-10.80552817 36.60513408 -10.81206419 34.57258807 -10.81591797 32.54003906 C-10.82562442 29.43446077 -10.85665145 26.32954409 -10.88818359 23.22412109 C-10.89471376 21.2488646 -10.89996418 19.27360339 -10.90380859 17.29833984 C-10.9161554 16.37111115 -10.9285022 15.44388245 -10.94122314 14.48855591 C-10.92444734 9.620589 -10.82946251 6.19334652 -7.57568359 2.29052734 C-4.41493899 0.18336428 -3.61782325 0.03391611 0 0 Z M6.42431641 17.29052734 C6.42431641 25.21052734 6.42431641 33.13052734 6.42431641 41.29052734 C14.34431641 41.29052734 22.26431641 41.29052734 30.42431641 41.29052734 C30.42431641 33.37052734 30.42431641 25.45052734 30.42431641 17.29052734 C22.50431641 17.29052734 14.58431641 17.29052734 6.42431641 17.29052734 Z " fill="#000000" transform="translate(262.57568359375,413.70947265625)"/>
<path d="M0 0 C0.92461029 -0.0127597 1.84922058 -0.02551941 2.80184937 -0.03866577 C3.79874786 -0.04089142 4.79564636 -0.04311707 5.82275391 -0.04541016 C6.84986481 -0.05206696 7.87697571 -0.05872375 8.93521118 -0.06558228 C11.10897021 -0.0757114 13.28276036 -0.08039922 15.45654297 -0.08007812 C18.77965684 -0.08444681 22.10143798 -0.12075225 25.42431641 -0.15869141 C27.53629103 -0.16456039 29.64827196 -0.16852924 31.76025391 -0.17041016 C32.75310394 -0.18478119 33.74595398 -0.19915222 34.76889038 -0.21395874 C38.82404539 -0.18715454 41.7992405 0.02140287 45.54931641 1.63598633 C48.55701375 5.89414951 48.13812835 10.13430752 48.08837891 15.22412109 C48.09316254 16.29420914 48.09794617 17.36429718 48.10287476 18.46681213 C48.10627565 20.72878489 48.09706015 22.99080668 48.07617188 25.25268555 C48.04943731 28.71238104 48.07590196 32.1688242 48.10791016 35.62841797 C48.10460558 37.82699283 48.09819836 40.02556567 48.08837891 42.22412109 C48.09850006 43.25758163 48.10862122 44.29104218 48.11904907 45.3558197 C48.04637951 49.81780051 47.85907746 52.56129447 45.54492188 56.44287109 C40.98742957 59.14128306 37.03993952 58.98944033 31.83056641 58.91943359 C30.8062854 58.92184555 29.78200439 58.92425751 28.72668457 58.92674255 C26.56482057 58.92576468 24.40293136 58.91238544 22.24121094 58.88745117 C18.93549381 58.85314335 15.63245048 58.86679622 12.32666016 58.88623047 C10.22378421 58.87933182 8.12091516 58.86965927 6.01806641 58.85693359 C5.03149048 58.86189346 4.04491455 58.86685333 3.02844238 58.8719635 C-1.30919673 58.79765811 -3.89072773 58.69887887 -7.67529297 56.44262695 C-10.37062782 53.39029182 -10.70155034 50.91511844 -10.73681641 46.99023438 C-10.74642395 46.12568634 -10.75603149 45.26113831 -10.76593018 44.37039185 C-10.77018005 43.43911469 -10.77442993 42.50783752 -10.77880859 41.54833984 C-10.78450867 40.58781708 -10.79020874 39.62729431 -10.79608154 38.63766479 C-10.80552817 36.60513408 -10.81206419 34.57258807 -10.81591797 32.54003906 C-10.82562442 29.43446077 -10.85665145 26.32954409 -10.88818359 23.22412109 C-10.89471376 21.2488646 -10.89996418 19.27360339 -10.90380859 17.29833984 C-10.9161554 16.37111115 -10.9285022 15.44388245 -10.94122314 14.48855591 C-10.92444734 9.620589 -10.82946251 6.19334652 -7.57568359 2.29052734 C-4.41493899 0.18336428 -3.61782325 0.03391611 0 0 Z M6.42431641 17.29052734 C6.42431641 25.21052734 6.42431641 33.13052734 6.42431641 41.29052734 C14.34431641 41.29052734 22.26431641 41.29052734 30.42431641 41.29052734 C30.42431641 33.37052734 30.42431641 25.45052734 30.42431641 17.29052734 C22.50431641 17.29052734 14.58431641 17.29052734 6.42431641 17.29052734 Z " fill="#000000" transform="translate(262.57568359375,343.70947265625)"/>
<path d="M0 0 C1.09631241 -0.0087616 2.19262482 -0.01752319 3.32215881 -0.02655029 C6.95019982 -0.04857751 10.57702448 -0.0339784 14.20507812 -0.01708984 C16.72326899 -0.02045698 19.24145827 -0.02530875 21.75964355 -0.03158569 C27.03894489 -0.03896155 32.31792919 -0.02870381 37.59716797 -0.00488281 C43.69817694 0.02232852 49.79835047 0.01351406 55.8993392 -0.01401484 C61.77165873 -0.03944997 67.64366101 -0.03674386 73.51600647 -0.02210617 C76.01351539 -0.01876668 78.51104557 -0.02287817 81.00852966 -0.03450394 C84.4971494 -0.04717886 87.98415686 -0.02787967 91.47265625 0 C92.50862442 -0.01012115 93.54459259 -0.02024231 94.61195374 -0.03067017 C101.59181441 0.07286281 101.59181441 0.07286281 104.87780762 2.99990845 C106.55039218 6.25892347 106.83915927 8.02998576 106.23632812 11.64697266 C103.36122892 16.26766781 103.36122892 16.26766781 100.37280178 17.27533436 C98.13918249 17.66387108 96.06964628 17.77571377 93.80274963 17.78068542 C92.48011108 17.7870829 92.48011108 17.7870829 91.13075256 17.79360962 C90.17116135 17.79315643 89.21157013 17.79270325 88.22290039 17.79223633 C86.69788406 17.79727425 86.69788406 17.79727425 85.14205933 17.80241394 C81.77893861 17.81191835 78.41586769 17.81386672 75.05273438 17.81494141 C72.7163033 17.81815405 70.37987242 17.82151813 68.04344177 17.82502747 C63.14508599 17.83101725 58.24674786 17.83286749 53.34838867 17.83227539 C47.06909132 17.83217371 40.7899069 17.84583262 34.51063633 17.8630476 C29.68510925 17.87416031 24.85960954 17.87619483 20.03407097 17.87566566 C17.71880644 17.87684662 15.40354121 17.88127486 13.08828926 17.88899803 C9.85182886 17.89878419 6.61561467 17.89592532 3.37915039 17.88989258 C2.4215834 17.89551208 1.46401642 17.90113159 0.47743225 17.90692139 C-9.47187313 17.85974385 -9.47187313 17.85974385 -13.57617188 13.89697266 C-15.174784 10.86802337 -15.24738323 9.03295214 -14.76367188 5.64697266 C-11.43542517 -0.86638245 -6.52535683 -0.06375113 0 0 Z " fill="#000000" transform="translate(217.763671875,48.35302734375)"/>
<path d="M0 0 C1.09631241 -0.0087616 2.19262482 -0.01752319 3.32215881 -0.02655029 C6.95019982 -0.04857751 10.57702448 -0.0339784 14.20507812 -0.01708984 C16.72326899 -0.02045698 19.24145827 -0.02530875 21.75964355 -0.03158569 C27.03894489 -0.03896155 32.31792919 -0.02870381 37.59716797 -0.00488281 C43.69817694 0.02232852 49.79835047 0.01351406 55.8993392 -0.01401484 C61.77165873 -0.03944997 67.64366101 -0.03674386 73.51600647 -0.02210617 C76.01351539 -0.01876668 78.51104557 -0.02287817 81.00852966 -0.03450394 C84.4971494 -0.04717886 87.98415686 -0.02787967 91.47265625 0 C92.50862442 -0.01012115 93.54459259 -0.02024231 94.61195374 -0.03067017 C101.59181441 0.07286281 101.59181441 0.07286281 104.87780762 2.99990845 C106.55039218 6.25892347 106.83915927 8.02998576 106.23632812 11.64697266 C104.87780762 14.29403687 104.87780762 14.29403687 102.23632812 16.64697266 C98.65919343 17.41469323 95.11937357 17.32957285 91.47265625 17.29394531 C89.82818764 17.30708771 89.82818764 17.30708771 88.15049744 17.32049561 C84.52245643 17.34252282 80.89563177 17.32792371 77.26757812 17.31103516 C74.74938726 17.3144023 72.23119798 17.31925406 69.7130127 17.32553101 C64.43371136 17.33290686 59.15472706 17.32264913 53.87548828 17.29882812 C47.77447931 17.27161679 41.67430578 17.28043125 35.57331705 17.30796015 C29.70099752 17.33339528 23.82899524 17.33068917 17.95664978 17.31605148 C15.45914086 17.312712 12.96161068 17.31682349 10.46412659 17.32844925 C6.97550685 17.34112417 3.48849939 17.32182498 0 17.29394531 C-1.55395226 17.30912704 -1.55395226 17.30912704 -3.13929749 17.32461548 C-10.11915816 17.2210825 -10.11915816 17.2210825 -13.40515137 14.29403687 C-15.07773593 11.03502184 -15.36650302 9.26395955 -14.76367188 5.64697266 C-11.42272479 -0.86283078 -6.53248984 -0.06382082 0 0 Z " fill="#000000" transform="translate(217.763671875,91.35302734375)"/>
</svg>
